<mxfile host="app.diagrams.net" modified="2023-07-11T02:27:21.542Z" agent="Mozilla/5.0 (Windows NT 10.0; Win64; x64) AppleWebKit/537.36 (KHTML, like Gecko) Chrome/114.0.0.0 Safari/537.36" etag="Ir9PwtWACY0KnWYzh5ZW" version="21.6.1" type="device">
  <diagram name="페이지-1" id="LRV9yE4w53HvQbfg9ijL">
    <mxGraphModel dx="398" dy="353" grid="1" gridSize="10" guides="1" tooltips="1" connect="1" arrows="1" fold="1" page="1" pageScale="1" pageWidth="827" pageHeight="1169" math="0" shadow="0">
      <root>
        <mxCell id="0" />
        <mxCell id="1" parent="0" />
        <mxCell id="JSBXhnSBdoEHyfM7yJ-U-1" value="" style="rounded=0;whiteSpace=wrap;html=1;" parent="1" vertex="1">
          <mxGeometry x="20" y="80" width="770" height="500" as="geometry" />
        </mxCell>
        <mxCell id="JSBXhnSBdoEHyfM7yJ-U-2" value="JS Runtime" style="rounded=1;whiteSpace=wrap;html=1;" parent="1" vertex="1">
          <mxGeometry x="20" y="20" width="120" height="60" as="geometry" />
        </mxCell>
        <mxCell id="JSBXhnSBdoEHyfM7yJ-U-3" value="" style="rounded=0;whiteSpace=wrap;html=1;" parent="1" vertex="1">
          <mxGeometry x="250" y="120" width="210" height="310" as="geometry" />
        </mxCell>
        <mxCell id="JSBXhnSBdoEHyfM7yJ-U-4" value="Memory Heap" style="rounded=1;whiteSpace=wrap;html=1;" parent="1" vertex="1">
          <mxGeometry x="250" y="120" width="210" height="40" as="geometry" />
        </mxCell>
        <mxCell id="JSBXhnSBdoEHyfM7yJ-U-7" value="" style="rounded=0;whiteSpace=wrap;html=1;" parent="1" vertex="1">
          <mxGeometry x="40" y="120" width="200" height="310" as="geometry" />
        </mxCell>
        <mxCell id="JSBXhnSBdoEHyfM7yJ-U-6" value="Call Stack" style="rounded=1;whiteSpace=wrap;html=1;" parent="1" vertex="1">
          <mxGeometry x="40" y="120" width="200" height="40" as="geometry" />
        </mxCell>
        <mxCell id="qx6QT4jI885-rkSV4hu6-12" style="edgeStyle=orthogonalEdgeStyle;rounded=0;orthogonalLoop=1;jettySize=auto;html=1;entryX=0.25;entryY=1;entryDx=0;entryDy=0;" edge="1" parent="1" source="JSBXhnSBdoEHyfM7yJ-U-9" target="qx6QT4jI885-rkSV4hu6-2">
          <mxGeometry relative="1" as="geometry">
            <Array as="points">
              <mxPoint x="65" y="480" />
              <mxPoint x="300" y="480" />
            </Array>
          </mxGeometry>
        </mxCell>
        <mxCell id="JSBXhnSBdoEHyfM7yJ-U-9" value="Event Loop" style="ellipse;shape=umlControl;whiteSpace=wrap;html=1;" parent="1" vertex="1">
          <mxGeometry x="30" y="491" width="70" height="80" as="geometry" />
        </mxCell>
        <mxCell id="JSBXhnSBdoEHyfM7yJ-U-11" value="Web API" style="rounded=1;whiteSpace=wrap;html=1;" parent="1" vertex="1">
          <mxGeometry x="580" y="90" width="200" height="40" as="geometry" />
        </mxCell>
        <mxCell id="qx6QT4jI885-rkSV4hu6-11" style="edgeStyle=orthogonalEdgeStyle;rounded=0;orthogonalLoop=1;jettySize=auto;html=1;exitX=0;exitY=0.25;exitDx=0;exitDy=0;" edge="1" parent="1" source="JSBXhnSBdoEHyfM7yJ-U-13" target="JSBXhnSBdoEHyfM7yJ-U-9">
          <mxGeometry relative="1" as="geometry" />
        </mxCell>
        <mxCell id="JSBXhnSBdoEHyfM7yJ-U-13" value="" style="rounded=0;whiteSpace=wrap;html=1;" parent="1" vertex="1">
          <mxGeometry x="510" y="450" width="190" height="90" as="geometry" />
        </mxCell>
        <mxCell id="JSBXhnSBdoEHyfM7yJ-U-19" value="Callback Queue" style="rounded=1;whiteSpace=wrap;html=1;" parent="1" vertex="1">
          <mxGeometry x="510" y="410" width="190" height="40" as="geometry" />
        </mxCell>
        <mxCell id="JSBXhnSBdoEHyfM7yJ-U-25" value="Javascript Engine" style="swimlane;whiteSpace=wrap;html=1;" parent="1" vertex="1">
          <mxGeometry x="30" y="90" width="440" height="350" as="geometry" />
        </mxCell>
        <mxCell id="qx6QT4jI885-rkSV4hu6-2" value="" style="shape=image;verticalLabelPosition=bottom;labelBackgroundColor=default;verticalAlign=top;aspect=fixed;imageAspect=0;image=data:image/png,iVBORw0KGgoAAAANSUhEUgAAA1kAAAEfCAYAAACznwxrAAAgAElEQVR4nOydeVxU5f7H3wd0EBlQQIQQR1lEwQwMUbwiLtc1c0nNn6mZS2leS+tmpaVt5s3KFi0zLbVrad3UtExzyxUTF1IyQAVFEQ1FAQFDRpj5/TEzzJmRgQGG1eftC+ScOfOcZ845c87zeb6bBGgRCAQCQTEN7BsBIEn2SHb2SNjVcI8EgupCq/+tQaMpQqspRKMtArRotZqa7ZpAIBDUIRrUdAcEAoFAIBDUFiT9b90/JDskIbAEAoGg3AiRJRAIBAKBwAwJSbIDtNihRYMWrVZCOL8IBAKBdQiRJRAIBAKB4C4kSQLsdX9rtUiSBq0WhNASCASCshEiSyAQCAQCQQlISBKAHUgSaHXLQmgJBAJB2YhoboFAIBAIBBaQMLgO2km6JDA6C5dAIBAISkNYsgQCgUAgEJghE1KShKS1A0mLFi1ohcgSCASCshAiSyAQCAQCgUUk0LkLoss0iFYrnAUFAoGgDITIEggEAoFAUAqGVO6SLp27pNFbs4TUEggEAkuImCyBQCAQCASlIunjsgz1s3RhWcJtUCAQCCwhRJZAIBAIBALrkCRdjBb2+gQYQmgJBAJBSQiRJRAIBAKBoBQk2V92OouWZKf/uwa7JRAIBLUYIbIEAoFAIBCUgd5qJRmFFsKSJRAIBBYRiS8EAoFAIBBYhaRPgqH7W4tWq6nhHgkEAkHtRFiyBAKBQCAQWImEJMmSYAhrlkAgEJSIEFkCgUAgEAjKwd1CSxLBWQKBQGCCEFkCgUAgEAjKiSFGSx+fhR3CoiUQCARGREyWQCAQCAQCKzEIKa3OgoUdoAWtRpQmFggEAhlCZAkEAoFAICg/xSILtJIWCQmtVkgtgUAgAOEuKBAIBAKBoAJI6ERWcUp3/VqBQCAQCEuWQCAQCASCcqMTU4aEF5LWkGVQK/tfIBAI7l2EyBIIBAKBQFBxJHSug8XWLA3Ca1AgENzrCHdBgUAgEAgEFabYbdAk06CgPvDaR/Dry+BTJa0HMeEfa1kT1B9lBd6tbPom3z38JoPtbd4xgcAmCJu+4N6i2Vi6vDqNXgHO5F9LJGb1LI5Ep9V0rwS1jAb2jQCQJHskO/vi4H6BoPbiyD9nPM7EHr64Fd0g/sAG3vz0AnnVsm8tWm0RGq0GrbYIraYIjbawWvYsqDpe+wjGttP9nbYdnlgMtntaBjHhH28xpo0ToCb1t/d5LumQ1dersumrfPlwN9zsgcxjfLLtdbYU2axzglqMW+MRPBHcjy6+nrg5KoxhoBd/oN++L2u0b+aIkYPg3kE5icFL5zHk/mY4N3KguSqUIfO+IjKopjsmEAgElaEBA+e/wpwhwXg1cUTh5kPHYc+xZIZb9XVBkrDTFycWuS/qPpPeMAosAJ8u0M9mrTsxIGSuXmABKFC160lnq9/vxcj24TqBBeAWzrMPvckAMaKt39iFMCFiPd89OpmB7Vvi1lhR6+814pKsLzgGobz/RfwnrqL7G5/gXtP9KS+qfqjGLeeRL6KZvWMrnapiH8MeJsx8zGHnQ8T/ja2KvQmqjWCco2bSZf4PTP1fHDPnT6rpDgnqEh5udB/xEAs+msX32+axoE9Nd6giRDAwzPmutarIfnSvph5ISMXugpIoTGwjGqC6P4Qxr0xi5dfvsGup7WROaUx6GZ7rIluRBe8+Bats0roTA4I+4ZlQV+OqzGN8uHUBe6xuI52vDr/PL5fUxlVu4TwT9STBNumjoPYRxJSoNxnT1qnsTWsRIvFFvaAXraa/SHDxPetcTXamAkxi8EcvEeFiWL5ZNbtxdKBhSevtHapmf4LqYdr7zB7uX7yYVYNdEdQ9pr79Go8WXz65FW+oz+Nsnh1WodgSSyRvfI6nl1mzZUMUihJW2zekpNVVgyHboJ0+CYakT34hIhIqTJ8xLH5Zdk3dqvpd+vSDaT2h+Kmohg1vwSob7VvZ9CUmhHsZr8uCc2zY8TrbNeVsSHOIj/YpcR80k876yVNFq+G8FnKJJ+N2VJObrKC6ULX6F0Naye9majLP7GV9ws/szTlHZo31rHSEJUtw7/DtfuLV5itzObPfNvNzAoFAUDMc5GDi3TFQeQkx/Fot+5fMlnTp3HXp3YVFq87QDlZMBxfZqpil8OppG7WveJL3BoTjZrgktFkc3T6bFXc9l61Es4O5O34gucC4yi10Gm971y1rh6AsWjKijb9swkhN8r45jI5ZzMZaLLBAiCzBvUTee6xbspPzhm+kOpe4b2axZXeN9kogEAgqSSFr56zklxS9Ja6okMxTG3hlXlI19kEy/hSnc5eQhMaqMyx4FvxlxoK07fDETlu1HsSUfzxMgMxxJP3w28zNrqSJTP0lCw+dw6jTFARHvcVjYnRbj+hPG2/Z4uW9LLyYWGO9KQ/CXVBwb7FjBit31HQnBAJBvSNmM6+8vBfLzsc+jHllNB2bGJbT+OXl70qNQ8lNLcf+8xL54Kl5fFCOt1QJkoSkNdbM0mq1CJfB2k/EZBjsJ1txBd5abLv2VS3N3L0u72Bhkm0GyqmXZrM2aS0T2+jbdwji0bARbDm2UbgN1gdcPI3WTyD98j7Kc2usSYTIEggEAoGgsuTlkhBbWkyXIyNNlgvJi03jRNX2qtqRACQ77AANWrRaYcqq9TjBcwMxmSDYvwL226p9uxE801nm7qVNZ89vi0mwVfvc4tuY7+iiGk+w/kMog0cz++xG5lZRiHdtp0H4J3QJTeb4ysUUlDferbYhKUxiS/P+jquxrpQXYVAVCAQCgUBgI4zughL6lO6CWs3IZ6CjLIypIA7eOmK79ju3HUSoLCNMXuJWPv3bdu0DoPmOFbHpshVOhHZ8EpWNd1MXaBD+CVHD/HFp3Z+esz7A3VXEqNUUtrdkKcJx6TqcVh0CcHd3wlEmPzVqNQX5mdw4m8ilEz+QfbEcWfDsWuIY+iSt/hGMl1m7BX/fIic1gYtHfibj7DGrmnN8eD09u+ovvKxj7Fv0OvkAONHA70la9etMS0/X4v1o7qjJSk8kbed3XDlfARWt73/LzgF4uzvh0FhhonAL89Xc0d4iOzWdrNTfSN+/kYK7GulFq1nyLIKW8Kfzgm1l9yn5B35ZXZ2F2yYxeKM8i6Al/Hlk12keKWuzcxt49em5Jb/W5ytmvRxBmYeKc2zqO4jjZW6nw3v+MaZH6FIln/+hHSuXAc2m0fOdSfRUOdPQDu7kpRH77Xy2fG+YB/TBY/pyxjzkT3MFoCngWvIu1r08iwxrfRmajSRwwkh6hQdxX1MHGhouHk0BudfSOBO3k31fLSbrupXtmdGg80wihw8mpL0Hro1kWRg1BeRnZxAft5/Yb1aTmmpFKUqzY58V8x6L5pWdXKTT56d5RJblLebdcNN4uWlbWSDLImgJ14iXWLDrpTK2KqF9QQVxpMuIfowcEEwbL3eUjmaPFXU+6qJCMtPT+SslgT3f7uWXlPK03wDVgO5MHRxBe5Vp++r8G6QnX+DIjs2s3Z5bqmvQ1OUfy7IIWsKZLrM/ZvfsMja7Gcs7I76upqQS5rRhwcbpdGlS9pbWZyfENDviua30mboLcGTorKmM7d0aNwVQlE/q0R9ZNC+m2AqhjOzLohn9CXDTnZeCG2fZvuRzlhy6A5K+Zlap3oKOdB7Rj0cfCiHYy12WJfEO6pxM0pPi+eWHnWw4mm/lBzGjmQ8jJ/RjYHgbvJo2RlH84L2D+nYO6fEJ/Lp3Jz/tyLHCtawfy3YNIsCweG4rfZ8uO2ip9/z5zJE9+JJ/mMk0+XnpM55NL1uRmdJ/ELt2DSpzf3e1XwYjw02Xdy6zZdHhwYwM9jIuai+x50TVuPElnNvKyQcmFws6RateTGj8JW/ZWtDVZhSj8funf7FV0q5JEJ2nf8KpdS+Qdl7k3q1ubCey7EJweWgmD3bxwtGCfcxOocBR4YVPuBc+4Z1J+OxRLl4uq2FXHLu+xYMP+eNioV2Hxk54tAvHo104mqxz/L72NTL+qsDFpBiMz5OTad9CcZeJz66hAveWIbhPDsH3z+848u0arKtn74RD54V0Gmy5/wANHBU0QIFjO1fua6cgr0SRJah1KCcxeOlMImT1txoqfYh4ahGFmeH8stsH1fxNTI2Q1bCxc6B54MNMXXSbxU/PLSNpdDDes95nfF9/nEu6fuwccPbyp5PXNDr1HceZrR+zbslaK69NIPQlBj8/lghvC5Ekdg44uvnQqddYOvUayZWYtax79z2yhKO7AAge9TivPB6Gl2MpGykcUQBevs54+XqhPmq9yFKGRvD6yyPp6FHyo0rh6I6qgzuqDmEMfSyWtR99y9qTVl/9glLRFTh+tqvs3mXviKrraN544waj3khCOeBxVs0KQ15+UOEWyJBXnkU962OWxcuSYZSgtNx6D2XBs70JKFFdNETh4okqzJOpYb0Ze3Ynn7y+lT3WTiQpPRnz8mTGRnhaSGPfEEUjd1Rh3ZkY1p2xY2JZ+9E61t1j14/PeFMrFqfh44u2a1/ZoifBsvOrPneIr6rqEGs2suH0cEI7Gab4XAkNHgzHt1TRDmsh6u84++Et/n5yMh1a6K98Ry86TFyN6873OXXwUM327x7DNu6CzuNpN+sdunW1LLAqhF0IHo+vJurh0gWKyVtc/en0r9W0Dw8q3748ZxL60jQ6lCCwzHG5fzTh/XtZ0agTjg+voOdQ6/svqEv40P4/pgLLiDNhA2bCiEWMibi7SCiAo/9g+gwurf0edFr6LdP7WxBY5tg503bwPGYtmUfJezSlweCvmPnuJMsC6y4c8I6YxKwvvkJly2JAgjpJ8LTnWDSlDIFVCZQDRrPq3dEWBZY5ihZhTPzPi8wZIEKNbYFy3FRTgSXDLSySR5VhvP60qcACvfHKwZeBE0KK62WVlMo9eNpzfD3HksAqoT+B/ZjzxXQmWvNobxbCgi9eYaJFgXU3Cu8wJr77Cq/3v7eun+ciTZdP/GpLK1ZLJrQNkp2DWyQkrqnSZBRHzxwiVabnlW168lgV7q9Wot5C2uevc/TPWxSHY9kp8BnwKp2HjRDJGKqRyh9r5ydpP3M4KrMHrSbrEsl/HCPj1DH+vq1b16hFNxy9W+IVGICHZ1kNB+H+xJt0CjC9ReZfTSQ5+jdupCRzB2jUoifu4Z0J9HOlgWEgaqdANWQueelTuHjJivSgTsE8+JQTLobPoFGT8echkmN2kpejpHG7frTqHo6PzD2jaeRovA7sJb00D4b736JrV1cT0Zb31zlST8WRddZ4XHAJwtXbDQfPIJq1bombu6UGj5K2Yg6X7c3XB9HqqfEEFvfvEnGLPuNaWZ+7sLrzs+xk9+sZRN81pg+i5yuT6FTsTZHGrtmLKdMpM7cUd9OYz1k+e2OJF3jIv96nrw0ctV1DljPQX/dh8lN3suazRPxmzKSvPtWoo0dHBg8L1Qke9XVivl1GLCMY80Sw3pXOAf+wsbBlbQmt+9B+yRIeCZQdrNvXidu/nr3fbyQjNQ2UEThH9SVi0BB6BhoHQ85BY5n6xmUWvVGKi17/r3huhpk7pSaX80cPE3N4F1euAk5++Ef2oEt4MN7ygVCzCMYvetsKK5yNWf8ei46W4Gvaayaz+vsUL+bGrmL5+rKyVhVw+4xtu3dP0XUkr4xobTqAzUzjxMkETp78g4Sr+nVKTzp38ETp6UN735Z4eVjf/uezIkwG8HkpsfyyaSvrt2WSCbi1bcM/+0cytG+IUegpPPnnjGfIPPMxy82sZes/XMTREgb0vafPYmDx/SCXEyuXs+5sGf1T36Q6k6ObksLyNxaxoST10Gs07w/wKeGFctKsPYse0Z9fdRq/fPodCQ88zrN99KLF0YvQl33oqAQoJP3wZpbvhiEzRhZnT1T6BtOd3zmAnT7ToBatVgNoUY6bzvvDfWXXz99k/hnD+o172R6dQx4NUN3fnsghkTzaIxCl4SGqDGTMG49x8f++tZyVURnMgqWTigvUGsi7EEv0/jj2JN4AHPF/MISoqDCCvBobN7JzJ3LGM0xN/Zjl1ZkhOmYzr87ec3dmysB+vDYpxOhGmLqHlz6LLbO5XGstUU4Q3FK2fBN2/mzle63Brj/B8svxZgLbq7qoUeEWTqY9jMrwuRT+dPGGb69U8X5rG5o4bnw7gX3dP6Rrv5bFBhD38MlEeftx+PP3ya/rCTHqAJUUWUF4jTUTWJpbpG75mPijd5sk87LiyPsTMnYCdqVHy9h3/BchcoGlyeLsd+9xLt506G1o86LreNo9NRpfg9CwcyX4/17iWnGsVSkonIzF9/IvEbdyNldk7oY5hw9x6kh/8v49k3aGbtu1xOvBlqQfumSh0ZZ4dQ2S3TTVpG6eQ/yxEu7cWXFk6G+Kpc8g3aIopyTp4UahyZdFTUFWnPUuY9VGGvl/ppVwPjzM+lpAXuwWKuU9nBdDroVnUd6d9yvTcjGu/voAj8wY1sycQWoepO7qS88ngnUxTd4RRABQQPy3o9nyje7sxg8OJlI/AHD1sjAtO24JjwTJHrmZMaycPoHzcleZvBhyt8Wwa9t8YkZ9x9SnQotFk2u3MUS2XkX0hZIan8TASaYCKz91J6tensEVM1ec4wcWc5xg/OatYExUMwxfdUf/kYya9jMrl8WUdohsy/X9JcecdX7aZLHwznWyYmure4gTLdv76+JbKkveJeKSasbHfuiwMGRRFmQeXs6keYklzFCncaLcKcp8mDM9UtZ+Icmb32PWp9dM2s88k8T6M0msX9WaF5Y8w0CV/nGmaM3Apx9g+ct/mLSaeSatxKKVne+YLqsz0jhR9ji2Bikk9VRaySmMO9vort+ktT7uKJcjSz7mg+2FsO0gA6NGEqwA8KRLV92m6sTNPD0vWnduevWnY6R+wsfNi/ZIHJAkJH2uQQCtUyT/eSxQJrByOLrkP7y6Rf5kKCT1zzjW/RnHuk0RvP/GY4QaRJNbBGNnbGXPkpwSu9571mOmAkudxvYPPuWDPaZPnhOxSWz4YgNugx9j8dMReBk6pPBlyMx+/PL0zupLE52XQ0JsCZ/H1ex83snnRKzt7EwMAXmYYsEFKDt6thx4BaGSGTDVl/8otWSBbbjET5fSGdLScAdRoPLsD1dqunaLE/YuAUh3TZJXgMJUCnOtufffouDgVKIz3uHBsSG464WWQ4teRM3y4vgXr3Ejq5J1ygSlUjmR9cCTdJDPgmiyOL36GVKsCa7TlLbNYFT9/U0Fyk9vcy6+lKmlrDWcXqak4b8fxsdws3QNodUDTpz+w8qLKP8cRxc/y42Spuc1O0g9PJzAh1oWW6Y8VN3g0HcWGutGU3nxtJtxnC9JYAnqOAUc/34uqYbRX7oueFouYO6c28KmbwwPxrVkZM2jeIre0QVHMBOeI+k7KLhY0KBO46c3zASWGbnfj2ZdB2NSDvAh7PGRRM/fcNe2jjPGFIs8oFgkXrHow5HA+fmjWfOfTUwNN1rM/KIm4rEshgzL3RLcRScmv/oi4VYkLSiT8z8w6FmbDomsxIfgFvKZtTQOvluSwKoYyglD6S5TcHlHV94lsEzIu8AH83fQZukgDPNyyg7dmaj8g9UidrBS5J3czDvbDQP9q+Tmg4n5Un2BHz+MLj43B6/egGJnZUeUviCd11ux0AISnZ/vTZAsuUXq5o/NBJYZiTG8+EWgSWIIVddBdF7yLUfNt209iLHd5NbuHI4u+YgP9lgWn5lbvmWauiFfzzK2r/CPYGLETt6sxjmkmmCS2Rxfmo3NswM8VSaXS2r6RtvuwAKp1y6Rh1fx+VR6PUAoOzhZLXu3RGd8pliTuMwKypm0rPD0HI5+aGqIsGsSROd/ryBh9TNcrOUJMZRuXrKkMLfIrENp+SsRKRSOT+8gE5WWfeRL6wRWWdzfkwCZK7jm0l7OWCNQcj/j7GH5/hW0vH+EdfvUZJHw39klCyw9RQnJ3JAtN2hcYjCOHiX28ruLoxIHEZdV/0jdxfaNpc0sXufQV3MtW1OVLndnQBw8krBmxsXcUxs5YsXlf2XlYZOZ1+aBfUvIrjiYyHC5/4aZSLRIGqn/+Yl4tWxVs/aERpTdL0F9wxGlo+myWwdbte3MxKg2soFZGr9+YYWAS9nFrwmyb5nCl47DbNWne5U0fl0aW+qxzzy84S63TCONcQvQp3KX7PRxWSE8+qDMHz4vgR+X3rDUgJHdm4mWu3s1a8M/w+7erOOYMJOU3Xlxm3lnR9nWvbwd6/gpUW7SdCe4rw3cLms5wWbuu2m/27J1JwKayjNqpJNawey35ebmJdLleVaaelHOKP36R9YaTi9aTNxl2UPczpXgiavp0L1bzfWrLOy68e92MmtOXjJHsmuuO+Wl4sN+156m/vXqRBK37a18jwBlW3+ZeFNz8bcvrXZ9Kzh4lL9kyw18g8pOi4qatC1vlx2/lZVlOlh29cRyzPcxsq7KFhVBtP+/8ca4MUE9oIDjm2eV6o56J3EHu8o5G+rXI0iWuCKX+N1W5uK9cJIrco8TL5+7a4S07ouf3M/regzRpYpEGXnziUmU57xshl9XobLuPZJIuCK/I7vTZfpohlobb1Uavr3pIr9oz8Wx2spMhOvPyW+4DfAKaGODDt275MXu5JPSjr06iV8+Kv3eIWFIfGGvcxkc0ckk01zenwf5yare5HAiVX5zc0f1oPk2LvRuKw9ovsHJDaWLRCOFrN6fgHwOyS0grN7XWPIwm4XLsGll7M54yS322ltkVjALf/k5R6b8clG44iWyPYBmB1c+m8OhY1l3JcToOqJ2JcRQNggi0mMmnw15lcjmhrVqko+vobYGA5RExY9pmwDkz1RNaiLZNgmi64Z7K7kJKJPspHL4jOb/QVZWf+4z3Dwae6J0hLxSv9x3yLlsa1e+OK6dSEczwKtYybrcP5p/+vUnJfoHLh7dTkG+8IWt0+Sc4EgZ3/ZLifPL2ehg/D3l4c/X+MvqWk6r+CvjJYwBhs3xjoK4A7JN+vqbDBzyLyeUy93v/Lk0CDF68Xu06ALUc58am7KfN8aUO0ip1vHjvngeDTIG5Cu8Inj2m/YMPbqH9d/E8MuZCo6muvmYJru4dsF6N8SkG+TRurhPbh4+UIPpKeo2ucTv+qP0TS6dtdIdUwJJC5JEx7YtcZAk0OqcB9OvWH9+9ly5wRzjzQ23Fm0wPb+dCJC76N9OI748t6aNaaQ+HWKsgeXmTmeovrisGsBDLoJuQjkql1qBP24mnpuZJNu0/dLYS2r2i3Qu/nzOuDsBNepmtpeLi/Ziw+z4FSSRnM1T+PXKQiIH+xcnxGj64GSiPNtx9MsF5KlLb6HKaPImPwwLL9kwolWTfmwZL12sW2E3FRZZjs1NXeVuXLKuCHDZtMRRnjX25iVulut5vZe8Gy/KgmKccXADyqzHZXsKD77P8YB36CxL4GHX2BX/fpPx7zeZgoxLXEzYy9XDO8izKohRUP/xQ9lUvmxlYWYLNDBLsODqYRoM9FdKOX3kkzLIwr/46+WotIX5QlDXyNv4NctD/XjBpIaSM6quQ3mh61BeyLtK8qk4ft1xkF+iSy8SLEfV3MUkhkPZdTq7K1owukFtmpe9t5H0/9q4O6ETXYBWS8DwxewaXrE2FeYJBMLcTAdn6WlsL1eLKTrrh0EYNHLBYqJfgXVIZW8iqAluUXj0WfZdf5WOY7oVZ2d1aNGNbs99ULsSYhTeIv3iSX48/jEbb9eSPpWDCjuvOTg3NFnOv1lmwm0rMYtlqtMpJhO5sXoOhw6nl5gq08GjJYE9xtN99lr6zl5FYNf+2At3wnscD9waVV3rjo5mSYI1NsxUJbiHKOSXeW/y5uYk8opKeFnpSUDXfkx9Yz6bt81j1bxIulihx9u4Ni57I0EdQjL5cXduXFwzy+bjb9fGpiKriCqtxyQQ1Hlu5VF4d43w2kUDJ7z8uzF11FrWhIwguKb7U04qPKS3b2SLHMT3Aonk/DyJfR8uI+6PdPIsiMYGzl74PzyTPnNW0ardPR+iKRAIaj2FHPx0KcPGLWX94QtkliS2ABTuqHqMZME38/n8mdZWxMgK6iWSQVpJxcsCgaBmaNDuHTo/0x8f2bxWweVDHPr4hZqzYt18neH/fYh+/32I0d8uYPlvicY4PkmBV+hkZgeF10zfKkiF/SkKctTIc7naSU5AFZyY+mLZydrClf9t4cr/XLFv1Z/7OvaiZWhLmpoaBLFr7EXw2Hdw/OFZTp+wVINLUJ8xLdtzjk19B3G8qnZm50NZ1dkEtqQHb6yr6ynczchIYvm8j1lOA1SRIQztH0GXDm3wMldT9s4EDHuOVa5LGTW/5FgctZlQyzu8lGHzRFxVfUBCgiKd2yCShFYrkfzDDKZZmden3NiDEmHNEtQWetFqVs2kcDfFFWW/D+jcw8uk+HX27ys5tnFjramvmqk+xMakQ2y8+CSfDR9OgL6zXqGjeSzxGN/WbPespsIS5k6eqaBy8YqsdGd0nCNPHp7UxMtY7d0q+uNikpEjnbwaiMeyTBZFF78jbfNUDr/xKDs//4GE5FumXpF2Cnz7/0vM+N6TnCfLpCalA/Y2vBCuXLlmsuzRol/5GmjrY5IWPiu9bgWhCqqSQlKjY/lk3lLGDXuOUa98zS+nbmAeQ+3WYyjP+pbcgq7Okgx7EVdVf5BIzsoDyQ6DGUthZ8PzuzuddPmymxflGpUoffGSJ2rIvEq8TTpWe8mQJ4JoYlqYuPJcIlNeEsfFzZhUpMoJwc0k9XMm6aWU57lnsOuG1+TVdJMLLI2atO0LOFyLBJYJ6i/56pRMFCj86ViHQsErLLIKrmWaCAMXv044WNy6PBzlb5McEJ64l8cJ0/UB3OWzxBmpNZtQplRuUXTpSy6ufpQdK4+ZZmd0DsKz+u5IglrDKlJNRgo++Nuy3s/5DOTPGueWXUqopWWZ9m1Na8dcSV5rk27BJO6rQzdOQdlkHo3lg+fnM2rWVpJNlFvdjaUAACAASURBVJYPXR5xLvlNCelkyhaVqvZ0rMI+CqoRCfZcyiqOyQLwamvLEhBppmm7XVrTsYRaWhYZ1gZ5dQv11UtE26RfLrTxsFzspSYpuG267NPdlq2nm2Z1ltxMRWyVEoCbfHLy70z+qtPx/TbAeQS+M16lo5/COPDXZJGweiKnDh6qyZ6VydFrqbLJOgXKOhS6W/FppNOJXNX4c5/hbHmE4hPgxLnkyroM3iLrYjrGYj4KWoY/SdKfX2LJ5V+OY7fOJqnlb5zeVzvVuTnnX+fUyc10f9DggqmgkdWj32QK8pBlVHSioSOUWsCpVpFAVh6y1OMONGoNXKi5HtUkqZevQ6CxGnFg53nwTXlTwVtgRwKpMyJob7jMvB4ksg9ssSaDW+u3iZBPdaoTiN9c9ttc3fzK2CIYv/9MI6KiD+BrueRDcc26Ro4WBvC1guOsXPAKm2wR0ppXN9yJ807u4j+7O7HqIc/idUpXL6CEqeX9aaS/DG7F12cQQ7rCicNV17/MXPnV0wCFLVw5BXchIcHvl7n6aCuaS0VotaDwD2GiMtrKVPBlkUD85Tt0djH44LvTeVgbiLXG3dSFqZG+sgCIO5yLtSL/u6s7kVCKGGtAx+mTGOLf0OIWpZJ8kzwwerU4OqLCdmnlE9Khh/FriUcQcNBGjRNH0nU1vZsbjqorXq5OkFMN8T6OfnjJB+JZ6dgq/3XFOUraijlcNs+KWREKy3kF+JlmEQTQ3EysXVkES0OtxjRAqe5Q8Yin/C2km5xnJwKGvFScc78yFMYmki6bdWgQ0J/WAU6W32Cg5ZuEdpFtp7lE6sGa/2pZS9Ed02gc69XhJW7flE8Ve+HVqS4lz4ghy8Tc6EP7R3rUVGdqnKwd8cid+hoGjWTyNFsdj/c4flZeUNiZiMeXULYs6UGn2YPxk93lck/tIq6kwVHMdUyM0aoALMssH1Tz/8vk8EoIows3TYbrjv5d8au1vra3uBT/B3EnbPCTVHfKPmSqTe9t5rFXRqI5cs600HH35x9nYBWez+TMv2VLjrTpGiZctauK34+QcFWWcVARyMhF/WyWMWzd4SQT91RlxKO8YMWjMHiamRDKS2D3f0t6AJtZy9x86dK6tHaf4e1hvhUfHF64QZb8A3m351EbPto3nDdd9ilrPqyc7LhmOhGkaj7AtjuwgLK5ysQqmZfxRy2od3aLopw4CrNs8GN1yR8nHLovp+dEU4FVcHkvBxbVYIKLe4hKSKJLpG87Rra8MfdwomZ9gLurFYIIJ8t7z/qMlAS1ybaBT6yglV8ppp37ZhL6RDhNZW1mH/mO9Jqy5jiH4+BozXHQ4/ov/B6Qb59OVjksObmpV03cN+/r8RxenmXsX2GLCEzbcD7ZNPmCqs88IiN9LGyto0GzupbM00pi57M7US6EHPAbvojxM8Zab3puFmxx27P/izERcXj3Y+bSRbhaGlkqB9N+0SIe8Zc5BKvPsftzCxHreQlckw9EGoXS9/mSRGIPAhd+x9SISlqeYk+SKhd7ylCGv/FS6cJRGUwDMZKuGL7N6d62HO5PHg8wJ0r+XS4kPdmydWHtuhiz2Jownv38ccaGWnv1N8DNw3onjRN/pmF6+Qzj9VFuFrcHUHo4CiFWLgxp29P4dEcSdwx5BiVQ+A9iwdJB9G5WVhsGHHGztO23W4k2uXg8GfDeczxr8dppQMfHJvH6cFMrVvLODfxU4vZnSTWp3u5J5DMlifIGRD7/Iu8Pr4TAAuAPksw+T+9ZQ4ks9eIr5fiYkbbDNO2RQyA8V+4+WibvcrLJd1nRuhMjbNh+yTgx0qelbPkWyZf2Vvleax9BuAxbQc8BLU2MHzeOreTAZ++XWFZIYHsqF3V6+T1OHl5BVFfXYr1k1ySIzrPWk/dXIimxx8g+nYjB7bdRi244erekuZ8KzxYKzn3+KBdLTEpxi+yffybVfzgqw7PczpXgyWtR/ZVIym+/cSMlmTtAoxY9cQ+PpF2Ak4lm09w4xsltNfjFajee3sP80ajVZF29xI3zieTkZpIvOx7ghbJdO5oEdMY30NXki1Dw506ulGOiuuj3Y6T1aYnKcEd3bEnHZ9aS8echUk78xs0MndNBY98QXFQheLVrifvVH9hR4Qw1tiX/pxjO9x9ptJQofBj4+lbC/ozhUPQBzl3QVYn0eLAjrfyDCGzrj/fVDbz69NwSWvPB8f6ONLIQJKg08dxwQBk2uMS4pMKME+Sm1kTmvTTil23h/CLZ8cCZtoPn8WavaZz583cSTh7RHxMwHBfXJs1o5evDfSofmjcqJSthzHw2xTxoIm4cAx9m1sYenD96mJjDu7hyFXDywz+yB926BtPcpHZXAed/fo/jFicBVhFzchIRUcYnveqhJcxUxbB7189cueqCR7e+dO8RgZ/MRTA3rwBnZUUiO5dx5M9JdJJ9HteQScze2IOYwzHE7T2ps3R5hhIY7E+roPYE+0Ds++HWuUkKTPHvzwuzw3i9qJC8jHRSU5JIuppD+qkkkovViiMBYW0I8A+mS6gPSrmLTHoMa78ppf3Dm1l7OMSk0LHCK4yJi0IYmhrPid+TOHn4gnHw5tmaSD8XlC19adPCCy8PZ9RHy5GV8Kdo4p8IoUuxm6AzHae8xua+sRzcH8eeRF2UmFfQAwS39aF920BU9nG8M+JrfrVuDzZFqWpOGw8LQ3cn00e6wsmn5Lgk9U2STllfJNp2SOSt/R8/dXuR4b4SaCUkSYsysB9z1kYyMTmRkyfjOfL71eJcxU6tA+no5YxXgA9e3r6o3BqS/MNMC1kJ0/jkm1hCZ4VRLJMb+TLk/YVEXviDo/vj2JN4A3DE/8EQonqHEdTMNMBDfW4nnyzLMW9YTyFrD59liH9gsXhShozn6y/as2f7YaIv5OMZFMFDg0zbVef9DcrGFRBcOfx4PIUBKqNYU6h68/q3ISQejuZA9FnO3QKcPOncwZeA0EACVJ6kb7Z0fMy4COeugo/BZdARIh4BNpW7oyVTuI+Ea/3xaq5fbhxEFw/YmFHquyqH3QhCVbIjnZfMwUzLm9dLFIPxeXIyHVrIjoNGTdrO92t9/FV9o5KpfW6R//PbHHaYS9cHXU1EjvK+IDo8HAQPW35vqeR+Sfx/XVE80cvEzKm8L4gOI0q3l2sy4ji88vVaodTtFArcW/rj3lIfzGLxeBjRZBzi8P++K9+O8r/kzLYQPIf5GxOQ2CnweKAXHg/0Kvk9V8u3iyrlwly+/7kjM4f7YzzdDjS/vweP3G/BVc5i//vR582XrIzx8aHvwvfpW8IrWTHvsWheDaXITpzLyiUeTJ/RA2/5k1nZjLYR/WgbUc6sgCakkTpvFt8vWcSoIJm9x84Zv4h++JXadgHnt73HymX7S91Dxkc/ER8xyRj7pT+XYyycy6y4VSw/14PZwyuW3+rKu8uIWfkSEXIDhIs/Ef39ieg/toR3lJ5qSouuQqOEFrSaCtT0MX9DPSwKZN8ApZcPwV4+OncvaxK05F9g/YINHCl1o0J+mfcRXp+8yNggucWsAW6qEP6pCuGfZezLPKNh6STxzhexrJIPzAGlbxgDfcMYWNJbajCbUpennmVOV+usv6oBs3i/JA+tm7E1IBIN34FMls9aRdOl4+nlaRg1aMGuMV6BYQwIDGPAqIrvJW/HGt70cmbBuECZhakhbq3DGNA6jNIc1tQX9vDOrJ0klNb+f38kus+L9Jb5oylbhzHk6TCGlNRm6h7e+b4JL8wKq5BVK3XZ1/wUMoeRcnfGRu4E9RpKkIVHe3lYdQx6yMYlHaPAZ5OtCnvEse7sJXo3N1iWFAQHjkeZsabKBL7KtxvBJhprJ1uqaF+1EsV42r04Gl/53EF+OqfWvUDa+brjYl5fsEEEVSI5G6fw67pjpP9d9tbl4tL7nFi8koTLaqzSSxo16YfX8OuSOeTUxXSdmlv8dXgNvy5ZUCGBWHhsNod+PEdOLRCXFSF32VSWbz5HVh3tv83ZMZWls1YRk1pQ9rbmaMzrbZmzn7gZj/BxeY53zjl+eucxVn5kRUbBvPdYt2Q/V26XsZ0mlzOb57No1ntlyJ6y9reKLW+sIuZKBY5VSWi1gBatVmPFj9b0R/8PvVATABSSeWYn70z6mOVWZf3PZPWz83hzc5LlIseloC6fyiJv+9e8sSK25tzL7yEkQMpLZOH4haw4cpm8ogpMQJRxfhP+u5TH39xKsiWDlDmaHJK3fMrjT/1IdJmj/zTe+c96Ests+2/SY77lxck/El2Ba9jIDZbP+pSfzlr7YcpHzFdgEp3RDl7rYrv2U1MOmbSv8O/JM1WWHa4XUzrIXAW16RxNusdcBdVrSN55DsOTUHMzkaNLnxUCq4awUZGKWxTGv86JeFccAh/Dq0snfFRuNG6koIHcBe5vNQU3r5JxIYFrcT+QbU39qtyNXPxsIxfdR+DdvR8+7T1pImtXc0dNQfZVLiXs5crBLeTn15JAvriPOZjfn6YBQbj6eOHepCE0VOBolmSo4G81eTfOcfXoTtL+3EFROQcHptyi4OizHDrZi6Y9+9E6OIimTU33WZiv5ub1c1yN+4302I2V2VkVkEbG0kEs+t9Y2k8ZTGRIEB5NHUzcKO/cLiDr2jnOx+0net3imutqdZH4Hlsmv8cvgdMIfbwvYYH+eCgdcDSbEs2/XUDutTRSzyVy9uQWzmzbb0XeFP3x/m8EqseepmdUe1RuziZt37mdS0ZqPMf3/Ezsxg3ly9S5YypLY0fSftpEeob64O1idAW8k3Od8wn72L14Lleu61dWNg1o4ntseWId0cOeI7JvBO1VzjjLfUY1BeTn5fJXUjwxe1cTX4qroBatTiNJWtBq0VqY5pEMvyXjQFHSayutJHtd11glPlwtImYzHyxLo3NoG9q08ETl0RjsHVGYT9Pn55N38wZJJ/fy0/dxHEwt7wku5OCnSzn4lTPd+/dmyIBg2ni5o3Q0e2yp81Hn55CemkZ8YgJHt1dkX5Dw/deM27aDoZP6M7BzICo3Z9PPpM4nL/MGSQkx7PkmpkZcBesPEhJZbJj3Aevdm9J/2EAeimiNf3MXFI3MHpK3/0b9dyapKSkk/JnEL9vjSL5ecqty8qJ3Mi16D6r+UUwdEkGwyg2lvG313+RlppFwLIYf18Vy1Io2i0mMZsYTfzBg0kge7RaMyk3W7u0bpMbH8eN3W/nppP46VN8pp3XV/MNc4JPp81jbO5Kp/boS2t4TN5PjdAf17RzSky9wMnoPa8vzaL8FW05AsExYRYwGnyM2smZp1vBTwmCCQ/Ux4pIXkaGjUf72nc2tWapWwwmVZQdVJ+/kU1tP/tcBCo89ywE+oUtoMsdXLqZATFzXGIanv0AgEAj0SJK9/n8JqTSDv1SScNIF9ct+GdYUL8v1lslrknyNvO16ItAEAjRotBq02iK0miI02iK02kqZegSVpRVsWwL+skmFmI/giZ02ar/Bk3z26HACitu/xdEfJzA324aT4nYjeO+RyYQafES16ezZMImF96DIqnc0eZMfhoUXu/8m73uIf12s0R5ZjQ3cBQUCgaC+oQF07oAabSEabVHJP5rCEn7u6H6KjH8XadQUGdZr79z9Hv1AU6vRgN4F0XT+S8yFCeoPcguwJCYQap6L8O4e01URE2CSrdov/JJPj8vzDDrRuftz9LZV+zgxIGS0UWABeXFfC4FVT1EqWpa9US1BiCyBQCAwwxhjZYi7KirXj06ElSDAtIVoNEZxZtjW9H9ZvBcaWXyXRv9/ST8CQV3BkM5dL7CExqoV7F8M++XJpFxh2htQeiEV60lIWsYeee0Qt25MCelvk1IIyqYvMUVeAufmMVacusdiseoz6jzTMhvKulO+R4gsgUAgqCaMFiqzxBoamdDSi7EizR00RXrrl0YnznQiTqOPEROWLkEdRZKQJEMso1BZtYUpC03jsFy6wKJHbNX6MRb+uoN02a3KLfRJXvMoRz3RklA8yXsDjK5kaLM4uu89tos4pPpD/iUyZUGNyhad6FxzvSkX9sAbNd0JgUAguHcxE17Isxbq3BbRGixahu31DlfF41MxWBXUHXSFiCVdFk/9RIOgFnAdLjpBvyBjVrT7OsB9J2FPeRKDWKLoCGeyI+jd2g1d1KsCL1UYjmd/IbYiYXl2/Xl74EQ6yCoaZJ74lH+lnrVBZwW1hxRUzUYR3FS/2FhFcOEFdmVcqlxCmWpAiCyBQCCoNZTsDqg1vKbF+DdavWVMh05wmVu0hPAS1EZ0kwJa2aSCoHZwMRYK2kCkwU/QHoJ7wH1xthFaGTcPkElfuhoKoDZwIzggAsek8gqtIKb0mE3f+4yVztUXf2Du0R+oylrHgprgDmfUD/KIvweGs630jmKQshmFN69ztSCL2lp9Q4gsgUAgqNVISJJBWsnElSG1vL42l0FfSSYuWEJkCWob8mvSYK0tQlyrtYcT++C+f0Cwq35FQwjuBEVH4Hila5DeIflqIo6uvQhuqh8yN3Qj2DuQjHP7SLbK87klU7p9wEg/YzpE9aUdLNy/jFjhOV0vUecmonTuT7CbUVQr3ALoFPQQI0PH8njoWB53deTrC7/XYC/vRsRkCQQCQa3GNAmHMXGGIXPhneI4Lu1dmQnFiENQGzEXVCLHYG3j1emw4bxx+dxBWHbFVq0nsmLfHDZcNDh7qUk+9R3brbZkXWJDYhyZhtvbjUN8um8x0cIgWo+5xIroOaw7U0tq4VqJsGQJBAJBHUaSJDMppbNyGTfQOWaZvavqOyYQlIq+TKchJktckrWOPfuhdSdosA8eWmHr1q8Tm5pIk6ZdsT85l39dTCzXu/Pz95Hw1/2EKhNZsWOhSHRxT3Cdk2nr2Zp0Gyc8cHZwRNHQHnuDuehmYq2zZIlixAKBQFCnkYpdBCVZ7SFd9jY7JOyQJDvhRiiodWhlpQ4MSV7kcYYCgUBQl2lQ9iYCgUAgqL0YE2Bo9b90YssOO8keJEOwlr3eoiUElqA2YZwk0GrFvK9AIKg/CJElEAgE9QydlNKi1RaBPoebpNHorVpGa5dI/S6oUSTdHIBWXIcCgaAeIkSWQCAQ1Du0urAsSfe/pNWglfRug+h+MAgugaCGkJDQSpLuetRq9WJLIBAI6gdCZAkEAkG9RC+0KNINXrUa7OzsMeZ6N8/pJga4gurHYFHVSpLwFBQIBPUKIbIEAoGg3qN3IDQUfdUCdlo0YHQhBITQElQ/wlVQIBDUT8olss6cOVP8d48ePUhPT7d5hwQCgUBQFcgtW1rsNFrZ+Fa4DgpqAl1QloSEpNXFCQpjlkAgqC8IS5ZAIBDcMxiElgYNYGewIEi6X0aZJQSXoHrQxWUBkiSKyggEgnqFEFkCgUBwz6EFtGi0RdihRa+4MFq0hMgSVBeSuNoEAkG9RIgsgUAguAfRxWdJ+rgssDP8IdmJQa+gmpGE1BIIBPUOIbIEAoHgnkULaNAW1yrSr5IMQ15h1RJUJebXlrjWBAJB/UGILIFAILiH0WpBkiy5DoIY+AqqB3mBbBDBWQKBoK4jRJZAIBDc02jR6rJhGPVV8R/21kss746snRSOEwBZxK5az/wrtu6rDejYh82D/HR/Zx/jw09PcKBme2QVE8ZOYZivfiFlF8PWptRof0rEBsdWkqTi67FqacrcZ0YR1kS3dH7bCl44UQ27reVMGDOFofrr7Nbx7xm3I9sm7Ub1H8XznZrqFm4e4yObfe/q2nn05YNX+6L/ltSB/goqgxBZAoFAINCjLY7VQp9SGxNrlrBqCaoIQ4ZBraT7TwvCmmUFHfuy6SG9KrKpeKktmIooWwo/i3h35JuJhgmjbGJXf8/bVk8YyUVUed8rqG8IkSUQCAQCAJ0FQdKlebfTSvo4LUm4DZaILx/ONc5IV4xabPGrZiTDP0kSAksgENQL7Gq6AwKBQCCoLehcB7XaIv2PRrdODHgF1YEkIemHJULSCwSCuo6wZAkEAkG9xNTNplxIYCfZI+l/7CR7/o7dyLgdN23eSwNR/R/l3+GuNmrtPJvf3s1XNmqtrlOnjq13R9ZODKOxtsgGsVnCXUsgENQcQmQJBAKBwBQteutVkX6xOEhGUEwK/357RfnfZpIgRGCkKmxXOWRlVkGztQifRvY13QXTpBbW0CSc518N5/nStqmX8WWCew0hsgQCgaAyOE0gctEE3A68xk/f1qchgSHroIRW0pB7+zbGOBnhzGVzhPjCtC6bROXjsoq4dbuSTdRywpp5GBccnWlec10R1AOcJm3hsfsT+X7eS+Tcqune1H2EyBLUT/p8xayXIyjbQeYcm/oO4ng1dKlW0Wc8m14OQ1nmhils6Psxy6uhS3USpwlEfjiDLs0dYNS79L/9Mjs2WSm0mrTn82e64Slfl7SdR75PLV6cMm4KA1vJN0jhxwW7rHTVyubtTytgaSmmBQtfeph2Cp3Yyrt5Cy12SNWRabAOpVavc9TiYysB/HWScQtiZTGB5USebS83mzRbdrDW0ZQOrRyNiwov2nkDwj2yHuLNwhcfpq1CtirrGO9+doIY/WKfAY8xPcxZtkH53GWdJm1h4mA/HPBj/HxYI4RWpREiSyAQCCpEFPfP1wssAFxo060P+zYdoMCat9/8G/Pn162bOSbLavMxZnUOGps0pWlDLTprQiaZ6Rq0Wl1Kd0lYsgS2RgK0cktWxYhqLptay8nldKVaq+W0akc7k5jLprTr2AyuXK/WbhzY8T0HdlTrLiuOXIRbRVPCJk5hUxlbVX29q7/JywfkIis7u1hgAai1RWbvyeJaurXtP0bHf/hheJo5+A5i/PzbrP73a3c9pwTWI0SWQCAQlJsogt59l/6+DsVrClI2snrWa9YJLGspNFvWFKK2Zful4e2OGwBatEXXuXRFo6tjhL3wFqwKrpxg7NuWR2kmxYjrJfr07UhIWqnCjoLtPIyxQbfS0+uxJcueCd3a3uVe6hQczNhfDrC2AkZAQd1GfcdcZJUwUWeRb4l+zwenORO4X/8VcvAdwWOvnufLBSKFUEURIktQP9k9gUW7S36p0+enecS/ertT69i9hkd2rynxpamfL2bkvX58ysBp0ov8M9DFuCI7hh/mlXfGL4usXEDm3ZF321Sinb+ZDZQjoNyG9GnVgoaGhet/cVyr0Q2AJVH5Q2B7DBFYxQatCqksb/zuMy5dvVzFRWtrEJ8OPXioeJKngDsFDjR0ABTtGNjvDzZvz65xC4RTo6Y82uN+wnx98WziSMPiEWcRd/JzyUxL4vffT/N9cj7190zZimyuZQMyy+WdAtPnRUxWDuBe8V2cfZ8d7zjj8vYIVPqbf5NOM3h00nnWr6qNDsa1HyGyBAKBoDz0Xsljg41uFdw5z453JnOlIiMas1nGWzn5pW+fmV1NsTSOhLU2qr+8i2mc0mqQJDu0Wq2+OPG9ji2KEQtMkTBNflFOWqnwKXanSuV8km16VetQ+vJ8/wDjJEjGcT7c5cwzYx7ACXAK68fzp77n7cs11D87F6aMHMDANpYmiOxp6NgUzzbhDGwTzsC8VGI27+Ldi3dbYmzOiV08UqVufVWHuVVKnfd36W+4eZ3z5d3J2ddY/3kLnnw2Qq/nHFANfovIUz2JPlbexgRiSlIgEAisxWkCvR+PkE0mFvDn10/z59mq2V3WbZs6H1pPsza000+Iasnh/OksXUp3rUZfmtgQqyXSugtsiIm+Kr/QGni/r9F9LuMSB+pjZkGlJ2+N74ufYZZHe4PYrfHEpMSw+bThftGUsMcGMN3DUiNViKIZc58eXYrAKgGliohx4/igo0PZ2wosc7uAO7ZoZ89kfjoijw/2oMuTyypjI7tnEZYsgUAgsJLmz06lo2zscOvUV+zYUtHp4mzSMpEVC84l65rpFqdyTGcqzd1DqoqosHZGJ8XcFH67oKubpZW0SFqNTmxJdiIBhsCGSPrfFb2mmtE1wGh9vXrmPKds0KvahFMTFfOeGEBbmYtxduyvfKS/BW3Y9CPtnh5FmCvgoKLPEwPgv9tZmlFdPXRg+pjhuv0buJlC7JE/2H3mOqdyinQujAoHOnh6M7R7OGGtm+pPvQN+Dw1l7rXSLXBOnUaxqVPV9F7n3vggEW1b4Kl01PeriDv52Vw9k8T+4/FsuFoN1jYLnL+RDb7GB1DWdTMny5u5qMFo4VSryargvq4tXMSR5W/RxVAToHkU/f4VxbefCbfB8iBElkAgEFhD4GL+2UUWh3UnkV/fXWLDHRSVaRgq0z3EFth50qed8UGe/Uccv+g7ptXqhJZWq0VCqx+ECKEFWcSuWs98kTq7UuhCsaQKCS2n9sG0M9Sk0Kby+5EyXG/rGG3bdOT5oeF4yow9d1J2sXCHLPZKk83ba3bxwdN6S5eDij5PjcBz/c+8llT1EzRO7bvQo4VhqYCrv21l9t7rd8dbqQs4dSmFU+tScGoSwFuTe+PnCNCUsEHtCVsRT2yV91aOA0P792VsmDcN77r07Gno6I5PqDtjQ8MZlnKIFRtOc6DaMhBZpsykFnl/V2KiYSPRX/Yh4JWoYguWd88XuX/rAf68WOFG7zmEyBIIBIIyaUGbyd3xlq25sm8JSZWMLM8rKABKcZG5phtAVWeBWp9OHekgG6wePiwfrOpcBLXoRZYQWLajYx82DxIRXhXDkWe6tyuewb9zNoG19cVVUOHClGF3xzfdSdrFvO9TOGO+fV4Kr/33AAufiMLHAZDc6TBqHN/E7+Ldn1I5VYVZBwe28zWeg9O7eGHv9TKTb9y6mcwLaxqzemqEznruEUBUk3hib1ZdP02wa8rzE4YSdZ81ror2OPlG8fzTzWm56gBr86q8dyaU6T6enksWNnxeHHubPae28GgH/bFp6EfEuAn8KbINWo0QWeY0G0nghJF0D/HnPjdnHOU1CdQF5N/O5a+keGIOrOPMtv13ZVguq91e4UF4NHXAURYNl387nDFvVQAAIABJREFUl4z434neu5r4HTGW25BhkiHv3AZefXqufiEY76deok9Ue1TNnY37Uedy5UI8Rza+x/E9Cdb22ogyAtVjTxMR0Z7A5gocG5nekO7cLqAQNRmpl7iSsp/oRYvLZ6a28fGpdmT9v6+pAw0N/dcUkHstjTNxO9n31WKyqrd8SS2hAar+UUwdEkGwyg1lo4bGl9R/k5eZRsKxGH5cF8vRihwfpQsDHhvG0Kg2qJq7oChPpGlOLO+MWMOesrZrNZNOgbJr/tZJDtnAbeJaXj5GkZVFmrklRGt6h8nLya30PkvFzpMpXVXFi7dOnbhrsKqzYukyDSJphcwS2BDdNVVefDpGElYcMJLNH7+l1nhmvUpj58jAruGM7dEOJ5MvWRHZJ39m4dardwssPbcyTjP7i0KZhcgep/YDeCs4m/P79/DV4etVILZc8C82s+Vz+vcr1p+D60n8kRFBlAdAUzy9AQsi69bx7xm3Q24ba8rcZ0bJ3K7LgwMTRpsJrJunOfBrAttSrnPmNmBnT9sWKh7tHk6YwVXPuR0jx+dy9fMT7K7GVPmm7uPZZF0120BTZFLi405uZT0fLpP6zUGuvNuneIKxScjDBDl9RWKlv2A+DH7jE14bHoyLA5CTRsz3b/HE+/sr23CtQogsA8rBtH95Jo9E+OBoaRuFA44KB/zCeuAX9iAx6nC2WEgTXp52HRs5owrrwZiwHuSPiWHTR3OJP1mB6h6h8xg1bywhLiW8pnDGOzCCR+Z8S5eIxSz9zyorG/XBY/pynhjij2spg9eGjRxoiAOqwGBUgQ78tWgxx61pvjqPT5UQjPes9xnf1x/nko6PnQPOXv508ppGp77jOLP1Y9YtWWu9OK/juPUexILp/Qgo6ZoEUDRG6RVI58GBdB40jOSta3h1SRKZVrYfPGo8cx4Pw6uRrXpcMu6jOptYsW7E/UCqDdots4jnlROMW1B9qbCiekaaWrH2Xi1hoCSzZNV1Y1bTcP49N5x/l/iicAGsFBU+tuW8oOw8mRIls6CkHOOrCpwzv4emsOkhCy/ePMZHn56opsyeAPaMHTmKkW3MrCvaXM5s2cz8U/nWWYhW5PLWuIfp4G6vWyk1xa/ncN7qlMDaZdFsqAUubzWJT8coWRp8yP7jRxZuMROvmiLOXErh7XUpdOgQxcuD9aLXNZwJfVPYvaMak8+XmRkxhRcWrLDtPs++x8mzffAO1C83DCJ0XBcSlx+pVLMR81ewYJS/0Y/DxYeIJxfx34xwnqhHhjIhsgCC5jHmP2Npryx703LRbBqDP5lJRDPr3+LoHcGYd78j+sPR/LLDeiHhPOo7pj4VimuZWzrg3Wsm4zMSWPNFWVYhH1TzNzE1wrmM7SpINR6fqqEHnZYu4ZFAKzMi2TnTdvA8ZgX4sXTGfKrYJlHDNKDj9Gd4e5ivSYH6UrFzIWDwM3zddisvTt9JWfbW4GnP8f7wcrRfYabSKUSepusyf36/scr3Wu14d2RihDF/VHZMDEvvcofRglbvMiisWLblxG6GlTKAqv/FiHWUN8xv6KDesomBqxzemVIPChAXsXbDj/gaklgAd/46xvcbT7ChPG50eVd5bcU6Rg58iLGhhnShN4jdUBUCK4dzVwuIcHUAHGn3oDdOKVZas5q14YHiW2w2V6tlYqOZqTi/uOdugWXGqVMHmK9szMLeOmu/U1gEU/ZvZ0V9cU0tkcsk7j1Jj8DQYjdE7wcn4MIRckp9X2kMZlJv/xIc5V2IGPYyfPVuhVuubQiRFfQ2kxeNxM98pJaTxvHYGOKjj5Chv0s4B/XgPpUP9wf507L5XS2ZopzE4KUziXAzXZ11IYbj+48Ql5gGuODxYBShURGEeMkuN7tmRM5YTkbqII4nWvEZPPsz/SlnY01TTS7nj+7n4K79ZNzywbt/X/p0C6Z58Wd0oO1Dz+H3xejSayiMW8J4M4GVm36O+LgTnDlqPC54hhLo2wSXlkH4+fpwnzWZW6vz+FQJPrRfYiawbl8nbv969n6/kYzUNFBG4BzVl4hBQ+gZaDyOzkFjmfrGZRa9Ya01se4RPK0EgXX7BomHozkQfZZztwDP1vTu2onOnX1xk1kBFYGDeH1+GpPnJWDR5b3PY7xuJrDUV+L46X8/sn7bDTJpgOr+9gydPJQB97ubbpe4nv+bEW25bXN6dqal3Mk9JYbj9S3w164pc4eF09QwuL15grX77p6h1RZbrjRIWrsKuXbd89jZ09ZFgcLZla4qT/xaq2jpepXvP43hx5ruW40ir0Bsncpq27EvYx8w3luzY/bzUX1xyTYksRj/AHeO7WXhsZyKFezV5LNh60Z2Hw9g3ohwOPxzldXP+uV0CqPa6WLjGrbrywe9LCS+kOHUJIC3xkcYs5lmJHOgOuKxWgXgVzyxfoPY7cmlCiwDZw7HEBum0rknSio6PGAPRy1lHGxK2MQpbLJJh2uQ7QdIGRfK/YbnYPMgHgiF6JMVbdADB0uzow6W3F7qJve4yOpB5GxzgZXLmc0fs2bp2ru2zordQipwBEAZXOrB8541zVRAqNPY9cEM9pnFQ2XFruXsF/DD4OVMfboH3oa+KPx5eObbxD89lzJzJCllAivzJOvemWXiTpcVu4z4oEVMXvSw8bMqgwgZDOe3WGo0gshewTIXvgLO/zCDlctK8pfdQnkNx9V6fKqCcUt4JEgmsDJjWDl9AuflD/i8GHK3xbBr23xizCyNrt3GENl6FdEXqrPT1UTr3jz7sKkAyoz7loVvxHDCRNmkcWJbNCg9mfif5xgT1Lj4FbeIx5jTZx6vluiO68Kzj0Ugv3wyj61i2itxMjfDQlL/jOOT5+P41czipQjqzbNh0bxjZfoqlwf9kbv7X0neat0b6wy6uITitMvaG8RuOlZKrIEWrRa09UFgZR/jQ5u4gbkSNmkKm+Wrbv9dnP1L0ahxGVUpb+Fpx13Fqes0FTq2RqEl6VOrWMKpRUdmDzRaIsg6xuo9FXfdOr9tBS/UtiK1eSm88FmKTZrKvprMC58l26QtS9yKP8Lujr4MbOUAOOD5j+Gsbm9tCneAbGK3Vk9mwQ6tPWU11U6zzWpxns2BpGzCOulkoWdLTzha332Kl5N4fir3GxJg4MF9nVrAyYqq9Z2cu/wyESXoqYKsum+HlnNvFyN+YiZ95IEW5BKz5IkSBdZd5CVQaGkqvPUiBneTW4By/5+9O4+LslwfP/4RWRVRWYSUJgHFA2pouIxHBOMomruJnlzKpVPoqdRTmpXZom2mp9Tya9pxT+0o5pYrRmn0c1wISYVQAc+EBiougAug+PtDlueBAQYY9uv9evmqmXnmnpuHYea57uW60C2ZUCSAULq3K4SlS3SqZBEWHr3x05belXzXdCx//hnD+5ViZ/DjKWVmGis0HQeX0Jg/GhfFzbQowgwGWOVQXefHZILpO1ARgGYlsfO9QgFWIembn2GjTrlA0BXfZ4MrsY/VZ8jkvrRRRFhZ8bt5f0bhAEshI4XVUxey84KyjKIdnYb4YXAFb+sn6aZR3M6IZstH0cXu44pZ9iWhscq2HWijNXZ8qRUejymXCqZxKbpia9Frmj79BjFUuS9B90MJI90PVP8eSDHi4lk3wrLRw3+lf9M6PtzsL8i/4s5fN2hgVsvWjbmjFTOvmYnsWFeVe6bqrjUbVzD8w4f/xpV5v1EmKzbvJlL5Rd3UDd+gocx65Xm+mf0i22a/yLaZ45n7XN+HiSQaFDw3Yd+u/Jpflc3ZpmBQL/vPq2VKdX74UsGXvYVNoyrN/lpd9BfUv5iWbcdUoLUk5i4JJb5wssTrOha9uawC7dY89TjICqZvf28Uec64rlvGrl3lyLxXSPMxWpTXgOnR37DLmP1D+98mTLX8zRHvvkZeiGfFs+29CehLWAOVcDpeVQ3cxrakcvB26syK1nY0N9GetWo5P6Y0OBhfxT6y9FNbOWrEssVLK4+okiW08OxrxB662saPPh0bKW6nEL649P1VkMoXKyNVgZKlhw8jDb3nfB1Us1hZ8dGElrj27x6rT6nfX/Yuxm5u6Utz5S8p+yKXfjHyqbVAn4BBvNilYB9WdmIYn5QyG/DgwcMMgxJfldU9sm7fzv13nZTE8yREHWHPru18smQLn9WtAdwKehhcNTC0atDWmbnP5daBAiCThB8Os6aK02mLYmRd5YOv1hN6pgwB2p1LRG7+ltciS0/oYSqu9gUDvVlZZawhlnq9oJ/NmuBb7IE3iFxdELQ+/BdW8jaNmirusirho3kzdyq0sC98NgPGzGXD4Sjiz8Wg27GMGX8fz6o6thS//i4X9O2LtzLhQlYMYfNNsUdGS/t2yoavEhm62MjnJhF96CSDvTrlz5K0aOOPDaGlLIlLR7ckpPT9SclpZED+hX0T+5JqshxFnxyMe95slqU3T300B/1b87heoS+z6jg/puUe4FWwPJN0zhw0cuTlwkkupQWhyftkcnFFA+WuyF4jjfDEQzmLFXuY5cbum9Pt5tglLf3zRvQtXfHuBxTOMdHCTr3H6o4R228Tr5GBm+GZsRK546CcdL110+jMhzVdn4BBvOjXUrXcasW3BuruFJG3MSs3CUZdWDZYLom8+oGJM3mJQpT7tMgNsIbSMX/gI5OEPd/yWlTlF9qtWdz49+y+VHZVtaLp0o2Uc4cN2zezfV8zRgZ0wNfNDeemNljkX3HeJ/tOOteS9Zw6Fs2G83fKt9+sApKupYPbww93S0sjk1flcWheMHt1I72KCydXk18ucnMGBUvn7exoBhVIfgGc3sDcF4xYOVaL1d8gS+uBKnfFHzFEm2QkbBDuymUfd5OIL0tpp63n+XNyp4IPT/sWPAKljHxc5k+TZ9rbhe7XafQe4Jp/TxOvsczY1E+d3KHMquP8mNJgRS0QgMv8WVoa/3yr+PPK6xQM/7SgpT9E16E1Ln4dC+3FSvzN+AQTpBGlT6N/y7wT1AgXjR1FPsbTs8mCgj1WNqWPp9m2cy5HgAX0bKXaj8X1i6SWp50axYqhgwcx4fGCGSyuH2dpmWq+KBcK1vY87qI2aOz0Fz551h/X/HXa97lxZAfv1LsAq/a4dfcGa/ZHsIaICrRygw++NP1gRsqd25A7XGrxiCMdSTF6yaB/y4KB4uw7t2t/TTajJJCaDpq8QUdru4rNZNUT9TbIaumirlx3WW+ifRa+TuolYMlJZQwAEricBu55717rJthTlUFEgfTP57Gt3RKGeyiCCmtHfPpNwaffFLKvJREdfYjI0K3ozxq5zLLWnx93bFXZEz0YHvY7w8vZmnnl5x+vUhp7ZbWzNPQxZRvnCr+UypuKj25be2eKBFmxKVzDk/xJVg8fgm0jS1gyaMfYjs6K29n8EXfOuA5ZlH5IrWLpyKxxA9Eqi29ej2LFf8pTVPNB/q6sBvn7tERlWbNhBXWofEyZdGyn5dURjxfswSKTlIgdvHboRj25wBXFK18QdupCCrf8cpNfOP2FAY5nOGVU8gsbergVXARcu1S4IrAQBeptkNW8qTo1ecb1YtPslbFhK/V12f3aXEDhECcmTyVt3hxGGSgWbGHvSpcnx9LlybFkZ1wl5sdV7Fq1ijslTV3U+vPjhH0lF76tzZpYFopKistsWxGRBzim78WQvI19tj6MfMuH8LcMJ7/wnjKJIR6KfmUlErXdwIF1XLPHHueTEVqcFX/I2X/+woo1Z8oRYClVz0xWM1sbHlV9gzXiL22b0RywtHfBvWkTmrs6Q/R3TPyhqqvSNWPOy6Pwzb0WS9i9glfLkLlOWRPr1vHNjK3KgqdU/7nNfzc1sGHkgKcY09m+IIZ/cIeE/aG8U4X7d2qeSig6m2vCmBcZWiX12Bri7uyIv7cbHZ2aYe/qRGMzSyysGhY99EEm2XdzyEpLJuXPFOISLnEw/ioJFan19b/zJGQ8nltjzQHf/m1o903padzb9Qggv5zgAz2/RlXGl5yoK+ptkGVTx2YQKs8hzs45xAedptF7/Ei03o40MZAuxcLWEZ/Br+PTdwy69fPYtdlEmQiFKCKN1Zsj8Zvhm58Aw77rJNavNa5OVvIvO1hdnzbJW9rx4rD+PNVWXcDu1u/7mL9Nz6mKpg2vjBirWVdefbsrr5qgqVvmBi7a6rNacm4fb/cEUwZ0xtlGkcUy8xK6LXuZ/z+5sK2tGjd1ZMKTPenh7UxjYz83GlhhYQMWNm64O7vh3gme4j7ZqXoiD0WwPLY8e7qusuJwIp8NeFgGwOKxQN4YnF5iQeKOHf2Z9WRB2q5bp6LYUNvGiUWVqrdB1rWMTFDWmzZzhcqoE9+wjkx7nFzMTycX8xPeNBkwAq1/AD6dXWleOOCydkX7whKaNw1h3ddGbLaqhecnW3Urnm19B3KimvpS41XSNVjGLyc4/6Iv3RSLwi1b+hD8Lx+C/1X887LO7ubjj+pJGjdLG4J7+jGsh5v6YuZBOgn7d/NOZJoJZgJq/hLBxk2bQJVvq7fEwkQDeRaWNXdEsDLObTNnN6Y/1Z32Lhbk5Nwn/z2W+htrvtGxoz4NkNQpVgzt15exvi2xMMmgTEMsHNzQPu2GNvU3NmzSEVrGIsZJUYfZ49Uyv4RFs8eH8sljiUT+HMWWuKvE3eVh8fBWGkb26vow5Xye68dZszulHs+mCmPU2yArPSMLZZDl1CoIMEF2wYNJXJ9VkMEPe0c0oErdXSJbb1oodxNeu0LNymgZQ/qeGML2zCMMV2z6TaZPcD+0rZXLL61oN2A67l8/U3SvVK0/PwlcT0ORvMKKhrZQhuwOddq5K2ngkXdy7HBpYw777xn9/P6POqhuJ+sN7Z0yp/9bo1UBVuluk3z4W6bNK76elkHHU7mJIqNS81Y4QI1PfuHs5ce/h3sXHSm+GUPo+gg2lPFipFgPgAYPeECD6kt9oSj6C7e5nHSDrFtX+P1yKgnnrvJ7WkXWFJWTdXOcFZUMmts3AYxdVtcEZ8W1nGXTJjTmcvVczFXpubXkxXGjeeoxS3IeZJOTc+9hbsGcO6RE7ufz/cXPMIiazooJY55R1eMD4N4NkuLO8fvFFOLOXiflQRYJeQWLlSyt6GhjRmMnJx5/tCUd27XD1UHRlsPjjH2hGc5r97H0Sln6lcmab3fQfMJQ/PP2qTZ1w3eQG76DSnha+u+ErivPPtbazAlb5Zh4+uU6k2m3MtXbIOvKxcugSMTdxK07TqyiTH+fBhVKzGDXhna+oDc2x+cwdx5V3MxOiTFBnypLEnf2v82u/W+zd/Aapk/VFgRPtl74jICEwum3a/35WYU++XVFpXJXPIbB0W+qrgeu3YPo7GJFWvwuDp2uutc1xrFkVQSKSzstGJ1ZypXOjyojp1T0vxo4rM8YQroWHJe8/3M23PRnqH9bNPZ25A/852STdSOFmOgj7F0RQbhRm5oLuXWFzGwKEmA0a0ELan6QlRJ7hA2POfOib27Q+uAOKZEHKvFCteIzWof3b+HwfhN0pSZwc1Yl+GmuaYkrccatlTBzxFmZl6mFE32IZ0cFulM7zm0WK7Yfpt2LfWhtnRuy3/ydvVsiWJ6cXfJT652qSeFuKr4B/dUB1p1LRO7+gc/jjNxXl5XJqSzgph7deT38qKOxdTPGDgkqWAZtpaHPyM6c+r8yFqXOucHnq74lwahZtvvcSvyFFaG/c7gaxm6q1WOuNFZuub6VUeO/B2uC+luMOCxWPXviqMVvhGtxR5fBKhJUhbEd8Rk2ycjnaunipy6QfDZyown6VPnu7ZrAd9HKVLpW2LcwdGTtPz/6i+qrdc9uc6rmhR8by8Lvj/PDui9Y+OlCVmz9jR/WzSKgal7dKBm6RJIVty09uhDS2sgn9wmkm4vi9tVz/GAg+A7u71WQjv1uNDsWXmDf1+uY8uwcBg6cRt++uf/6zWDg3xcw86NyBlgAHOaS6pvEkUd6l7etqnSfvfu+Z81vqdz68zgblq5nsqkDrJq/UrDajO2gLmVAq/aMdSzuaLXG3o/iqvxmbtQaX2P/hmq7jEReWxFGQsZ1EvZ/y8QvD7MiRfZf1W6ODO2kyO56M4oVX37PB8YGWMW4dfcGKzZvZv7/U2T3a/44A9qXp7VMduz/nomfbWbHifOkpN9RfL7dJ/tOKkkndWz4zxrGbayHARZA91aqskeZV+KpaPGEgJkr2KP7jd+ijvPL1i+YEljBBmug+htkXQjljCrKsqLLqA/QlKuYjtqZIzGq4rjNtWPw8yr9eU2mzKG/h+KOjJPo1tae/SP3stSfPNnFrBKr7efn+v4zXFbctvAK5vkplR3quDJr8SwGt1XO9Fjh2n0SHy0LruTXLoNIHTGqKMuN/i/7ll6jytabD19QH6c/sptjRQ5sS/tHFeuwsu5V8pKFo+iTlCnk7XD27l6pr2g6mezYtZVxq6LKvFdBVIC1Bz3a5o7a5y8ncsQ38FFKH8ZryFjfv6gDNOzw6NiioPhpXZeRyGuLNvPaibS6Vai9vnJ6lEcVH+wpkb+y14RBiu5HHafyLyiscHd3LunwEj2s6xXO5CXrGf7RCoZ/uILhH65k1GdbeWX3b4TW44C/RdtWqqVvKReKLFMqE9d/rGXhPwLwaG6FVSM7HDsEMX3RHj6sY4FWvV0uCDoiNunQzlIscbPXErL+Oza/P5Xok6VdvLuCbZLhvTibNnJ0wAf0dik49qlPd5M9J4SjBtt1pfnohTz/tIcqTXrCgUXVUh8LAK9gnG7pjC843GkhfX2U+7Ku8qehpV5Q+89P5DwOxmoZ45W3/MEK96cX8pzFIjYu2YBRO5AcvTG/GmPcsQCPTSHAy3BVescug5lEqCl2FJpAEl/sP4vfeM/8C0Vbn+dYOe8eU+YUsx/KsS2vzZ9EN3vFfWmRbFhiRI0tu7b8rZ854WXY91VWl39LILNLp/wdnC07jsGKoxUexRN109C+XfNnoq4f2UtC+6fwbQaWnoG82nkTr0YVf4XZ2L0rAXnroa/qSbLV4GoNjTs+wcQf9/Gl7P0UBiTsWcFrZSgRUKUslOUGb5Bk8syQV0m6Ch1z/24smjQq+XBRDiPwdFMO8F4k8YeLxR5tjLGDtEWLGVt5MPilWcwOn1+htmuSehxkAQffZnPANkK0iuDA1ptRCw7yVHIMkboo4nQn87crN/EK4BGNK+08PHB3hcgFXdl10FDDoYR9MwifGYoAztqDIQsO0uuCjhOHjhIdmwTY4fSEP50Ctfg4qi+g78SHsnmZEdn5KkvviUx/+gPIyuRychL6+Fgu3bzJn4rzAa601Hrh7v0EPp6OqgDoTuxOwordZ1XZ58cVmw6dsTYck2CrKuVkha3vYHWB5Fz3rkSRbjDITOLMsl0kLAzGPX/IuQntBs/h/SenEHf6V2JOHiX+Ql6QYIfTE51p3tSRx9xceUTjSgvrMmYlfNIVp+Ies3PCo7jHDDJH08EFB6POjwW2vq50NnBc5pVkYvRFg5uMb75lp9+bBCtqU9lrJ/HfbSnEHtdxOOIs8bcA59YE9uiCXzc3bFVz6mkcW7GRcIO9O0dU4m387PO+SO3oNuMT/jvqHOdjk0hWTpFyk3O6CzxcTHKH/0Wmlm/Wa9dJ9M92om3ej+PiRcfH4ETNykgjaoDGrl0Y5ZN76XD3d/Yc+oM9//uNFWMepzFWuD81iDnXdzDvgoELTbNmvPrU47kzVpkkHA1jg90g5vRyBjMN/gMeZfvmPyojB64QlSdbmZG3Ga6PNYRLpgy0HHFVLMXNTr9twrYFAF370EaZk+riSU5V0veflXtnpgOLKqf5Kle/gyyS0M+ZwdqFCxnvoy5O3MTFm97DvOk9bGwxzy0lU9T+CSx3+Y6XxnmjbLl5ay19W2vpW8JT71w4wPIZbxudi6pSWVrRQuNBC03uZXyx50Phqo51b31a8jGVen6C6PO+MjlFSVzp+8kCg693XfcpC+cUMz8U+zYrlzjx0tQAWirX9tg60k4bRDttkDEvbrw1MSS9rsXbUEr0tCvEl6kxN0Lef9nI7Hyu9P9kJv0NPJKh+5Lhcwxl/0tl+YxV2C+bRKCLImKzdcbryaF4PVnCy+WkcnLlUmaXMDO1c+2PPNVxIG3yz7sF9hpvumm8ix48TH0zKy2F+CO7Wf1VNFFGzwos4GTMaNr65EWlregwagQnFlRsuYSoY2zdmPfME/lBUtKPOrbkAAk6Vh9vyctdHcHMEd8xo/ny0A7e/iVdlfy8T99AfPNGe64cZ0PUfSLNDhHZYRS+zY2bCROixrnyB39kdKVZ7pJBZ98neCryuMmWDGqf1NIxf4Q3k4SElJIOF+WgGdgdZYyl/3VxhVdybDgaw1gvb4qM9TayK35AuRaqv3uy8h3i7IzhLFyl45KJi8qlr32aT97/njgjVj0BkJNO3K55fPLCVK7UxmUhOZnodatY+MIE9Eb0v9afn/0hLJ2xCp2+HB83OYXrbZVmPrt0hk5UJvH7ltWQpYIKGTF8/OzHLNelYOx3adalSFbP+oiZm0vJWRR7gJkfH0Bfji9pSztnvPpN4tNNM3nNz/gxJv3uo6pMSg5dR9O23mySEaUya8ac8X1xz01xnJV4mC8iC96gB/fvYHlkbvYVs0a4PjmaNdP786/cTVodffvwYtfc4ficFA5tjSESIOcGn+04zvUcIG8mzBT5mYSoMlfZcVIR+DTtzIsvD+LtdjYV2mfY2LoZL44axay/KvZgXf+NPWcq0Kgo6rG5dPdWhELZsZz8b8WWCgIkffwKi44ae/FXe9Xzmaw8SVzfNIGlm7xpPmISfoFa2muaYG1tpcpkl303k7s3kki4EM+ZiI2cMbhUsJCIGayLWPSwntSQ3rTXNKGJch1bVibp15I4c/wAERsXc73cWdBMbMunLE8fTLsOXmhateCRZpZgaYVNobA8+24m1y/Hk6AL46dty0gva/9r6/nJE/spu57/lL2eU+j0bF98PT1wsrXkCCpAAAAgAElEQVTCplD90Dt3M0m//HDZ5dmTu4jbc8j4/Vi5Vk0aT+anC5k+yAO7hsDtJHSbFzH742pcVlqiVELnfESooyvBE4J4qmtbXJo1wjL/PZRN1t00ks/E8MOPB9i5P824cmO2rQmZ+CQa5TnOUtbzUbBUvp6CtSv93wzhz78vZaMxL3p8DScS/ennlnvbwoueISM495nMZtV7lg7MeWFEwSzU3fPs2ZpYKJPjffbu/Y7s2wN5sVcrLMkk6egvrEgCbY/+vPo3Te4exkwS9u7lc8Xn3K2kKD7Z68C8ge5Ymjni+9zTzNlYzJJDIWqgyEP72OE8iqFtc6ecbFriG/ws35SjTpavh4a/uHmo62QBZOo5uKWM6dtFqVqM64tGcSGcqtvEOZMU7Uti1ZwNBG2fQuc6vI2uAWVIxBsXV/C1ERAQQHJycglHCyGEqTkQ8pV6v1dG7A7mvhVewvI/czQd2vPUuIEM8XVWZW5L/nEBz35k5C6X3iv5xzRtQWHi7IuEvx1E1Nmy/xR1gVkDc8zMHv6jQQMatPRlw6RuuaPT14lctYV5l6q5k4Z07sP2gbkVhm4c57Mvy39h1sy5HR+MDcA17yLhrp6D6/bx5eUSntPamxC7RL48bc7Y4IEM8CxYt3v9+GZe3n/DYGrrPv2efrjkECDnNimR4XwZdolTNakgqknO7QNycrLJeXCPnJz7wAMePKiMH7IZb788Ct/cP+ganTyiiCqsk5UYxvCNiSZoyIqhRtWiKofU39iwSVdDsqgqfzc3iFy9mQ8uFfd4DX/feS5m9Pw+tMy7nR3LzonBJgqyHvpwbxzByjfy1UPM6Pkiu0z3EtVKlgsKIWqPwUPprwiwSP6Zj6eWFGAB3EN/Oprlb3zK6mj1pmgXQ/u4ivPTOxw4pVgaatGKni/OLbqmXNR9ljaM7DeQFS8oAqycqxz5tuQAC+DGhTiONPDhs+mj1QFW5Fb+VUyABXBw//dsic1dXmPWCOeug5g3fSifdLYp5hlC1CS5taiWfsfBMyncqnCdvftkpyaiC13PuK9qSoBVl/jT+SVFgAXo9y0waYAFWuwKfYFejTlQZwIskOWCQohaJDigraqWVvKvBwzU0irOPULjUwjxcSv9UIMuop+/iXOrJ+RnGrTyGMSQSQfZskoWqdQvjXBv5VgwK3o7gYPfHCw1wHroPin3LbG1zrudScov3zPrx1RVIoyistiw9TsyBg5iYufcGS2zTJIu3inxWULUJLduXmXp9h0s3d4Qd2dH/L3d6PiIM84udliaWWJhZSC704NMsu/mkJWWTMqfKcQlXOJg/FUSJAdMpWn8j7fx1xTcvqffzZ5VR034Cq6MXfwhAa0Ud2XGsPODUBO+RvWTIEsIUWs42KoXb2dllS1d75DH1IUqM66UcRnMrQXsXN+JyZM65S6Ls0Iz+G26RARxop4uG6yXslKZv2oTQwcPYpTTOb755lSZsqXFnT7MSxnpfD6sJQl7wph31uj0MOzY/R0Jf/TkjUAbDq05yIqSIzNRJyXy2ocrqrsTFXSfhJQUElLqWjbAOvC7CVzJ6IGK4sPZCfyw9PViZ9nLwrV7EIP7BhP0lBZvVWmeNHRLXmF+HSuNInuyhBC1RvDCjwnxUQRayT/z/pRQIoxIXuE9ahLvvuBDQc3jVCLmzOX9MucNaUXL2aGM7qLIgX9Dx6aXn+eSSZdS1GxF9mRhxsOvFCEqoqr2ZAkhivCcy8gPRiiSXWSSuG0K362r4CzWR3uIG1FcRc80YtbPYPgHhyr2GjWQ7MkSQtQaoYfOqTMQuvTi3U3vsOStQIL9XWnjqHzQHE0HV/qPC2bJ+o9ZrAqwICs2nH+XKzHjRS59OIv9iYr9Wc20jF68kpaS1l0IIURt1HgCgW+OUGUTvHliScUDrBJkXtSx6rXhdTLAApnJEkLUKub0n/curxlXabpYWWd38/asA2UoSGxA4wkEfjmTzs0K7spM3MrqV98xybKKmk5mskTlkJksIareBPz+M5PuiqrDN0+tYdM7C0zzfZY3k3U/k8xb6STFHuHAjlUs2hpjitZrLAmyhBC1jA2BUycRMtAT+7LOxWckcWzzOj7elGJcTa7SqAKtNKK+CCY8vOKFGmsDCbJE5ZAgS4iq1wq7f3zFcwPdsQIy47eyekb9GDCsTBJkCSFqKRu6jQhkqJ83Go099taNsCxUBJqs22RlXEOfmMjPZSl4XBaOIQR+Mho2jq03ARZIkCUqiwRZQlSPVjj8czWDHzvEllkfSoBlAhJkCSGEKDMJskTlkCBLCFE3SOILIYQQQgghhDAhCbKEEEIIIYQQwoQkyBJCCCGEEEIIE5IgSwghhBBCCCFMSIIsIYQQQgghhDAhCbKEEEIIIYQQwoQkyBJCCCGEEEIIE5IgSwghhBBCCCFMSIIsIYQQQgghhDAhCbKEEEIIIYQQwoQkyBJCCCGEEEIIE5IgSwghhBBCCCFMSIIsIYQQQgghhDAhCbKEEEIIIYQQwoQkyBJCCCGEEEIIE5IgSwghhBBCCCFMSIIsIYQQQgghhDAhCbKEEKI+C1zGs/8JxcuzujsiRC0TuJIJ/1mJxrG6OyKEqInMq7sDdVdbPtz6Mt3sSj/y/HfTmLKs8nskhKghpkwn7Gm30o9Li+TjEesIr6x+BC7j2cn+tLCAAW9u4O7HY0k8W97GXGk++h2eHq6lZcM09Cd38d28T0k3ZX+FKE2fNcyYpaV5qQfGs63vQE6U93UCVzLhJS0OZjBywUq2zHwe/dXyNiaEqItkJksIIeojz7mMzA2wAGjmRWdt93I312TKcl5+PgB3eyusmzrhGTCJl+ZPM01fhahROuE1oDMOeVdQzbSMXLCSlo2rtVNCiBpGgiwhajxzNB18GPPWJFau/5iwpUHV3SFR23nOZsg7I9DkBVhkot81ne/WHS1ng4PR/tUD60L3NvENwqf8vawaTv60HLGAIZ8fZPqenxnSp7o7JGq+k8S+u4BDFzML7mqm5el5c5E4SwiRR5YLVppzzB5RzCiusUuFRDkZv1SzeImE9l3EclN1qSL6jGHxLF9s827fqs7OCJNYtoi+BpcIm+K9Wxp/OkweQVvF1eDNE0vYsupwBdq0w9zS8CMWhu+uMbp8sILhHnm30kiozs6Iijs4gYUHDT/U5avfFb/rCrq1iROzrLD7ciadmz28y8ptBKNnJ/CfD9eY6EWEELWZzGQJIUS90YqWs+fTz80q/57MxK1sqvBF4QZORF8pcu+9+F85U8GWhaixbq0h/OOt6LML7mraZSpDRrWqvj4JIWoMCbKEEKK+CJzLgC6KabJbJ9k55x2TTI5e+ehtNkdeIf3+w9vp+kOsfG0Od0zQthA11tl32Pl9AgULB61oG7xYNVMshKifZLmgqIMSWf7uAkKtDDz05Gg+7eeafzMjchNztyQZOPAO/6u0/glRHSYQ8KyWpvm3Mzn939fRm2z56SGiZ/Ui2lTNCVFLZK6bzP72uxjimfulY+HF32ZN5dw7S6q3Y0KIaiVBlqiD7qE/nYTe0EPdstW3s1OJijQUZAlRtzT+5xi6NCu4nXl2E/t3Xay+DglRZ1zk3NxNnFs9gba5mxAbdxxNYO8lhP9UvT0TQlQfWS4ohBB1XeOZ/K23cp/IRXQrF1Rbd4Soc24t4IeflIMWdnQcMhdDCyqEEPWDzGQV5uhK8IQgnvJxw8XeDktlxqys22TdTSf53Fl+OPwj+/akcq3aOlqYDd1GBDFygA/eLg6KfmeTlXaN5HNn2PvdAUKPlWeHhA1tBvgy0r8H3m3tsbdthGV+eJ5N1t00ks9f4Ni+7WzYn0aGUW2qs6hlRa9j4IzI/EdtO/kQ8kwQ3do7Y2+dOzSYk03G5URiDh/g31+fq8ZzH8SysIG0yb2lKibt2JaQaUH4ebvhYleQVy0rLQV9jI4ti8MJL65gZZ/n2KbMIlgcj4GEhQ0stZdlKnKd977v2haXZorfb042GZdTOB8dzpY1kRwzttimKoNmCvte+Ih/X8h70IbAF0Yy0r8tmhZ2Ba91NxX9mWh2fLubnSfvFW2z9UBWfh2EJv+O25xc8iYzdxnZJ8B2ynS2KTN7XtUxe/QmjpX0HE1r+g/zx9+nNR4t7LC0VuTLy7pNxrVrZT8/VcxqXN/8EXaAW9FbOVHuosMPs7SNaGtOgwbmmJmZ06BBAxpgBg0aqI67fmQ+C+esLlPbLecd46UeuR8MN4+wdMRELgHgSvNhr9N7iJYOLnZY533G3c/kysUYTu7cwE/bvy++z8uNySxnR/c3fqf7G6UcpupXabxoPmIKvQcW6jdw9+YVLp2PImLrMuKOxRrVGkxkyNZZdM9d93n35DLmzVhc8HCnafQePZhO3k442eRe4t/PJP1KEjGHN7J3xQayizaK+/xonvdVhAT6XXwwaWYZ9tSp+wUQ800fNqwpaaWAF00GBKMN0NKujSvNba2wNntAzoN75ORkc/v2DS6fP82Jfcs4se+I0T2pLrfWfs/pv4bQIXc/lrmbP127QsTxirft/c8VfDExAFc7IDON+H2LePH1Dcg6DCFqLgmy8tg6M2bW84zVOlNMJmKwbISlZSM0vs5M9PWhfdYcZheTKrYq2QcO5cNXAmlj8OrcAks7ZzS+zoT4BjL27AG+eHd38Rf6So6ujJkSzFA/N+yLnfO0wNLaAU0HBzQdfAmeEM3q+evYaOgiuQSWtg4P/8fWmTFvhzDR16HoQWYW2Lp40m2UJ+v9f+aLKaHsMy6iqwLmdH7+ed4Z5Y2tgXNlaedMG+1Q3nxCS/cln/Lx/rKdn8pjQ+CMEF7p62aw3w/PuSudXJ6jU99hnN+9jtlLyhrg2mDfBrhQynvV2gGNbyCv+Grp881Cpq5NVT9+YT/H4oPQ5F8oN6JNTx/YZewuIDsmdlGXTtAf2V1MgGWOpl8/Zozzw8ulUfFNWjbC1qXRw/PTLxj9/lXMXFidAwCGjKBrV+Us1hVO764RxQmM5zSZvgun0LuVgXmBhlY4aTrT9+XOaP/WmaWvzCO96ntokEXgEp6bGoR7MSMn1k2dcPcNwt03iOtxu9j43kwuFU3SWCLrJo4P/8d2EO3nzGKUr1PRL/aGVjRx8aD7qDn4+PuzdnII+kKfnQlhv3LdtwfN8+7QdMbXDSISjezIkCC8FQEWGVEcKS7Acgqm/eSJPOXnQfOGhR57oPjZrJug6aDl0fbdGT4+io3zZ3DmZA0OK24t4UT003T4q1PuHU50GBhCxPEK/r1NWMvaaVryU9ZY2eExdBYrMuMZMEdXsbaFEJVGlgsCePmxZP1bTCwpwKqhvKdMZ/2bxQVYRdl6BvHm1y8x0av0YwOnhTDRv6QAywBHHyZ++DIhRrRfhJeWBV+/ZTjAKsTSpRevzA9UzGpUJweCF77Lp88YDrBULJ0JnPoyIa2rpGOlcCBk6Tu82a+YAKswMzvaDH6ZlUv88C7za5nj96+ZRr5XG+E1bjrvFikKe48NR86SpbjHtr0vwcZ2oXUvOqneMIkcW5VWzMGBvDkjqOQAq4hGaPq9zLJ53qXPRlal/k/TQfkndfEYx00wsl5VzP2WELJ2uuEAq5AmXmMJeW9iFfSqdE2m7OaNt4oPsApr3m4wL339HT7l+ux8neFfL2SMoQCrEGuXAMbPn4dN4QcO7kadhd+V9sO1RnfBvac3TRS3r586UGzNsZZTX2dMgIEAqySOnRjz4XK6lOf8VKHUzcdUM5yNvfvStoJtzhqmCLDyWeEROInBFWxbCFF5ZCbLK4hlCwfSpnB0lZbEychIjkacJT43+5azlw9tNc508nLDpUWV97QI23EvseBpN0VgeJtrp3Vs2foj+yLSyMAcTYf2+A3xY2SAZ8GFtK0nY94bzf/+volwY18s5zbJ+nPEnLzAuVN558QGjyd88Pf3VV+MWroxZFoQeycfMJx8whAbb5Z96kYb64K7MpJjOLZfx77YVHD2ZMzf+9KpZcHrWHr25ZXB4WVaLlYZXIJmEGKr+PnTEjl26Gf2/pLCLefW9O8biF8Hh4Lfk6Ub/Sf7sPyNQjMwuu3MfiO86Bp+zyDemeRTcOGuD+f1/4ssfFQR6SWmRzRnzJI3CfZUrCG7m0rsod1s3hxNhP4e2Nrh7f84Qwf2I9Cz4Cve1msk776Xwt/fO1dqH/K4DH+Ldz0VV/o5aeiP6dgbFk38LRs8ngxibF/FexQ7/EYPRHNwt+o9lLE2gphhnnTKOxnW3viPNyd0bekzg53H+KqC8qzYE2wwdib0WhKxZ89yLu4CEbG5M2zOrQns0YVu3dQDEfba0bzZp2bMcgO08HVHmU1a/+tiRbrp8jn52UwSmzbErIEFZmYNoYEZDWgAnuMIeb6z6mK7QmzaM+YtO5rk//FkcuWUjrCwXVxKaUqLnn3wC+yhCmSa+43Fz211kRmY6M9mEG8g4PF5aSF9898YaZxYOZefSltKmXWV6yU9Pu47po/woODjLJMrpw6xd+tG4iJ0gCs2HQfhPngwTymDDVtvRr2/miujjF2KCFg/wfhPPfBURE3pyTFE7jvAidgkcO5O778PoYsiSLVuN4T+Q+awbaeyoVAijkym95CC7KuarhNpgY7LpXbidXp0VH5yXSF6j5HLRO9n8qc+hrjo8+hPHeVyxgNychrh0PmvPN6rGz7Ois8oSw8GTfuAM5PfrrmlAf63lXMXB9Iyb/LYwguvUXBuc/mbtCtufMHSCqdiHhJCVL96HmQ58NobhQOs25zfvpyZSy8U3VsUmcS+vP+3tcG+KrpYHFs/PhrtqQiw0ji25CNm71J+9dxDfzqajaej2bhNy4L3RtMpr9P2WsZO3U34kuJG8h/KuhpDeOhuVm9NMrgEKiryHKFfh+I9Zboq4LP00DLW9wAflx4LPNTSLX+PE1kpRHz1Oe+rfpYkovZEE/LVmwR75H3plnW5WOWwVQRY16I38cl7OqLy3zxJRO2JwPulmSwY5pp/fmzb+TKEaFTXOBlpxEQa+H00LxRAZN+pcEZE23EhjPVSXLxci+SLl9axU7mMNCONmD0RxOyJYMeoSbz7gk/+e96+5zBeab2ALy5gBDs0nopmY3cw961wxTl6+D7ad+o5Vs7wLfi70ngztPXuQq8Rzc9xt+nkm3fOLfDw1WK7NqKUvYCuDOmonM65TUxYKc/JSUN/7Ee2fH2YfXpDQdzD3y223ny4MoRu+R23o9MQPzgYUWKPqsZAPDXKMfCLJP5Q8YyC987u4nrufiwzM3PI25PVPBiTLoS1tCsI2LKSCFv4Cj+FF+xduh65gbhVExmyVrkXyJX2g7VELFEvo8qO+95gYJSRvVB1+/6V77lu7OeWIbavM3aMtyLASuPokvHs3Kncc5XEnVNfcebUV5zZ9jrD359El/w/rh4Mnqpl+RIjl4G18iD/zyvrCj999SJhqtf6nm17wvhj+RcM98i7WreiXc/JsPMrVVN3dkWhH+JaMBjh5I1PDwgrbTvUBC2eyu9RvY6IUp5z90oMP4du5JetoYX2iD0gJyeb1BNr+X35ffZO/p6pT7vnz7xZePTGzxfCKvI7qlRHORVzkYBWBUt0W7abAJS/4HdU0lWC3R2LPnD9CjHlblUIUdnq9XJB2/HPENhSeU8ax5bMZYqhAKuwjDtcq8b9QN3+FYiXIrmFfvuiQgFWIbE6Zn4dqfq5ND0G0q2E1zg2/30Gjl7Ov4sJsJRiln1JaKzyq9IBTUmNF+daNMtnfFQowMqTyvLQ31Q/g+0jrWvIkkG4plvO8zN0quAhT8zSA8SoOu5Ke98q61ohrrw2UBGgZyWx871CAVYhMZtXsVynDABd8XvWtdjjDctGv+dznp0abvAcZezfSHi88h57NAbO0c7tv6nej5ZeXRhb2pIsbS+8ldcoGef4ucQZ0HBmjpjD83PCiwmwlG3FMPtznbpPrdwJLKVLVaJxAI8oZ91v/EFibSwAlxXPttf6qAKsfBmrCTukHnRo2da/ijpWVIt/DcZbEXAkbJ9RKMAqJPZTtq04ogoANT0mUubFEteiWPdar0IBVp7DnNjyq+o1mrh4F10ymLgYnerpTvgMKG35pSs+vt6qEVv9ya0lzjRdmv8080Y/zU9FAqyi0r8KYdfvynscy/fdUoUyY/7gpuJ2Y9fuBpb7GS/0g5XoCn8+Z8YT+skMZEeWEDVXPQ6yXHmtv6dqD1aGbl3JgUqN4cPIJxSj8hkx7FiaWvzheQ5uJ0K5BsWxLX8r4UI/I6MsY9L3WB2rvtBxaVnGlejXIvnipVWElpRk62Ayycrbtk0LZsCqUVb8bt6fE1NCcB5N1B/KywkLbA0MTFaJwUF0Urx2xqkDfGFEYrPwlSdU597eU0tno180m/PbFzDt85IGMO5x7ooykGuEraErTd3PnFS9CdzoNqnkS5jAgd6qmedrvx5QzyIa6EtGWQZRdCc4r+y6nX2F92GYRHcHlPN39y7/jhGfFDVMGkeXhHCihPfonV/iUW4nMreurkVUk+npq3jtjCh+/PJw6U87uBydcoLRyRufsgzCXDvCypdGE1fiZ2eSeibPtklBkot8SUQfjVHNRjbvGIR7Sa9tG6LeJ5UVg25VKZf+GWWZiU8iOkY1+kLzlpPK8Pxq8NNF9cBkcyecK9Le/1YxfswMlu3QEXMunqjDG5g7ZgCzjV7vL4SoDvU3yPLV0kZ5kZt1lp3zjd9jUq1G+OKtGLnPOP1zKReMedKI0iuvBB3QPGHarpVfCvtKmU15KJFrJa9wrHppkXwx40CpyzaSbyoDeDvsS7xyqTzBAW0ViRnSiDlo5HLLCzGo3j4uriXOhCplRYcyc2lKqTPE4ZeMCQGS2HBcfZGm8elVwoymD091UAZhKRxbX4MzlJlS6xaq/Vi3rte+nzth+wx27iul35GX1RkF7R1pWdyxlWlEAB0Un80lJX9Q05Gg+uNyoqXRQdYVwt6dSEKpWQkTuHKztGOAbw5wUjXr7o3PkOIPt5nUQxWE3Y05RHSNyfpaXRK4oXxDWtjR9LEKNvm/XSx6fTzDBw3gmRfmsuF0BdsTQlS6ersny1brhovyjj/OsaWWfDF0bueqmoFLvmR8cBh+KZU3FQsX7Fu1BWpCcHmbDKPKxJxj9ohpld2ZsrmSXINSyZfGlbbOyox5qeiNTtBwDv0V8mubgQMu/oARA/VZd1KNq5+2bBF9jajtpV91hNh+IwuWzGp8Geu72/AewEKDEuij2WLUXrLaz6GFerr05uVN1dST8krjyu9GvMFqiObtXBV7seD6JeNrhF26dAUUn81OLccCG4x4ZpqRn52r2TlitREDcl/xS+RYugTkzchZ0anv62zb+amBY7X4+iqXDWdy+vBiA8fVN2u4fHUmBRsKm2DnBtTGpbpCiHKrt0FWNxf18qJkfUlLvWoWD3v1Svo2Ty8m7OnytWVpTApdRwf693+SvwV40sbFHltlMVZRyzhj30x5243gsMXGp0EvxLK6ah5k6IiKH4ZXfvIOBzoNcAUDCUHGBHgrBiWyiT283/isl5ij8fNhaL8udPJsjYtto+r7mcuhYVlSZIsKa26v/l5xH/E7H44oZ2MNq++NdvlgDFcCAvIz15l7aPGxpegMle9EuqhKsOn4xbhlFQ85+aPpNxbfAG/audhhY2OF+YOCYsQ5OfeBBzx48ABVAS0hhKgF6m2Q5dJUHahk1KJlNA62ZandUxE2DJnzMhP9XI2royRqAQdsrUs/qua7x+qwGIZ4FaS2t/fuRTc2qYsL2/qh9VCmqY/hsBHp3gFsOwXy0ZsD8LKXQQVhHPsmpdfyqhWOrOaEPoCn8tbgWnrTIdiV6ELFhVsM8FalENcfX21EuncAL9znfMEoP1eayECAEKKOqreXzk0s5cKpZA8L1b7iLwGWqKF2/UyMchuL4+OMLFSZ03aEDx6KCYGMM5GEGtG0bb/RrJw/VAIsUU/piDiuTjbh7T+tUDbCYHy8lSFWEme2GZPrzp8uS7/l+QAJsIQQdVu9nclKzbgNKArbmpmDaSu8VJ776pvnv5vGFCP2sZRFt7deIthTPWOWdSmafTt/Zu+hc5w3lKBiynTCnnYzbUeEiRV+jycS2ncRy6ulLxV1jh0nU+nmn5c/r3DdNDsm+isziKZycrsRST5s/fhoqlZVYJicNM4f2s+Onb8RcTrNwNLitny49WXFfjVRH2UX+vNK2PoXVpr4s7nKrNcRM9ijIB29pjO+bhQUeR4yAmUixXuxh4oUgDakxVsfMrydesbv7sUownZ+z5nDG0i/8rBO1sMlg7nLBSd/z4dPV1OmICGEKKd6O0eRXCg9uX0rz2KOrHnOFUqv9zBANCUfRnZ1UN1zTbecv49fxRdbiwmwRC3xR6HsjBZYllZjqgY7tj5Stb/Ktr1vwf6y1r3opEw5mBzDTiMG2jWTeihq0AFZiYROn8OUjyLYZzDAqrkup6hy7tG0xehq6kn9cKVw6tOGZa0lV4NkzOPIqUzFHa60H67Nv+Xe07sgrwNw9ug8IxqdTM9u6vT614/MZ9740ei2biC91AyJtcVAminTepLO9ePV1RchRHWpt0FWxEV1qmhbNx+j01FXt3C9uu8u7bTFHFlOfXxoo7zwzohmQ4k1oETtcQ69qsaUM22HVVdfTODCz5xURlnW3viPe/i/muE+qrTu+uMHiDKiyae81RfG+v2rWG5U9rYaKC1NNXfZ1NGr2ENFxV36Qx0laNqNqaaemEbCLzGq1PiaJybm1taaho+3YjYqI4oj3xjRYJ/ueKi+W6L4bo7xGRhrDw8aK2e1714h9Va1dUYIUU3qbZBF2Dl1hjHHxxk5opasnvw1SVUU1tLDh4mmnI1oa4+quZQko+pw2ZrJ/pVKcf6mOsC1sSmhJlTpjqkGGCzw6OZH7Z3MSmP14bNk5d9++POAHSM7Kcp/Zp0lYjEdGckAACAASURBVJUxBdbaolENtKeRHGPM82roe//oRXUighatMFTfuT67lq6crbGiYdMKNBaZpC6KnJuVr9bauZVI5Q/k4k0XX2CElg6KDVpXIrcaVw+sbQt1AeSU88Y9z6yWJRTp5MUjygRDN66SUsEmXUcvZNuh4/wW9RvH967lndG1eJZUiHqi/gZZhUfAaUSnUWPoXxu+ECN1xKiiLE+CFwbhbar2C2/bKfWi3pzOz7/E+mHyoV8pLqRyPUtxu2V7RlZgQiJqf4w6SPcaxoIpDsUeX9NlrI0mXnF+LN08CW79JJ0U1Wiz4qONroOXpXr/m2NZ2kW3ow/vrp9UM/dj/S8K1YrBJo+iqWhR1DrmumqJnxXtelSgDl/kLs6o/ri8GfLveapldbVLKCdOKaMsJ9wDtLj38FbUA7vCmYPGpJOhyH5irJsWSqZRmCvNJ33HG7Xtu+UJV5SfqDeTosgs9mAjBC5k7ZzBeLvYYdXICjt3LWPf28baf9Sy8yJEPVN/gyzS+GJTpHqGwN6X19a/xMROxsxomWNbbQFZEl/sV47eg6XHQD5cOpBAx2KfVIgN9sUdG5fCNeXtll0I6Wf4nNh28uG1pfP49BnPWjwbUtP9xrlCS/wCZwzFr8QTXsLvN3I7e2OzFXdY0ObpGSyb2hZ7Y7vkaGP8sZUugoOnbhfctG6L/zRPRbHx28SERRi53PUcyao9h43w7l/cAIYNgS9MYv3aSfi51NCZLNZw/oLy8q4VbQd2r7be1ETXTyeplsQ16TSW4aP8S36SU3GjHN8Tti+Gu4p7rD1G8tLSBbR0KuYpRXhhYfSxle/6Jp1q1YfG53V6tFHMLOl1RBwxsrG4y1xX3m6lpW//YgIFn+n0XrqNGaO9a1mQ2gqvdsokHZn8EbmmQi0OHtkD1yKZGO3QPjuLwYaeIISoEWrJ+rhKcnAjywPa8ppWMQRt68mYBf9mSHIMx3RniNJdyJ/md/byoa3GGW8PVzSuFpxcMIfZBw03batxpq1TMRdejdX3WzZ2pbOvgeMy0zhXzEb7jG++ZaffmwQragDZegbx5gY/Jp6P5eTJMxz9NYW8ZeCNW3vS2aUJLm1ccWnphsbeovishId/JuaqFr/8i3Q7ur36Liv9dOwNiyb+lg0eT/jQXetDJ01NHL43R9PBBQdDK0wKnXssHOjse8fAgXf4X2SqOtisNmnsOJFIf41bfqY8S00g727yIfZIBIcjzhJ/C2jsTLeObrTp5EkbjTPJ24vLOnmPjcsO0GvhQNrkJ3hoRJvBL/PfJ1M4f/oMJ0/GcOxC3nmxweMJTx5p6kBbN2ecNc7YWyfVqKyEO7f/xlhfbW7g1wivDorMmGmx7N1lfFsbjp1liGdBVkLL1gNZsMmNiN069sWmgnNrAnv40KmDJy7lGlmwoY2vQzEXjg6oS9Ca4+LrSmcDR6b/L8moJDT60wnc6+iV/2HfsuMYrDha/pF1xwCaP2aHmVlDzBpYYGbWEBqY0YAG4GSt+lIxt3Siue8gA42kkRF5mGwDj1S5nQeIGd+Z7vkzlnZ0eXEFHn2PcOLQUaJjH9aGauIVgHs7D9q180DT8FeWjpjIJUPtfbOIvb2+YLhHwQdQk3aDeembIP48/yuno09yNjKe/L+u1t3RPNKUFh4ePNLKlZb2VuhrUlbCxMXoYgejyYsrW3mrBh0Sji/G0CeoQYd2Ez25B73zg0g7uv/rO5x6HiLi4CEuZzTF6YleeHXvSEdXGxrmZhc0nis2HTpjXczqQlvVx78Vtr6D1csXc927EkW6vpy1MxtPoK0yye6tWGL3la+pUrl4E9QTdv1SSe0LISqkfgdZ3GPfnEXYLpxOiI86WLB18SZwmDeBxSYFKHmfRrcXXuZNrXEBiKbfTD7tZ+glIvl4xDrCDT4rleUzVmG/bBKBylF0s0a4ePrS39OX/qOMenkDklgdnki3UQUX9ZjZodEGEaINKuY52SQfjiHL36dC+4VMw42Q941Lp23rO5pPDQW4NSy1uX7Zenb6qINqrB3wenIoXk+Wo8HYA8xcYseyqb1wUV7V2zrTRutMG21gQZa+2kBXeGCgwLWT4cX8DRmWsfYAxwZ44qeYqrN09CZwvDeBxT7pLBEXXPDrYMzffC9e+2QgbYzpjJ0PEz/xMfiQ0aUbNofx+xAvOuRlO3PxoWtXiChvtrORrzPjaQ/MzMxp0MA8978NaIAZNGigOrSJ7yRmGPz7imdbn8OcKGcXTGs1O7/2x3NGD9UFd3O3HvR160FfQ0+5WVJ7hznx2iKafzWd3i6Kq/2GVjzSrgePtOtB33J/NleHJKIjY3jay7voBUNWDCfWlyUYCSXix4loR3kULDdsaId7j8G498idk3nwIDd9ezY5AGRy6fAZ7vl3MuK7JYg+77+OcV+9rvT9ZIHB3+913acsnLPKmEaKsBoXQFvFx/TN2DD1/u9y2HXwDG8EBlD0480Ou7aABFlC1Ej1eLlgnlRCZ7zP66siSb5b+tE1SkYMHz/7Mct1SWTklOP5WcU/pP/6Sz7ek1TSIQXSEtm3ZA7PzjvLLaOeIMouleUzvmTnWWOSMBgnY38oz87YxDH97dIPLiwn27j3RpVJYvURQxd7SUSU6SIQ4Bzvv7eJk0aVKrjNtcgdvP7sUnZeqRHzMgYs50S0el9Np+CZ1dabGmnfRJavOMKfRk/JlCJjNWHjXmHdkSTSC+9DMsK9mvXHBWsOcNLAkor0UweILmPa2TsrQli+Jwmjvm7TEghb8gxL50WRXtPOiUET6NmzleL2FX4/ULGlggBsfZG3dpRzZk0IUW3q+UxWnntEbVrHs5u20G1EIEMDffDW2GNrrV5alnX3Nlk3rvHHhbPoIn5kZzFLBatWKqFzFhDq6ED/4QMZoG2NRws7LAv1nbu3ybp9DX1iIjGnz7F3X3QpS43uEfH5Av6+1ZuJ/xyIX3tn7JVt3k0jWX+OY+HhbNialLusLoX0u1BovZMwlYwLfPHSHDYE+hES1INOhX8nZJN1N43k8xc4GRHOhq1GtBmrY/bzOuw9fRj5rJZunq1xsW2Epep3mE3W3WwyLiehj79A1Ekd+/bUlKWUBfSrojk/2FU9Q6SPYceFcjQWq2Pm6Gi6jRvGxH7eaFrYYZk3JJWTTdaNFGKij/DDNzr26XMzZVxPA2pmApHUzYfRdx2BJvftYuU5EL+uC8o/m1UHpW+eyJd7BuE+aQS9urVHY2+HtapeWibp15KIi9ER+c1qw0sFVQ4TN6cPnzj5oxk+Ea22Pe2crLC2Ua9lu3cnk3t3rqBPjCfuVBRn9n9VA+tFfcXRU5Po0kM5RZRJ3C9flaOtJC5/1od5oRPRvjQWrbcTTopzkn03jZQL0Rw7uIMTod+SzQOge634brGaNIKOinXAmWd3m+xv7NDrcznQZQVBrQo9UI4gXghRNRpQhgXPcXFx+f8fEBBAcnJyCUcLIYSoKVrMPsKzXQouku/pd/Ofaa9T3vI9ZrlLBc3MzCFvuSANSn2eECV78HCp4IN75OTuyXrwoDxLNapY46n0Wx5SsCyXKxz9qLdJBzImrTvOrO6KQPd+DKu8hzPfdC8hhDAhWS4ohBD1wOVFmzitiKjMNX3o95xkGhSi4lrR8tXRigALbp5YY/KZYjurQhk9zkaxwbQvIYQwIQmyhBCiPri1hP07YxVZBa1wG/Q2HTyrsU9C1AWBcxnwhGKGKV3HnkUm2IulEDDzW8Z2UgZZVzm0fi6yU0uImkuCLCGEqC82T2PnKUXydgt3+v1rMY2Lf4YQoiSecxk5WUtBzfI0ota8w6XyrsNV6hDA2FcXsnbvcVb8ozMFYVwm8Vvf4kVj9t0KIaqNBFlCCFFvXEQ/fwlRNxR3ufRh9OwJ1dYjIWqtxhMIfLMgoQzAzaPLCQ+/WLF2J6zleFwccVtX8E7IYLTu6oQjV8MX8eJbhyr2GkKISidBlhBC1Ce31hD+8Vb0iozzTbvMZMIbEmgJYTx/OsybSudmBfdkJm5l0yemXSaokhbPrg+eoeeUVbJMUIhaQIIsIYSob86+w5avdKqaug7dpzJyUp9q65IQtUd3vBYuop9bwR6pzIsH2TTnnXJn6zTofiaZt9NIijzEhgXj+VvXAcxYH2PKVxBCVCKpkyWEEPVR+PP8h5X845Xc/SQ3ovjlvzWi+J8QNdxRzh6MoqdH7t9Oqo7vZk0j1VQR1prxdK3ECTEhRNWQmSwhhKivwp9n9XIdqak6Nr38vGk26wtRD9zf9zyb1p3kcvJhNk2Tvx0hRFFSjFgIIUSZSTFiUTlqaTFiIYQoRGayhBBCCCGEEMKEJMgSQgghhBBCCBOSIEsIIYQQQgghTEiCLCGEEEIIIYQwIQmyhBBCCCGEEMKEypRdMOpfjpXYFSFEZWo0+ReD99/+qmcV90TUBWZm5pg1MKeBmTkNGpjRgAbQQLILigp68CA3s2BedsEcHjx4QBkuVYQQokaQmSwhhBBCCCGEMCEJsoQQQgghhBDChMzL+8TOn181ZT+EEJUsbrLh++VvWZSHFCMWlUOKEQsh6gaZyRJCCCGEEEIIE5IgSwghhBBCCCFMSIIsIYQQQgghhDAhCbKEEEIIIYQQwoQkyBJCCCGEEEIIE5IgSwghhBBCCCFMSIIsIYQQQgghhDAhCbKEEEIIIYQQwoQkyBKiglyD4Jf1MMWxunsihBBCCCFqAvOKPf0f/N/4p2mTdzMzi4ybfxAT8z0r/tiPXoq0izrONQj+OxUcG8L0JcBUWHa1unslhBBCCCGqk2lnsqwssW3hQbfe0/hP8Co+aOFl0uaFqGkmDXoYYAHQ/GGgNalxtXZJCCGEEEJUs8pbLmjjQrf+b/NBM7niFHXX3DfhwB+KO5rD9E8hoNp6JIQQQgghqlsD4IGxB0f9q2DTSefP1WuibM298Gv1HGO6++Bio3jg5nE+2f4u4RXtaZ1hw19CxvFcb28crfPuu8D24YvZU5FmG9vRccRQ+vZsg4ejHRZ54XPOPe6kpXD+fCQ/rfmZUxfv1cv2LVp58+SE3vRs54ZjE3Ms8h7IvsPVy4kkHPuFzVtjSLtVnr7D2q9B27zgrrSjMPw9SCpXbytHXFycwfvbtWtXxT0RdYFZA3PMzB7+o0EDGmDGw68UISriATk52eQ8uEdOzn3gAQ8eyN4DIUTtY7IgK59ZPz4YOI1u9nl3ZBETNozpl8rfybrBnEdGBDN+aHfcmxR+rCJBljmPjHiWV8Y8jmOp85J3+PP/fcsnC37jTn1pv7EzfjNfYLSPQ0FgVZy7KUSsXcy6fcb3Pt9fYM988LAsuCtmHQzfVPamKosEWcKUJMgSlUOCLCFE3WD65YI5+/nk11iy8u+wROP0pMlfpjax6TWAV1d/zPvjDAVYFWFOxzfe4P1xxgQoADY88teJfLKwL8Ylwqvl7Tf25rnFb/CcMQEWgLUzfiFzeGOSgzFHq/0Oc3dCpuIu72dglqyWFUIIIYSodyqYXdCwjIux6PHKzzpo29wD+LEyXqpGs3nCj7EvDKCbav0kcPcO2dY2xl34l8Bx0ktM7l4oIEi/wLFffibiaAq3ccCjly89uz+ORnGxb+MxgDdmX+TND2PIrrPtOzBg3kT8CjWfpv+ViIM6fv3jNrRwo9tftfTq2Aqb/CDPBvfBU/nHhXn8J7xsSxN1K2FDB5j0l9w7LGHsHNjwRs1aNiiEEEIIISpXpQRZEM+1m0DTymm9xmvcmgHvT2SYh12hB+7w54kdfPGLJ29Me6JiQZbnEF4Z3FrRxj3+/H/rCy2lu4j+5G/8+IUDfnOn8lzHgv7Ydfk743u/y39+qpvtO/7zBYa5Kd7e2SlErCq8FPAi+gMRhHp2Z8qbz9C5WX7rdJswmojw9fxeTPeLM/9t0G4E79xlg1Y+8GEgjJdNiUIIIYQQ9YYUI64UrvxFUyjASo8h9J13ePfDo1S8jJI5Tz7fi0cU96T9upoPit2rlErEO0vYrlfOzNjR+Sm/YgK9Wt5+Yz+e6+2sbJ1jXy0sfq/V2aMs+3gPeuW0WJPHGTC6HGMQt2BRoYBKOwK0ZW9JCCGEEELUUhJkVYZbEfwYk3dBfwd9+P8x7bmvOXCqnJn3CnssiJ6eylmac+z+rOSleZDKnm8iVQGehaeWgY/Vvfbtxmn5iyL6yj4bxtrSlv6dDWPd8VTFHeb8pWcQhecijXHoPxClzFLoDpO6l6MhA7z/uYIfjscRFxdH3G/H2fPpWFxN07QQQgghhDARCbIqSdTu39Bf/vX/t3f/0VGVdx7HP4n5YQw7LSQaUkLQRCBkFYUKma2xQM4SWWiqFtxTcSs/lrIFjgVXKggVXERrt7gL5VS2NM0aOFTKCYrllxtcYiR2oykEQht+xIBAOJCSCAyEGAeS/YMfuXcyk4TMM5AJ79c5nONz5873Xsxw4DP3eb6PVi1YoMXLK66j217bHGMGKtEydu3ZpoL2tB4v2aJPj1sP9NJ9o1rGiOCu71Dmg72s1VW6taiNAHfZ0XW7dNRWPlUZ3kJiW+qkvF32Q87HOlDH08Rc5c4cpoSrv+VIh5Ifm6OVr/CcDAAAoDMhZAVKyVot/pfVKjL19OqaMKXfa58Kt//jina9L37sWA2Ntx+NTxrYtepHp+nenpbxuc9U5GtdmO19cUqfNNgW/qQ4JXXwCVTeGnuzi8i/leZ0rNQ1cx53enmyFqnkjMnK8rM2AAAAzAlQ4wsEzkD1sQYNd7Uq2woRPhtxSOF3JShFsjR4CPL6GQm2tV7uE4fbbF4RnjZSz84YrZQW7fXD9I2kvpLaEwI9HJFKj0kJva+MIyTnU5L82DfLEenjhYhI3dnxsgAAADDsxoSssGglSvapWOiY6BjF3G4Z11ZpZyunRz3yXT0/fYQSb/dxQnQPxcsSUoK8fnhcjKwN82uOlLVWXSnPztC0jF6K8nVG9zh1KGRJyvuLlNW7eZwwoENlrimtqtG4JC87hJ0+pXL/SgMAAMCgAIWsz1R7Xs0t3O9MVEao9BabtvtvSE993TquOyeX1xNjlD7/h3ryoTh7gGisV/2lKEVdbQwRHm5/PcjrJ8fZH0fVn/deXf3SNOW5x9rcwyw83Ff8alvxXsk1Stem+DkSpSxJGztYL2/xb5X1uzlyWnNWQ6XyXp+t4g7fJQAAAEwL0JqsYyo4frJ5GDFAo+5/VN0Cc7Fbi8dPzHW65Ta34fenaVr2T/WMZ0CpLdOql9/QDmsTPfVQ7MNdp364rb5LNS0en4Ypfuwkvfaz77cIWDV71mrhwmJ7i/3uMUpRB22XTtlqSakdrSVJR3I0YfxsrXivWOUVlSr9aI0WjR+t+ezBBQAA0KkEbLrg7gP5Kn/gGaVeWUfS48GZWtX9W3q/7B1tP7tHn10K1JW7uLt7tNJWPEzx/zRJzz+RKoctbFzUiT/lafmVPbpGe7Q6jLBuNhXk9Xt3b6XpenScMudP17gBHue4q/Xp279R9ru1kkbaO0He5teW0Tp1Vkq++kQ3QkroI+mIHwWPbNTSFzZqqV93BQAAgEAK3JqsxrX66aY4LR39qBKvPDDo1meIxvUZonFXzznyjjI/zA7YLdxSYvtq3EuTlJnoOf3tuPLf/JXydvjZRD7I6/ta21V/tEArXvmD9vu/Q7RXVbVqnjYryZEs/0IWAAAAOr2ANr44f36Zpqx7RxnJ0zU+dYASe0QE8nK3hlMu1Uu2aXRRo76vuRPSFO8ZICq3aNnCbTrU6h5UbtWd6Tr1a863qK5BP5mpid/ymHqoeh3avFJvZH/e+h5a9Rd0obXXAQAAAA+B7S4YMVaLh/9AQ+MJV8acuyi3mmOEY/BULXvI48fYWKvS3/1G2eurvQQIh+6wpY1zOru769R3Ndiqa9Czr2mo58rD2jKtWuZjD7M+UfYwVueiKyYAAACuSwBD1ggtePSfNbTHlWHTVzpZnq/3Dhao5Pw+HaXTYMecuaCvrONQ+4/Q/dddevuN1So66KtAgr4ebRl+6bI3egjy+hfq7bEsvJW1XV4lf03W8vXna32dCQAAAHgVsJDVrc/3lH41YOkrHd3xoqYc3heoy906dlerxi3FtujHUK8Tf1yr139RplZXL0X3Uk9rl/MztfbNeoO8/tGqL+RWjFqU/7JaRbnLtOr91td2hSfF2RpznDn5WavnAwAAAJ4CFrLG905uHlzYp60ELEMO68RpKeUuy6G6z7Vh+a+05RMv0988jemreMuw/lSVxz5VQV7/YLXOqq+sW0m1b23XZel946zv1MljPvbZaqc7o+3jU5/4VQ4AAABBIED7ZD2snt0tw9MnVRKYC92Cjqv0qP0f/jV78toXUBSmEd+8x/KU56KO/HlX16q/u0yHzlkP1Grn79sXsBSdrkH3WL53cFdpf0d3Dr7CYX0sVi9Vtec+AAAAENQCFLIiFHGbZXixzlzzgPue1pL1H6uktEwlhVu08sUsJZiqHST27/zcNqUu9oFMDY32eXqzfqM1vJ81RBxW6bquVr9COw9Zq8fom1mDW04f9CJ2QrpSLCe6D5epoB3v82mQ1NvaReO0VOxPPUkJTy3Ru4UlKistU8nWXC146lb79AMAAHR+AQpZgTJZudkLlHVfrBx3RMrRM1nDJr6qla8Nu9k3dmO9n6+d1n4M0QP1j7NS2wgSMRr9o0dsU+1ce7Z5DxFBXr90c5mtsUXU/Y9pQkYbM2P7jdSU4dapgi6Vbi1q/T1tSBgi27RF1zE/Q1bGEuW+lKXUng5F3hEpR5JTT7/8rnKnELQAAAA6k+AKWROHKbW758FIJT8+Swv63IwbulmO6+38Clt7c8dDkzRn+t0+gkqM0hf9WI/bpsJVaPPSiq5ZvyRP2w5apx86NPRHszQuzUfQ6pemaS+OVpL1KdbBbcr90Mftt9PkAfZx5Z/8q5f15N8p4TbPow45fzBHWf6VBgAAgEGB3SfrRrktVc4pkl662TdiMWqs/vXv47y/Fu65MW6c0pZMV4qXU0988Kbefr/lcfe632uzc64leIQpceRMLRlcruKPdqq0rFoXFKPkjDQNH5yqeNt0vIvan7dSBa2sDwru+hdV8Nt8pS22BKfwXsqcu0iD9+3Uh/9Xpv3HLkh33aOHh6fL2T9OUdavG9wVyltU1PomxW2JlgYlWcZ1UuEmfwq2omeqMh+WNn4coPoAAAC4LsEVst4qVPkMp5yOli/d2WeypJwbfks+fSNBKcl3t/PkKMUn27vmXRVR7us9tdry0n8rdtkPlR5jqRSTqhFPpGrEE77ed1GHNi/R8nVtNZoI8voHt+mN/4rRv81IU+y1ABWl2AHpGjcg3ff73J9rwyutB8T2cE6UUi17cLv+LK3wr6Q2fvAXzc0YZpuCeJlDjr6SCFkAAACdQnBNF1SO5v+6WP411e5C6sq1aubrytvXzv8jX1ar6NcL9Hp2dfue0gR5fff2tVr48h+091zb50pS/clPtGL6Mm3Z255Oh62b9oh9XLrV75LS+qma916VgUIAAAAIpOB6kiWpKnuCVny7RHPS7I+zXCfzb9Id3WR11cqft1AF9w/UmO+ma1D/exT7N2HNa5vc9ar5a4X2flSkDesqWt/otwvWd+8t0PJndih+TKbGjBiolF4xctze/LF3f1mrEwf26eP/3aKCHdd99145p0rOrzWPG/ZLiwztj1X4wiLlP7RSmb08Xrhkpj4AAAD8F3QhS5JydlZqVtogRV474lJVeSf7hj9nmabewNmL7r1l2rC3TBuo78VFndi8RdmbtwSkuk20NCvTfqh4rWTu01mo0iqXMntZvmS4VKXy1cYuAAAAAD8F2XTByxLiHJaAJclVrsK3btbdAM0mz5EGWZp0uD6Rphp6inWVIzLSfuBgqdaYvQQAAAD8EKCQlawe1tl8/i9xuSbhO0u08jvJtmOV21Z0ppYXuEUlZErThlgOnJVW/MLsNYb9ZK2eftAasmpUuHqRwSdlAAAA8FdApgt2uytZiSHN4y/O7vOvYB+nMr/tVNbjT2rYgFhFWvYKajiUp5/P82uLV8B/KdLKGZL1u4XiHCnHzy6FkqT7hunpzCxljhwmZ5L1Cg2qXD9PU9cbuAYAAACMMR+yQh/V3LQH1Ny9uk5Hj3e0t/Rk5ZbM8dqyXZIaKjZq/oz5KuxgdcCIaCl3gZRsbdn+R2mCv71YJuaq5EWnvH/8G1SzfammzuPTDwAA0NkYC1ndwgYovdczGp/2gHpad9qt3a28L0xd5YpLLlVuWqrZL6yRz22kgBvk1X+XnN2bxw2HpNmvBPCCrkpt/OVszV7Npx8AAKAz8jNkTdGbE76ne3293HRanxYt1af+XUSS1HDBpXMnK7VrW55W/Ece4Qqdwqu/lMYlNY8bjkk/f0Fmn65ealBDQ4NO7StV4fYc5WQXswYLAACgEwtcC/f6kyr64HktOuPPopQcTRhCSwt0Xmvypcy+V9Zi1UhLn5PWmFiHJUlvTdAQumYCAAAEHbMhq+ErnT97TOXlm7Ty2P/oaKPR6kCnU75Jmn27tOAfpDU/NtToAgAAAEEtRFJTe08ufS722n8P+s+aQNwPgAA5cOCA1+P9+/e/wXeCriA0JEyhoZd/KSREIQrV5b9SAH80qbHRrcami2psvCSpSU1NfGMLIPgE5WbEAAAAANBZEbIAAAAAwKAOr8myTh0EELz4s4yOCA0NU2hImEJCwxQSEqoQhUghTBeEn5qarkwVvDpdsFFNTU26jpUNANAp8CQLAAAAAAwiZAEAAACAQdfVXRAAAInugggUugsC6Bp4kgUAAAAABhGyAAAAAMAgQhYAAAAAGETIAgAAAACDCFkAAAAAYBAhCwAAAAAMImQBAAAAgEGELAAAAAAwiJAFAAAAAAYRsgAAAADAIEIWAAAAABhEyAIAAAAAgwhZAAAAAGAQIQsAAAAADCJkAQAAAIBBhCwAAAAAV1dN0QAAAL9JREFUMIiQBQAAAAAGEbIAAAAAwCBCFgAAAAAYRMgCAAAAAIMIWQAAAABgECELAAAAAAwiZAEAAACAQYQsAAAAADCIkAUAAAAABhGyAAAAAMAgQhYAAAAAGETIAgAAAACDCFkAAAAAYBAhCwAAAAAMImQBAAAAgEGELAAAAAAwiJAFAAAAAAYRsgAAAADAIEIWAAAAABhEyAIAAAAAgwhZAAAAAGAQIQsAAAAADCJkAQAAAIBBhCwAAAAAMOj/AX9+eWOSaa2hAAAAAElFTkSuQmCC;" vertex="1" parent="JSBXhnSBdoEHyfM7yJ-U-25">
          <mxGeometry x="237.56" y="163.25" width="129.89" height="43.5" as="geometry" />
        </mxCell>
        <mxCell id="qx6QT4jI885-rkSV4hu6-5" style="edgeStyle=orthogonalEdgeStyle;rounded=0;orthogonalLoop=1;jettySize=auto;html=1;exitX=1;exitY=0.25;exitDx=0;exitDy=0;entryX=0;entryY=0.5;entryDx=0;entryDy=0;" edge="1" parent="1" source="xzAWG37LkjonEWlrzQVd-4" target="qx6QT4jI885-rkSV4hu6-4">
          <mxGeometry relative="1" as="geometry" />
        </mxCell>
        <mxCell id="xzAWG37LkjonEWlrzQVd-4" value="anonymous&lt;br&gt;실행 컨텍스트&lt;br&gt;Execution Context&lt;br&gt;&lt;br&gt;" style="rounded=0;whiteSpace=wrap;html=1;" parent="1" vertex="1">
          <mxGeometry x="40" y="360" width="200" height="70" as="geometry" />
        </mxCell>
        <mxCell id="qx6QT4jI885-rkSV4hu6-1" value="" style="shape=image;verticalLabelPosition=bottom;labelBackgroundColor=default;verticalAlign=top;aspect=fixed;imageAspect=0;image=data:image/png,iVBORw0KGgoAAAANSUhEUgAAA7gAAADnCAYAAAA0CfrkAAAgAElEQVR4nOzdeUCUdf7A8feMOEiACh5MiiiCKHig4YGJmqZih1eSv9IutTTXWmuz0i27zNrM3azNPDa1LLUtTcvMPDIPXPEgJRXyQBTJUBOUQ+Ka5/fHXM/gAAMMDOjntUsywzPf+c7MMzPP5/l+vp+vBlAQQgghajmtxg2t1viDRoMGLaBxdbdEnadgMBRiUIowGIoBBUUxuLpToo7RaOujrVcfjbY+Gk09NNp6aDRaV3dL1HnGzyPFYEAxFGEw5GMoLgBFwreyyDtPCCGEEEKIKlFMQYf5RwgnUcz/UWTXcpAEuEIIIYQQQlSRggKKAYlChLMopuBWUQymzBLZtxwhAa4QQgghhBBVYhzBVRRFNeImRNUp5swAxWA6ieLqHtV+EuAKIYQQQghRFeag1hyECOE0phFcSxq8KI+bqzsghBBCCCFE3WYuTqZBoxiMAa/UwBNVZgpqFYOkv1eABLhCCCGEEEJUgaIoaDCYSgFJoSnhPIp6Dq6kvztEUpSFEEIIIYSoEvP8W3WasgS6whnM+5Ui6e8OkgBXCCGEEEKIKjMXAzIFuYrBVCBIiIpSnzAx5wXIHFxHSYArhBBCCCGEEyjm/ykGVTAiQYmoGMvyQBhU6ckyB9dREuAKIYQQQgjhLOZ0UpsgV4iKsB29lf2oYiTAFUIIIYQQwhnMI2/mUTcUiU1EpZhHb2UHqjgJcIUQQgghhHASxbKsiyJzcEXlXFewTFSEBLhCCCGEEEI4jXkEtxiQeZOi4oyjt8UohmKZe1sJsg6uEEIIIYQQTmEedQMUDYpSD42ruyTqHkVBMRSjKEXGQFcC3AqRAFcIIYQQQggnMaYlF4OisRYJEqICzBkAiqFIlgeqBAlwhRBCCCGEcBrFEtwqGEwjuhpAg0Yj47miNOY529YKysbg1tX9qntkDq4QQgghhBBOZQ1UFPVyL0KUQlFX4DbP3TZdJypGRnCFEEIIIYRwNgXj6K1SDIBGU8+1/RG1nCm4NRWWUqS4VKXV+gD30LNNXd0FIYQQtYBW64ZW44ZG64ZGo0WDBiTdT1SVomBQijAYijAYjFVvFRltuym91+NLp7an0WiNn1daN7Smf5+NH+fU+xC1j+eTe+xen7uoT9k3VIoxFBcZC0sZrD+i4mp9gCuEEEIIIUTdY6qobChCQSMjuKJMxlR2U2EpQ7FpBFdUhgS4QgghhBBCOJtiXM9Ug7kqrsE40VIDyOJBwkJRpbObUpSR4LYq6lSA2+29P1zdBSGEEC6i1RjT/LRaN9Bo0KBFDhJF1SkYDIWmNOVizPPgxM3nkVXW31dMHOikVjU8uuwnNKbgpdu/LoDG+NklFZVvTMeftH/9bXbjGGsRMoOhEKU4H0Nxgap6skyVqIw6FeAKIYQQQghRdyiW0VtzkGscwJUTdMJcXNt0Uk0xzv+XE2xVJ8sECSGEEEIIUa2M1ZQVQ5GxqrIUMhOA8QRIMYqh0LRvSHDrDBLgCiGEEEIIUY0URUExFGEwFFgKCCmSgiosAa6xejIS4DqFpCgLIYQQQghRnRQFBQNKcREKWjTaehiDG42sdnbTUizpyQZDkbGCsiInPJxBAlwhhBBCCCGqlbVokLVSrhaNRmsMeCXKvamY59waDEVgKDbOv5XRfKeRFGUhhBBCCCGqkWL6r3GEzjQfVzHPuZTA5uZiXh+52LQfmPYBmZftNDKCK4QQQgghRDWzCXINxYAGtOYlzxSkqvLNwVwpWVGKLEXHJDXZuSTAFUIIIYQQoqYoBmOwawCNRoNi0ILWGNxKqvKNTLEUFjMWljL+IMGt00mKshBCCCGEEFXlCUsWwLoHy97MOIJnqpxrqqiMJVW5jGBHO4QZQ1Yyv2VopboX2vrfrL1jCuFy9O8SlqrZijFF2aAUSZp6NZERXCEIo8Vf32RU/yB8ii5xbNdy1i1Y6epOiZvNlI3MuS+o/O2y4lgw+jHOV3+PhBCi9hv0COtejMCr3A1TWDN4Pourqx+esOSf0L85cD98kQcPrC9tY2PBKUVjMK2JW4Ri0KDRKijUM1VVLjGSqx3CjMF/YYBeB34vM3fzm7xwMcnh7oW2/jdz+wWh0wbxZj94eddCEmRFmhpknnttsI7cGgw1MHrrQ89mjxAT3pMwXx90Hta/nNpxN385W8137yJyDkfc5PwJmP0pU4eF0aKhOx6+/nQfOYvJf+3v6o4JIYQQoo6Y84YpuDUJux0iy7uRYqymqxQXYTAUohiMI3nXr48byqR+puAWQOtDaMjttHK4d324v3MQOtNRv671MN7sN5HKjQOLilNMg7YGlOJClOIC44mNah619fJ4hPkjV/Lm3dF0bWkb3N7oJMAVlecRilen5wkav4y+r/2bJq7uT6WMJeo27+uuDegznmYu6I3j/PHoNIWOf/+CiZ8d4LUFb7q6Q0KI2qKZL31H382c96bz5fezmDPI1R2qXbwCmnPXQzG8+5+ZrN/8DJNd3SFR573yD4gJtF7OT4GnX4C4cm9pXjLIWmzIXEnXOrAXymO3v8Ho1jrLrQrOruWF2KWcc7iHe3hjy8ckZFiv0bUezSvhQxwY+RZVU3LebREGQ4Hp9a7GAFf3OHNHPEBYo+q7i9pMUpRFJQ2g9dTnCfMxX052ZWeqoCFuOjtXu0H9Gu9LBQx6k6kvRmJ5+nNd2RnhFAvv4aWF9v4wgWFrXyCyYU13SNRVk998hfst2e7ZVW7vztmzmdn7+hOBFXFq7TM8aXf/rmntmPneVHpZDvrOuLIzwhm2rWDUthV2/zR50fvEODDzoyr6j4eYENUVV2D+K7DT0QYUBUUDmIMfjQaNph4aTT3QaAkN+Auj23lat884wIJdS3E8Odmk4Gte2OzDgvtGE+xuvMq3619458o5pp6tcGvCQYppvq2xanKx5SSGUq1LArVi0u33Wl5nAPIzSYz/mjVntxNbkFlN91t7yAiuuMktIj4p/7prMxN3yRxHIYQQQpTKfyDMGwaWOKIQ1vwDllXopLO56JBphK+40DKa69n4dV7p3xbLefj8ZNZufpUfKjt3tmApL/5wgAzL7XUE93ueGbdUsj3hAPPIrfl1NVT/kkBu9xGlGvEnP5k1X4/jmZNrb4rgFiTAFTe9NI79/X02ncmmEMCQz8WjK1k8a5mrOyaEEEKI2soT5jwE6uSaQ5/DSycq05g1VdlgDoQ0g5kR1R1frfHvkEvCjzNYUlC1budceZUlh1VBjlbPgP7P06NqzQq7FEtRKYPpxIVD1bKr6tZg9KqL6fFzq7zf1DWSoixEzjJin1hGrKv7IYQQtdC+//yb59fbm8sRwdPvDCDAfPFqAsvf2kqinS2zU6uvf0K4woSnILKx9XL+UZi+oSotKiiAxpTKOjBsHN0bF6EYtGg0WnKSVvPGJefMR/rpyHx6+b/OAHNRrOYDeCr4Ox49JanKzmAcoTWo5lerUpNrYDmgqMa+qkvpJKY5Plv7RiEBrhBCCCFKlZN6kUN2A9RQbAcFikiPT+NQjfRKCBcKgXG9VJcLYeU7kFbVdhVTmFv/rzzaxRvFUAhaN8j/lTXxX5NT1fYtDvCPnT8ROnoAelMup77HX5h05mmWFDntTuqQUHzHv0GrU/NJ2L3HCe0pxorJirl4mHHkVqEmlgUCnVZ9QjKXjLxqv8taR1KUhRBCCCGEcNCLE8BfdTltB7zjlMFVBbiFByP64acptoz+pR9czKpig3MLE137iG9/VXVaF0R0xzuc03adEorv+LfpFexJi6EvcfsDj+BW6ehIURWVKrYZvVWUmgluhdGNMYKr60HD3vfRunMwTZp44qE6cWEoKCA/L4PLJ5I4d+hrrpytQLVfbSs8uj5O69vD0JdoN/9aLlmpiZzd9x2XThxwqDmPe7/ijt6mSniZB9gx71WMJ1U8cWv7OK2H9KSVn4/lfgyFBWSmJ5G25QvOn05wvN8l+t+qZzAtmnjifovO5oxGUV4BhUouV1LTyUz9H+k713J9uaUBtJ6urpZcmiB6zvm+/D6d+ppNyz+uyKNwIser0Z7+ugNLK1Tx800mbo2hrb3bNx1H92lj6RXmT7OG7pbqzIVZf3A6cQfb3n+Z83+U0uygT5iurpZcmqAY5myNKbeXFXpcTWMIeSyGAT1CubWxO/XNO48hn+yLaRxP2MKOT94ns7S+l2TzWPI5uCicdWvNf/THZ+QL3DGsNx313tb3WkE2588cY9/auRzcbifxsc08Jv/nXmuKJPkc/CCcdRVJE5uykTn3qcps/rGT+Q9O5lJZtwmIIWTkvXQN70hIcx0eDVSlCgvyyc6oxPMjahEPeo0eQszQMNrpm+DlUeKrsiCPguIiMtLT+T0lke2rf2JTSkXadyNgaF8mD4ukY4Bt+wV5l0k/dYZ9m9ez8ofsMkdsJi+er6qWXBpves2Yz7YZ5Wx2NZ63R3/Gjw4+AmeyeRzJGxk0eavpggd3Torh/n4hBDTzRlfPdHVBNukpJ9i9dg2Lt5c2NNGOOWvV1ZJL04aYrfO5TynCYD4YxU4RmOSNDH5yi4OPyIOeo4dw/93hhOmboLMcOxRSkJVB+sljbPp6C2v2OzisMugR1r0YYVrO5RqHF83kectnpxvdRt7D2GEl7qsgi/QzJ4ld+1Upz1E4766bQFfVGjGpG2Yx8YMsBx9jyX4BBSdY9X8LWF7WTtu0CUOHDuDO/iEE633xaqBar8BQSMGVCySfiOf7/+zih9RaOpTYCoaoqybnwhpnVgh3e5SBQfVNARGQ8wtfHj+CojVWVYZ6aDQAmireUS5rE2IZ3iHaMorrFTaMx47s4JPKFrGqg7SdHqdjW+sBfqPOD9DPpxX7l84hp4LzVhVTtWSDedknVWqyqFl1O8DVhtPw7mnc1kuPRylnW7Q6HR46Pf499Pj36EniR/dz9rfyGvbBo/cb3HZ3EA1Ladf9Fk+adehBsw49MGQm8/PKV7j0eyUqk+mG4f/4RDq21F03nK6tr6NJq3CaTAwn8OgX7Fu9Asc+7j1x7/kPug8rvf8Abh463NDh0cGHWzvoyLEb4IrK88dn4gdMHBOGj53XoX7DprSPjKH9bXew44MH2Lq5yslNThJGi+nv8sjgILzt7T9ad7z1QXTXT6H74Ic4vnE+qz5Y6eC+aeaOr3nuT9cXGPXiBLo3tbOZzpsWIZGMmrmaXpHvs+CtEsW/zswnPvleAiwH+e607zMFNjh6tBFJVHfbCCF17/JSglt/PKKfYdhDgwnXu9vdwthn1fMTPYHTm+fy6byKPj/CVcLGPMzfH45A71HGRjoPdIA+0Bt9oJ6C/Y4HuF5dI3n1xRi6NbP/9avzaEJA5yYEdI5gxIPxrHxvNSsP33x7j1fXAbw1a4T9NRx13ujbR3D/38PpG7mUJ99KcmLqZtX4DhzBnKcHEmx3cdH66Br6ERDhx+SIgYw7sYV/v7qR7RU6CXYLXqbPTvO+1LWpnUXtdA3Rh0QQM7MLUZHLmPJWYonnKIFNR7PoqjrjGxDelwA24uh06eGDQm3WUM05EltqcOvbM4qnn4gmqk0ZZ5i19dH5+hMa6U9o5AjGx6/mH2/Gcai2vLgmMf9nO3r7RwI4M77t2b4PARpMKa0KGYn/5RtDARrFDY3WDY1Wi4IGjUahykFuwcf8dHoADwabAjxdKH0CW/FJ8s0zZ9Nw9Dl2X3uJbmP7WD733f37cPv0xfyy9G+kX3B0aN5UCdtQbF3X2FBkSkuutu6LUtTdFGXvR+gw/W369C49uK0UbTjNHl5Ov3vLDg5tbuITRPe/LKdjj9CK3ZffNLq+MIXOdoLbkhp2eoAe0QMcaNQTj3uXcMcIx/svqkN/QuatY/oD9oNbG7qm3PHXxYS3qZGOlaM/3ResZmp0KcFtSVpv2g+bxfQPZlGZVTK9x3zBtHdKCW5tuNNiwDQeeSKyxPVpHNybaKyAbW6zY3/LSHq52sTQMUB9RTLxy+JK2fhJxk6/t+zg9jrutI2exTOzJ1TgNsJVwqY8w7xJ5QS3VeA19AGWvfNAqcFtSbqWEYx/63lmDq3b56IrKmzMeJbNKyW4teGGfuBE5k2q2hq9zhI25Rk+m1lacHs9r5AhzPzPVMZX8NABIGzMBJa+86D94NZGffQDJvDuE9cHlts3JpKhviIgnPsd/h4Kp2979doyWSRuKy3TrB3PvXh/2cGtHb4RD/LmvCGEVehW1S8m3Pby3v86s/VhxHTwwbJ0kOEssb/usw2alCLjmrmKM1KWc/kkyfYEUUDIA4SXuv0N6vQcDi34gpSr1qvqebai21NLCOxQ9htUUVSVki2vUcm0ZIlwa1rd/Nb0fpyO0+4joMRBiCHzHKd+OcClIwe49qfxugYt++DRohX6kGCa+ZXXcChNHn2d7sG21SLzLiRxKvZ/XE45RSHQoOUdNOnRk5C2PtY8fa2OgOEvk5M+ibPnHDjb4xnGbU940tD8GAwFXDq6h1NxW8jJ8uKWDkNo3bcH/qov+MZRD6Df9RPpZWU1dXqD3r19bALmnN+TST2SQOYJ6/NCw1B8Wvji7hdK0zat8G1SWoP7SVsyk9/qlbw+lNZPPEKIpX/nSJj3ERfLe9xFriyluYVtr14i1l58MmAa06P97fyhcpoNmcejXqqDrqxk4nZuIX7PafL8utJ9cDS9OjXFsgvrgrjrySkkzChxHjhuEYtnrL3+jRoyjskTulqDytQtzPtoa8mtrlN0tqy/+tPxgw8YFaJ6gv78g4SdX/HTl2u5lJoGXpF49xtM5D3DuSPE+vi8Q8cx+bXfmPea48srNQjfyLSgIOtzYMjnfGIcO7Z+x/kL4H3bOIYN70qLBuYN3Gl/9zO0/c8DnFY39OlWEkaG0d18UNmgK5GP+nP60/JHxH3GRqKObwuT4jjo4GhBYUYaiScSOXs8iRNJpvvy60p470i69wyyObHhEzmFYYOWsWGbY20LF+gdw99Ht8Hm0z8jjUOHEzl8+BcSL5iu8/KjZ2c/vPz86RjYCn0zx9tfND0SdW3LnJR4Nq3byFffZ5AB+LZvx53RUYwYHG4NsnV+3PnXp8g4Pp/FJUaJv/rXPPbbCaYGTp3OXZYdO5tDSxezqrylSwquctLBh1Kt/Aby1iQP68hgcTap+/eyadsvnMrxJSw6khFRYfhaXig3gu+OYcSS5Xxj01AKi1+bx5rrij/7M/bvD9DN8t2Vxg8zVrPVUIRBKTSlKCvXH5RmXy6z214PTeXd+wJV+881Mo7G8dXan/ghNosc3Ajo1JGo4VHc3z8EL/Png1cIY197kLP/t5rtDj5FXuHP8G6Q6r4M10hPjGfT1jiSLoDfbUMYNzwcveWzsz7Bd8cw/D/L+FbdUNxGYlMjGW7ZV/zo+bA/zHYgm+ihKMLU+94fiXzj6OdbzgVSj5/gcHIKh36+QC6Apx89o7oT1SMMvapdXdAQnp4Sx5SFFUidrk79IchTdTkF5jtzsLNRd9sTJKkHWF5kqsgLYDD+ptG4odHWQ6PVoChVHM3N2ENyTjjh5vttHspdHpBwsxUmylzBr/OSuTL+ebq01VEPQOtDh4ffpvFPH3FoW8kpCorpY8JgDWjNacmW5YCEq9TBADcU/bgSwa0hl9QN8zm2//rKZzmZCeQchUtbAG3ZMxnrdfsL4erg1pDJiS/mknzM9qykuc2zPo/Q4YkHCDR/UWp9CPu/F7homVtbBp2nde20vHMkLJ3BeVWKc9bePRzZF03O36bRwdxtbSv0t7UifU9pn6at0PcOtS44TgGp62dy7ICdsu+ZCVwyBTtlf5XlUpxl76ysL0U2790C8jMTankaZhp5R9PsvzY9n3TqPXmrgtvMhGUsfW0umZbAaQNbv59N3NRtPDfS3zIn17t9f9qy0DZ4y4kjO97OHfiMtn2uC7PIjK/S+gTw0AeMClUFtxlxLJ36GKfV6XM5cWR/H2fs/5gvmPxEV8v8YJ8+Y4lqs4zYM47dXYsga2pwXvpOVj072ea+MuM3sCD2TSbOi8EyPcYrlPBhcNrmoS4k4fiTdI+w9j0kYjx8OrucHsTQvbN66DifhK3l3MaQzen9m9n6n0Wkptp752xgx/eww2sCw5a+QKQlmvEmYvgLbNg2t5w+1UWetOoYrAo4qiAnlYSTrlmEfsTICJt1AzP2LmbCLHupr2kc2lnR1v2ZOTVK1X4Rp9bPZfqHF23azzh+kq+On+SrZW147oOnuCvA9BWta8NdT3Zh8Yu/2LSacTzNdgTOpGeh7eWCS2kcsvc5Uht5qYLbjASWv/WZKkU7jUPxv7AydDDL/nkPAZbPhRCihsM3NtFbEalH0uyk23pgW62giJz4NA4bCjEoRRgMxZjXrnS8z1G89WCIKrjNYv8Hb/HSBvW3TRGpRxNYdTSBVesiefe1B+lq/nzwjWTcXzey3cH5r/qgQMvvBelxLH52Nd+qP6fjl/FD7BAWzrsHyyGNVzv6DoNvbT47s/gmIY3hAdaTu75hfenJavaX2QM3xvcMtDkZlLp3Y9m3KTIF/KtLm3ucxqFd8SymCZMXzSQmyPzNWJ/g24fQbeGaWlGde9httuvepp1yQuVkla4tWtmkfaf/tpkc88kWRQGNgqIUo9Ea0Gp0aBQtaLSmILey9/od+1IfJzzM/IrqCdJ7QopzliSqPE+0DYPRXjfAUglFqRRlO/DdYthD+tIMro18mcgePsYgFx36Ac9we1M9+79cYTn2NU6rVVSBrWnk1mD8kVFb16p7AW6Xx+ncSnXZkMmvy58i5bQjO25Z2wwjIDrINjj89k2Sj5WxJljmCn5d6EX9v92Lv/lzwSec1l08+fUXBz8Y8pLZ//7TXM6219/NpO69j5C7W1lGZJsF9IE9X5TSWB8at1BdvJrAaXvBragxmXFzmTfL/qhm9oK1JAyaZh159PInKAJOu+RANIbB94RZR1ML0vj2tRLBbQnZXz7Aqs4HmBppDub9iXg4htjZayp0z5kJy1g8fS723gIkvcymn6NV9+FO8+BIwDaN+PT6OC5G9Mc8rbd+aCTdvSh7NDZyMGHq+DYniYQyzxEsYunol3Fosl/OMja814u2s1V9ahlGC+C8AzevW3ow8aXpdK9Y9qF9p9dx71+XOqGhivInrKX6rGkau99x3rxOr8dG0FcVPefsX3pdcGsj5wz/nL2ZdgusAYpX576M9/ql7AI+N5KMeP454TM22Xu8SVv55shAno4wv2Ye3NrJH751TR2Dns8OJFRVSCp1/fwSwW0JSXE8/58QmwJNAb3voecH5QWWtjISVvP69Di76w6TtIWvfu7LTMsc21vQBzcEbIPo1GV7SYq+39r/pmGMGAT7yxqN9YqkW5A6NTqNw9+WFZyn8PbEmeQ4tO9eZvH09XT8r6pPen96Qq0IcPu3tr2cdtiZrXsSpVefZsvk1AX1gIaCggGNorUEVQZAo6mHRqNFqULxqc0XzzEpzHrSWX/rvZDi1NzrSuiB/6QX6FhulU0HnFrLpuWOfrckkbV+EtvPvEHP0aE0Mh2AN+r8AAP1Qez56BVy8hVrmrg5fdw8iosB1wa3noT5qtIMsjMcnld/I6ljszR74D8w1CYqv7LvY8eC2/J0uoNgVUap4dxPHHckOMz+iBN71fevo1Wn0Y7dpyGTxE9n2A9uTYoTT6FOjHK7xbfUbcGLeupTqh5euNexV/hGkpe8hsWlBLdGCzlhMxjvToNy56JWk2ExRKjuO/vIWvY5sPufX7rX5oOzecjg8is+q2QeeJ/5pQW35vs4b5v47u1rZ0ZW3HckpquvCCJiQsn5urZa3HObJfgEuPjzGtvR8+ukORbcWvq0j9PqY76GzWhR6sbCtTzw8rC97NvZWW17M75fO9VoVxo//seB4DllKz8mqoIkXSDdRjqrT7VcwRm+erWU4NbkmyNpNmvwenm5ah5uOPffpprjk5PINwvKTmcGYNt6YtVnu5q2484Ix+8148AyppQW3JpsP2/bDy9fO/O0cmKJS1YP+TckbFDZMzC9Hu6uCuihIGkvy8vM3ClyMLi19umYzXdjEwIGVeD21ahZY9WFQkjc68zWo9Crv0AL0jlZ8ryBgjGAMhiMAW5xAYqh0Fipl8rPyc3JSLfJBtE1Crj55uHayKXo8HP8b4lqWqAC9Zp2p8/0Rfg1b4DB9PwbDIXWCuyK4vKBW6+Gz9BTNRCYk3qQH1zXHZepW+GPzx22850Kkkj6/ienNO3VPkgVOBdw9n8fO5xum797P7+rLrsF2lYWtK+AtA1vlj9fNzPTNqXWx4/S658cIPOC6qIulI7/V5X1vESlZcWxYvrLZQZuAJlX1Vt409zh6kjO1bZ/qKpIVDbHtjlYE/LMYc6rv4D1/jZzWst0fguL/76w/PfZyUuUfwprA7EHbEdvAsJjynivTKFXJ/UBcRrxn1Vs5FncSE6SeF69Jzah19QHGOHo/NqyBA6kl/pNkZzAcgcrLn+VrP5Ad0Mf3M4JHartstn3wYcsLu8EW3qWbYDbxHk1FCpkdITNXNSco7tt57mWKotDqeoPzyYE3ObgfZ7fzut/T7Cbnm7jZIZD5+RWbbWtsOzVPoLhpW7dkPHdA1WXr5G4M7bWVLGubs3UmSq5zk1Phlb4qr+WcjK4fkKaqVKveSma4kIMxca548Y5n8r1S1w5Its2wMXLl+CKt3LjOfcuh97/mF8vgXEEXUHr4U+3qYtoG9LO+NwXF6IoRablgFw1eutJQIM+jG73b1YM74PePIifn8wPv1Rx+lodVbdSlNsFoz7eMKQmccUpc7j70KS1eugzgysnKzD3IO8XMjOjudV85u0WP7w8IKfMibiFZP3m7PThBC4eSscwVG85c9Gw0wPc2TaalNivObv/B/LzXD2n4iZxKY3UOvONP4wgP3XlrYv87nAxpGX8fukF1aSk5rToBwm7HLhpXla5JwAA2PYY8xzoT96ynRyLHkdH88S4mNoAACAASURBVFs5IJKoCNhqL+V7dH862hTyOEy8g3OHRUk7eG3sDld3osq+2XGM+0PDLScndfpInv68IyP2b+erz+PYdLySFVf6+NsWlrp4xvFg4ORlcmhj6ZNvM3+oHaWgqtFlUn+o3dUc1Lq197eZi5p+3vHXZ/v5y8xUzej0bdkOh17fvLwyR24ttq1g1LYV5W+3YQuHx4YTZc7i8Qpj0EPw7ed2tm0zgJ7qEzY5J9m91s52N6Le2ByDkgkrndl+Qz+bzwqyLxBb6sbGkULFtJyQwVCIgoJGo0WjMa2Xq9Gi0WhwLGU5mcyrgLmmzC1elFp7tMbsIHXeDpen1ypZazg9/wTZY1+la3s3tIoBRfGi3bg38fppEYe2bHDZqO3A8K+Y0dXT/h/z0tm+ZQZLKriW742iTgW4Hs1t03MvnzvgpJZb4aE+a3b1HFcrdCzzEzmXn8eam+mNuy9Q7nq7zle0+10OBr9NT1WxLO0tPgQNmUjQkInkXzrH2cSfuLB3MzmOTLgXN4G2eKnTrghi1NZfGVXJ1tycUWyoMnKWcyx5HB0tFf2bEnZ3DFvjrx+Z7di/q83o7rFd88svDGfhj0fUaLpE96drSBDNvNzxcNVjFk6Ts/YzFndty3O9VV8G9bwJ6D2C53qP4LmcC5w6ksCPm3ezKTbb4SA1oHlDmwDIq/dUtlW2mrZbnfrKvikE+drmiQTf9z5b76tcWzpnFNOplDQ2JV4mqp85pKlPUM8ovD6/fmS229hw22JsP29xcMTayDcknKExEdwZGoi+sQe6BuUtc1SLVPfnvEZXwbswp8MWoxiMc0G12nooWjfjvFxtPaCeKcgVlWNe2/ZnLqx4mNhBc+nRtynuigFF0aLv9yS3+zZm338/LVF41YWy0zl1fCMfJq0lsbb0yQXq1Lelu7ftB2He1dLWXKuoEnNX6/QOkcTl5TPZc+/z3Nbr+jWC3Zu1IqT/I4T0f4Si7HTO7vwvyfs2U1ynH7Oommb4Nih/q9ovjYSth7kr1Lp8UvOwwTRjDZfUm3nNIjxIdfnPw8Q5sKQQAF1nMWbmOMLLmgov6qgiNs16nZynJvPcsHZ4lQw2vPwI7j2E4N5DmFxwmdS9P7F4USz7LtltzKKdzy1lbyDqtCZeN8bru/+zeFL7DbFMMdEFhXO/V2yJomb+DO+sHte7wP7PHPzsbBrOq+88QFTAjfF81R6Kat5nsXEJIQCNcUhRo9WoBhc1lS5CdXNRLBWSAWtlZOUaBbnXKC4qwqAxWLZ1+aTbkrz1BHefyPyO97B/x7u8fPHmLDZbp2Zn1msgwySOSSLruwns+NdCEn5JJ6eU4NXNW0/QvdMYNHMZrctZyFqIOmHDFo6pp7U1jSRqWIltRncjRPVRkn1sZznFpUyiP2HaOxLc3tiK2P3hAkY+tICv9p4ho7iUzXRNCOgfw5zPZ7PoqTYO1FwQopY7s5n9yarLuhCiJpQojR7Z17byfGoCXzkytSN0CAuXT5Dgtiaoq/oaCjEU55sKURWBUmSs+ivrs5ZCsTw/iqJ6/gwFKIYgvId/RP/olnhozAFtPuk7F7Jn9QqXjd5uT7ifIZ/ezZBPx/GXdUvZdDyTAnP3PPT0HPo8M27St12dGsHNzypAnSOi1XgC1TCntE6F/WXI3MD5/27g/H99qNc6mlu7DaBV11Y0LpERpL1FT9i4t/H4+ml+PeTMFctFXWG7bGYy6wbfw0EX9aVqlhF3eAKR/cxHYe607zMFNpiLZkUS1S8M61vgD+LXO1BQy+sFxv41kubqzwZDNsd3fsuOb7eSejTOzo0mMGztC0Q6Y/mcWu0OXltV15cJKuHSSRbPms9i3AiICmdEdCS9OrdDXzKSredN8MhnWOazgDGz7c+dLCgRJOfsXcDIWTf6PNqbSInX99TX05jiYI2+2qWIlXtPMDzIup5vQHhfAthomQM5fGQX1RzRQpJ2bXZgfqQ/M/9+D8E2WULXSI+P5Zvv49i+67LdYlmTF71PTJCdP4gyGQtMFYGiMa6Xq9EalxAypy1rQKOtKwe5dxAwveaWCbKua2s6SaAYKyNT/x5aPjGezi3djNcDGDI4sfJNkn+tLaOjmZzKWst7cWvZ/Pu/mXtHkPF9rNET1fUB+F9py4veuOrKXg5AYY5tMNtQH+WklpPJUU9HbaTHq0LPTDQNbapfpZPjgvm3pcuk+OwXpK2fzN7X7mfLoq9JPJVrm4mt1REY/RcZibgpnSbTZikCd+rV4R3h0mdxNgdd3h37YylO3SaGjuoCKenHOGgvNi3BY8IQa/EqgIJk1j3TgxVvzS4luBU3hiJSY+P596wFPDTyGcb8/TM2HblMyZodvv1H8HSg3QbYfaHEkjH16tR5ZVGOkxm267jotHX39c35NJZEdUpyQDj3tzFfCKdve9VQUEEKcZ86UAxs2BB6qiftksX+ebN4eMZG1pQS3NZaB0usIuwD45zZfvYF2+fD24+KH+Vaqyxb1so1FJlGdItMQZv5p1g1Yulnu1TaDb92qjG12/L4LQFtiZ9mT9HpuUl0alHPNPKtYLiWyqEPJ9Wi4NZW4tkV7Fd97ehahuPg4qU3lDoV4OZfzLAJyhq27Y57qVtXxH6u2dRb8qOJnaU2S+XThSaNVJcvpXLVKf2qDrkUn/uYs8vvZ/PSA7ZVqL1D8ZO68DehZaTarCHrT1BdXm/zzBqOqb+ZG3Ql8iHjrx6jutosY5R6YLkDSxBBxzDbJUhSN8/mYO38bhPVKGN/PP98djZjpm/klE2U60+vUaWsw5pou/yGV0BHulVjH0XN2p5qewJD377s9bdrtwR2H7+muuxH17Gmz76SyyEdiWWVAy0O7Bloc+I8J34NL22uO1WybeRCljrdqTFU5FCxXIYMctSfKz76qrWvmEZ0FYMqZbnA9GNOvS0yLm3j1hwfnWouaVYGx6py37WccaTbYHpuCjEYClTPjXFt4Xohb9Jz6iD8PazPi+HSAfa8O5n0C7V5RZIDHLug2pFqRUXsmle3TjX+msQFQxC3msPyZl3xD/Yk+VRVd7RcMs+mQ1vzaUYdrXo8zsmjH5fMPrLLo09Pm9Lxl3/d4fAaui51+lWOHF5P39vMQ1M6GjicCnKK/BxUlaM9qe8BFShFK6rilHGJHcvT79GQqjz9qb/9ASHWyVUhPWfB57Or1keXiSN2VyKDHrKmIof0fAE+30VEV1WgWpBI3DJHRl8ncKvN2hDZnE+UUVurAyyd8xLrnFEiIadujBnkHN7KW9u6s+xuP8t1Xj56sLfw1c400l8EX/Pzow9leG84tLf6+peRnQeWOuFu6BqVtfXNJp2MHKzLoeCBVxtwbCK+HT+nkT4m0FJZWBcUzvjrijPVHd+u/4VxEZGWVGR9aCTdWENQ73aqCWKXObzesSKf7ZrZzl1IP+vI7dxcWFG6bGl/QNit1sv+/YGdzmp9D2cvPUJYS9NFjZ6ARlD5ERNzkSTTqK6mGA0aFI0G0KLVuoFWAW09NE1tlzMruHrOzhq8Ne0AaUtmct4Z+0KRne8WRbGMchtHt82j2Y3wGjyPXv316Exr3wJkHf2Cff913XzbisgsKKT6y37XbnUrwM3bQHrqvdxqSZnxJHj4C5yf/yp5VdzhiuKTSO+vR28Knt2Co2kTvLr84LnV63TtpVqDynCO1N3OWr6o+hUXlngTOByZn+PPqwXQynLUhr57KOm7ZVirRpxJI1s9Jb1FGBGhEFvJpz9z8zEuDuhPc9Pl+qExTJyyi6ULnfbNXbM+jePEmDBLWnH9wNto28afji2smxQmHyLBoYPQfIps3hc63MoLGJpOYfB7T94E828Bcjl3LKEWHAzVrIwC25nrJefaWsWyL3kkYaHmr9sm9H32Ye468hmbqikIOpVxDWuA60G73hF4rY13fP3dG1o26VlF0NL8evjRdZQv/PNC5ZqLjyMxvS96S4QbQsy8Iex7cotja9XWNnG7OZweyUDz49GHMLBNBHp1evIfJ9nk6Dm+Eu8LrwYNKZHoW2IDP8a/9QzD25S+iSsdSoMh6gA3DCcGuOdIuJTLXS3Nx5SeBDRvBVed8emqWFcVQkFjrhRsMKbp3tnkVtyKC1A0WkDD2fTvUZRijBWXXVV9ORdDVkKVFjYxjtSafhR1wG+wpnGbfjAYUDS90U+YTnhbHVpLdeQC0n9ayKFtm6v4eERNqlMpynCO9O8PcEV1jbZJD/pN/ydNfEpZ6NiGZ+mPOPMjUhILbLYNeXQJrduWMaR56zS6PtqDxqo2r+z7gnRXjWJ698Ddw5HnwcTnL7Ttot4+nUxHKiKaZKdesPngubX/M+j9yrl/nTOqBQjYdV1a8R3TP6BZmXNnw3BrWsqf4mezLSlfdYU7be+bxyN/Hef4WbCmYbXojNlc4o6oHk+DUCKnhanSk/NJ2OroCPVKzv+hvuxO+NB52E9IDaPFE18w9dNp3KF3zgQKUQMCm9O3vUf525k168LMfuq09SLST5VeOGrlqjhs3q6+ETy96GHGdXX0HeOGbzPH312HjqbZBLNeXUfy6piyy397NfO4aWow7D5p82qgHzSB56LKXo/Vt2lp+0ca/958wmZeti7oHuYsuIeBpX3eXscDX4e3rW5prDygXvrHj67TutsUiUrdu5H9DrZ27JJtMKuPGslQuzuaG91GjmDhZ39nbGjtLfu67Ciovyn9O4Ezk9K3nz9lsy/pW99nM62m6syBroJiMJjm54Zze4v6porL+RiKkkk8d8UyRxcMqkCxrlCsfTbNsTUYiowpyAZrmrZiKDSmaRsMKN6jCJz2Et3a6qyhgiGTXz+bKcFtHVR7jkcd9dtcDu9dQr/ePpYdUNsolJ7TvyLn9yRS4g9w5dck/jT9rUHLPni0aEXztgH4tdSRvOh+ztotAJXLle++IzXoPgLM32NaH8ImriTg9yRS/vc/LqecohBo0PIOmvSIokOwp028bLh8gMPf/1RND9wBHR5h4MggDAUFZF44x+XTSWRlZ5Cnej5Aj1eHDjQK7klgiI/NOrn5R7dw3pEJiSbFPx8gbVArAsyjiB6t6PbUSi4d3UPKof9x9VIO4MUtgeE0DAhH36EVTS58zeblHzvl4VZYwBB8mpUSdHjaXu/mOQyfCDvb5V8is1YUFYoj/mAygwKCLGm4HgFDeGZ1LAl7d3A4dh+XcgHPtgR1DqNV1460D2jKpfUdWGq3wmcaxxZu4PS8GNpaBvS9aT9sFq8PmMLxoz+TeHgfyWfMBysNaXZbN3waNaV1oD+3BvjTvEHtqr58en0cFyPMo9LudOykCkiyDrFvg+NtJexPZFSINeW5fpt7mba6Lfs2buVgUhr4dSW8dyQdOwXRolJRQhjeEUGlfCA3LXF9A3wihtlNRy86u4HsP+z8QZQtKJrnZkTwanEROZfSSU05yckLWaQfOckpS6ToQXBEO4KDwujV1d92ndz0OFZ+Xkb7e9ezcm84z/W2nhbR6SMYPy+cEanHOPTzSQ7vPWMNgv3aENW2IV6tAmnXUo++mTcF+ytQffnbWI49Gk4vS6aBN90mvcL6wfHs3pnA9iTjrGB9aBfC2vvTsX0IAfUSeHv0Z/xopzmvgOa0a2Yv3e2WEklwbugj/O3OMc5OTeNUOWsG15TUDQmcGupPsGV2jj9DX5tN94R9bNv9M/vO5ILSgKDb2tEuKIyw9n7oL2xh8JNb7LaX8/kXfBs1k5gga5DsFTKEmSujGH8qicOHj7Hv5wuWNR8824TQTe+NPtgffYtAAnzr16rqy6nL9pIUfT+hpudH30k9EzSF/cvKGIEtIfaHRDL6WFOeaRjBc5/60nfnbjbtuUCupx89o8LpGR5GgG/ZJxnscyOgk54mpXy1e9k0WR+vUvbP/EvpJKY6kMK2AZIfgjBzu7fCuFYQ56wUlksJnCoIJ8y8b7YMZ7QbvOfUeW/mILfY+O8tA+ngk4+hSINGWw9N2gHWFxShaOqh0SooGKsvK4p5JLf2s6xjaym2VWwZsUWxFtcyj+rS9iW6je2DXj3f9to5Ej7+Wy2fbytKU/cCXHLJ++5N9rq/TO/bfGwCTK9bQ+l8byjcW/pty5T9Mcc+9UH36AD0qpO1XreG0nl02evEGi4lsHdp1VOlnUGr09GkVRBNWplq7Jf6fFgZLu1h738rWEY872OOfx+O38gga7EvrY5mXQbQrMsA+7epZBaYM7R4Yg5TI0spBFNCQPS7TI+284esOBaMjuO8c7tWKXkL5/Jd+AeMClJ9szdoSviAGMIHxNi9TZnHl0kvs/SDZkz9a39aqI9avZrSPnII7SOHOKPbNSduK4l/9Ke5nZGRi4e/q9hr+Ol37Ls7jCjVIJhH0zDueDSMO0q7TU4isWdaEdXJkX1uLGP+EWOt9lyWhl0Z+4+udv90+usNpZzAEA6p54aX3p8wvb+xuIsjxdbyzvDVnDXsK3OjIjbNeg/9v59nXKh6JNAN34Bw7gwI585y7qtk5eayneTt/8SzbHqEzbw6r8AI7gqM4C57Nyljnl+vJ55mZm8H9uNG4Yx/J9zun06tfYYna8u+mbKVDzZ0ZN7oNqoA3QPfzlHc37E3MZYRK5Uyv7sus3j6MnwXTmCgXhVRaW9BHxLB0JAIho5x6iOoXjlxHEoeSWjo9QFnQdJBVlYk1z1uI9tPRBATomqrYSA9hwXSs+Qa5ZY7uUDskUKiIvxL2UAtkMmvP0VPh6aD+DP0H88z1M5fcuI+ZJSDJ5C2JEKYaje/7f+AeQ7d1AFf8OPJ0YR1NGfD6enVvgccq76pb8PDwi2fE4pi4NTJ5Zw1FKHRGFAUDWi0aFD/a4pyNRrjZTSq7GWN5V/npTWbU4utv1vzrY2jtIplA+sItTXAtQaz5hFpFEu+NvW6/JO+94faDvj8tof9H8+xLfol6pQ6lqJslkTW2kn8uOoA6dfK37pCzr3LofeXkvhbgWN5/4YC0veu4McPZpJlp75IrWfI5fe9K/jxgzmVCs6LDsxgzzfJZNWCwP7ms5OD0+fy7Qkn7nibJ7Ng+jLiUvPL37YkQ8n1dF1tDbF70+xcn0b8Z2sq2NYyNr22jIMOjY7mczF+JfMevo+4S5V4HkUdUUTG8S28PWE+ix2a+57B8qdn8fr6k2Q4Ur2whIIKHmjl/PAZry2Jd92UmVouceGHvL3+JDmVeC3syknk7YffZnFcGjmV+T6sVQfSRSzfmmhnzvY1ErfGVnAudxaLX/yQH844drCWc2Y7/370LV4/eq12PSUqCzeC+qugaQ94sQKzw8qzIfGwTeV1384P8GB1Ha27Pc7Qdp7WYDEvkd2pWablhQqtFZeL8zEU/2n5XTEUohQXGlOcTevFKgZjVWJL0GkTkFaWsR3bubQGFINxNNZgSj029qVEf4v+pLg431QVuchUMdo8emtNuS7+5WOOnLbubVlHv2DXIglu67o6OIJrlkvRsVc5dMwH95AH0ffqjn+AL7c00OGmPgtzrYD8qxe4dCaRiwlfc8WR9Wmz13L2o7WcbTKaFn2H4N/Rj0aqdg2FBeRfucC5xJ84v3sDeXm1JH0hYT6786JpHByKj7+eJo3qQ30dHiVOwuZfKyDncjIX9m8h7ehmiqv0Js4lf//T7Dk8gMZ3DKFNWCiNG9veZ1FeAVf/SOZCwv9Ij19blTsTJeWsZN/UlcQPnMWAIf0J69gMnwbuqF/yvD+zuXTqGIdjv8Ohpz9pLhsmzmVTyBS6PjyYiJAgmnm541EiQzHvz3yyL6aRmpzEicMbOP79zlpXPTxvWRynh5UYGU09THwF5ppbJM1l3YPfseOhaQyLvo2A5t7WM76GfPKuXOJYwk7iP19OaqopsM68CtSayXWiNHHr+efCNHp2bUe7ln4ENLsF6nmgK5mVm5dHztXLnDz8E99+mcBuR1IabRSx+8MF7P7Em77RAxk+NIx2+iZ4eZT4Ki7IoyAvi/TUNI4lJbL/h8rcFyR++RkPfb+ZEROiuatnCAG+3raPqSCPnIzLnEyMY/vncXbTk29cptfiv+0Y+0QUA7oE0ty7PvXVA05/XiPj4hlOJRzkm1XxDrR5mTWz3mVN0yYMHXUPd0e2Iah5Q3QNSnwJ/3mNgmsZpKakkHj0JJt+SOBUbZtasGE3iY+F246M5pxkdwWmdlhvd4Z/PjGLr6KjeXpMBGH6Jqr9sJCCrAxSExP4ccN21uw3nZFJz0ZdR7FWOQg7UiDGvPZ1fRg+Cd55z0ntX1vB9rM9iGltevTuodzVvgerk5w/ijuwY7QpVd84opmesIpVxaYzNKrYVEGDRmOswKzRaFHQotFowfJjHMk1pjFrTKO75jJNVRnFtY7UKpZCUYq1UJQp4LWs/Wta+sd42dF5w0lcXj6T/ePfoNWp+RzevacK/RW1hYZaPmv80LPWg8Nu79W2bwAhhBA1RatxQ6s1/pgPoGq+sqe48SjG0R+lCIOhGOMBtKQl3YweWbXd8vuKiQNL37A/HJgGlvi/EDbMguknSml3qardsWW0a9bodb4e2cNa+K3gHN+uncyHzhxV1E1jxQPR6M0foflJLP/yOVbb3fU1pv+bU5JNgSxaS8qyBmvqsmUb9e0tfyvHdSO/imrKgOlfxTbgtQa95pRla9VkVzh+/Ljd69u3b18j9z8w/CtmdDWnFSSz5tOnWVIj91x71NEUZSGEEEIIIVxgJ6w8qrpcH4Y87sSKylfnsjJRlR2oa8XQno87saJyKE/1GWANbing1N75pQS3YF5mRzGPlJoLN5lSlZVic3pwiRRh1Y/5unJ/iv+87vbWNOl8DEWmtOPiQksVZGMRKVX6sQuD29rHE886nK9bWRLgCiGEEEIIUQHz34FEVeEJ92B4ZbyzWs9lbfxaElVlHHRB9zKjddkFTx0VFvgMQwOsCeAFqVv48KwjpaCta8oqdtaStQa+Rdf9GCzBaPk/BtPP9X8rcV8likhZ+neTyyhQ12bxpsnNsgacigS4QgghhBBCVEQuPP257bq4QcPg3yFOat/wBS//mKAq6qUjuP/zPFvFiclejV/nlb6trPOb85P5ds9HJFat2XKo1t8t7382I7ASrFbG4auZqiJtngS37OHC3riGBLhCCCGEEEJUUNoGmF+i9tOQGTDBSVWVcy69yZLDmdYrNHruin6doZU9etc9ztyhPfBVpybvmcuSGqkYbApcy/tBRmKrLD2JVNXT5xsxhRleTiz1XQdIgCuEEEIIIUQlLHsb1qSormgML77nrCA3lx8S3mTNWVUE6tuDv939UsWDXG00b0bfR7C79aqMwwt54ZwjqcmiTjGsZvcp1T6j0TNw5Cd81G40UTof1/WrBkmAK4QQQgghRCW99ArEXVFd0RSeeQOGOKX1JJbsWsh+9eK4TfrwVL/HCXO4jQG8cvc0evpar8lIXMobCZsruK6xqBtyWb3/O06p8+freRJ8+0ReeXAlWx79ni2Pfs9HrV3WwWonAa4QQgghhBCVlQuPPm0b5B7aCFuc1b5hMy9vfN8a5CqZHD68ugLzZvfz7bFky7zMguSveePA2mqedytcquhj/vL1FyRedXVHXEMCXCGEEEIIIaoiFx59HuL+gLgP4dHt5d+kQgybefn7hey/nMn+byfx8pXc8m+j6tzhlBn843/nyDj5BS/EfizB7c2gYAXPrB/Hy99v5nBqOjnXamSyda1wE66MJIQQQgghhJNdhkcnVWP7xRt4+bsNlbxxLrEnJxN70qk9ErVeJvsvvc/+n1zdj5olI7hCCCGEEEIIIW4IEuAKIYQQQgghhLgh1KkU5UPPNnV1F4QQQriIVuuGVuOGRuuGRqNFgwY0mvJvKERZFAWDUoTBUITBUAwYUBRZh/Nm9J7q90eWOnsSrZEcy9685LWvOTKCK4QQQgghhBDihiABrhBCCCGEEEKIG4KGWp6Dc/z4ccvv/fv3Jz093YW9EUII4SpajZsxTVnrBhoNGrQYv8aEqAoFg6HQlKZcDCgoisHVnRJCCFFJMoIrhBBCCCGEEOKGIAGuEEIIIYQQQogbggS4QgghhBBCCCFuCBLgCiGEEEIIIYS4IUiAK4QQQgghhBDihuDm6g4IIYQQFfXY2EmMDNSi0WggZSsjV6a4uks3pH7R9/O3Hj7GC1cO8K8PD7HLtV2yr0U3Vk7ogScAmcQv+4rZ513cJ1dp0Y3Px5ufixS+mbOVT5zScCD/fGkwbU2XTn+/hOcOOaVh6DaYdXcHGn+/eoD3aut+ZtIvegzPdm9svFAH+ivEzUYCXCGEEKIOe2zcJEaaYoOKBvs2AaycKHCRxrz81BgiGhkvOTVwrC3UAaxTg+7SPTZ2EiNU74tRqyryvlAFsBW8rRDC9STAFUII4RRVPShUH5DmHvyShzZfcXIPy9KYWU+NIcLU/dMbl/A3JwUZ6gA098CXjKvRxyWEEELcXCTAFUIIIUTNskkpPs36N7dV+4ieEEKIm4MUmRJCCCGEEEIIcUOQEVwhhBBCCJdxR6dzdR9sC0g5ou3dk1h3d9nb3JDziYUQtZ6M4AohRF3j+RhRC3cw/MF+ru6JEKKqGvjQ3MN60bOhR+nbClEez8cY+PEOBg4NdXVPhHAZGcEVwlkGfcL0FyPxKXfDZNYNvoeDNdClWmXQI6x7MQKvcjdMYc3g+SyugS7VSZ6PEfWvv9KruTuMeYfoP19k8zoHF6ho1JFFT/XBT33dyR8Y9WWq5eKkhyZxV2v1BjVT8bS2aXvPJNbf4+peiJuBZ2grm/ekX0s9nqSQ67IeieoSM/pRxnVwV11zmbgla3nnkuliyx58/lg309x0owoV3PN8jP7vP0+3JsDkZcAEtv+Q5JS+C1GXSIArhBB1Rj86zTYFtwA0pF2fQexYt4t8R25+9dp1B825V7NsLhcYSmyQfYW0ynVWVJltZWeHBA5m/cvlbFOb17O96dRjXOdA26vatGdc4r8QOgAAIABJREFUgxSW/FmT/UjhuTlLavIOq8B2WSWHBA5m3UvlbFMD69lezMkD1AFuFhcuqS4qRdfdJvMPx6uu1xs1ms5NzJca0m3yMiiIYfv23yrRWyHqLklRFkKIOqEfoe+8Q3Sg9eAoP2Uty6e/4lhw66iSx1eGIgqc2b4QwqpFF/q1KnGdJoDevSVN+aZUCIUlrrrupGMZij9/ktVbf1N9JzSk25OL6BTinO4JUVfICK4QzrLtMeZts/+n7ot+ZVRQzXan1tm2glHbVtj90+RF7xNzsz8/5fCc8Dx3hjS0XnEljq9nvVLBNMZMMrMBb+s1OX/ahsenr14BKjJkWApHRkxqsepaB1eYNHCnvqv74HKNeXFkD2s6an4+he7G56Vx9ygmHdjKkhwXdg+AekQEt2NEz/a01TfG00M1+liUR+HVS/x6/Bd27T3Pthodca6b4v/IxObztSAfm5f40hUyqMon8G9c/mg8X/us4cHupu+L+m2JnrmUjKcmcl7y3sVNQgJcIYSo7QYu5cFhba2JbYWn2fx2JQ9WSowG5Gbllb19xhVJZXWZK8z+sK6kjVZQIy+shYN9aNUCOO+67rjCoOg7ibQUbcjn+MYvOdfrYQa1BHSBDBoZzM7PT3HcRf1r364bzw7rgV9pg8luHtRvEkDn2wPo3LuYcYlb+de3qRypwIhj5VzhzTr6vsgt+dzkZXOxzFtcIfNCRe/lN87PeZHN/5pvzfhpHMl9rzzPhy++W9HGhKiTJEVZCCFqM8/HGPhwJNbpZvkc/exJjp6onrvL/NOpCc/OpVH/qil9O1HrdW6oLqNzC54VmU95A4jsPZRJ3S2TJSlM2cXypDwWfLeHC4rxuvqtBzJjmB/tXdC/zhGDmT2mjOC2JE09GnccyhtPdmOQHFlWQT6FTpkTsouj739Hiirf2T3kQYaPaemMxoWo9WQEVwgharHmT0+mmypfLffIJ2zeUNmCIVdIy0BVnCWbzBLDB0eyrtlcLsyvZMCbspVRq1IqdJPHxk5iRHmpvBrLf6xKK6x0QxdTqkdEcDAj+nakQ7PG6HSmr/Oia+RePs+vhxNYH3+5BkbTKqdDU3USpjs+zT0gqZxsghtCPe4acBfjb29hTdHOT+H7b1OMI7V/HOO9TS2YfXegMVW5ywhm8A3/2HChxkZyPQMjeXFooLV/Sh5XEhPYGH+Sny/kcdoUgPk3bEhE5y7c1b09fl71jFf69GDS2GzOlTnyHMiIlyYxolp6b0qpjjK+L+rrTP0qyiP38m/8mvAL38T/4br3xYU/yCXQmpZ+JZt4mw2ukZMH1vSGfHIrm1Z89hW+XhPGUw+GmrJ/3Gk3fC4BG8eRKqnK4gYnAa4QQtRWIe9zZy/VvNvCJH585wMn3kExKGVvUZBzrewNalzNjNzW5mWCPJsHMXtMf9o2tvMV7nYLnn7BREQHE3HnBX5Zv4V3fs2rZUvONKbDre421/j5l7Y0TiUqSddW2oZMirmHu9qpJsErl4lfvZVPVBMxjx/aypLmo5lqGuFt3GUEsxvt4l+rfiWu2gMzD56K7mINwLJ/Zc2nu1h59fot07KySNsTyzd79nJX9EjLiHT91n0YH3qKGTW8Oo1ns2De+L/+tG1U7/o/unkY3xdDgokYeIEj67fwzvFa8L4wFJfTh2tk2nnuHfblNDZHbGB4iOn95tmVIc88xsdzbraF38TNRhJJhBCiVmpJu4l9aaG65vyODzhZxSOynPJGZC9ecf1BX3k0piD3JsxSbt+pH0sev9N+cFuSmx9dYsbwr/6NbdbVdLnGLfAvGbC2bMXIG/iIpHP7bix65oHrgtu4T9fypp2EjG2bv+OTXy5bLtdv3Y8Xn7mXF1vbCd6cqVFbAs2Z08oFdq2yH9zaKmbT5rWsOW7+bHGnbViLMm/hbO079mPxEwPtB7clufnROWYM/3TF+yK3gLLrhl3houOrAjngN04u3W0zvb1R+Gg6tS71BkLcEGQEtzZoGkPIYzH0DQ/iVl9vPHSqvxXkk/dnNr+fPEbcrlUc/37ndat4lNfugB6hNGvsjofq4CHvz2wuHfuZ2J+Wc2xznEPN2VQCTl7DS0+acwLDaPHECwzq15GA5t7W+ynI5vyZY+xbO5eD2xMd7bWVVyQBDz5JZGRHQprr8Ghge8a/8M98iijgUuo5zqfsJHbe+2RWpH0nPz81TtX/Wxu7U9/cf0M+2RfTOJ6whR2fvE/mHy7tpYu4ERDdj8nDIwkL8MWrgapea8E1cjLSSDwQxzer4tlfmefHqyFDHxzJiH7tCGjeEF1FDsyz4nl79Aq2l7dd62l0D1Ht87mH2fNR1ZNtbddhzCStZGGfEusw5mRlV/k+nUdj+p/xd4uUrYxcWbF06LrI078bM4Z3wNPyXr/GhYS9fH/wHDsvFHAFaOzlTf/wLozs1RGfWwDc8es7gtlZq/nbodqx4FNEtw74lbxS14GI8F2sdFLl6tqisV8gf7snis63lpjMmpfCts+2suCS/dtBPt9sWE9BgXVkFI8WRD40kS9//4XvNx7gkwvFzu9wgJ/1tTl/nK8q8Pm48lgKI9p3oD5Qv4kPnTnPEbtbpvDNnK3YjCF2G8y6uytXatyzZTdmjOiAp/kjQcnjQsJeNh08x84L+ab3RUPT+yKMxh4A7vhFjeCNrC947lAN1h0osRZ57uXrj1pslgXKy67YcY09J+ay50hf7u9s+tyv35buY0Zz9N21VW0ZOk1hyQcT6N+yIRTnk3V6C/OnTmfl2ao3LURVSIDrSl7D6PjiNEZF+lNqHQedOx46d9pG9KdtxG3EFfRgQylL0VSkXY8G3gRE9GdsRH/yxsax7r2XOXY4reKPoessxswaR3hDO3/TedMiJJJRM1fTK/J9Fry1zMFG/Wk2dTGPDg/Cp4zAoX4Dd+rjTkBIGAEh7vw+730OOtJ8TT4/1SKMFtPf5ZHBQXjbe3607njrg+iun0L3wQ9xfON8Vn2w0vETI3Wc78B7mDN1CMH29kkA3S146UPoOSyEnveM5NTGFbz0wUkyHGw/bMwjzHw4An0DZ/XYviZjetqM3l5O+JpUJ7S7a/OX7NpcxgbnD/HQnNoeZVwX4jpBRSoW26bN5h74knGbnTrsYvc+/zayh/Uz8c9Utq34gQ9LzKG+kpPNN3v28M2BX3nxoXvp3cIdcKft4H48lrSNT1y+lEsTRoQ3tVwqKMhHpzMeeLft2p72h46XmLvp4OvSohsrJ/So2ohcOen6FdasC+9NjKRxiR218Pc4ln/+C5vKPd9gHBnNzBrM3wYEUt/UTv1buzDi8Y5E7vyKJ2OznNzpuqYxz47qYX2O81PZ9ukP1504uJKTxTd7Yk3vi3v+v717D4i6yv8//hxU0EDyguKFUMEbpKl5m36ZqOsty7Ry201bM900u1pZdtM2rc3K7d66WplWZmu0Za6Vl7Uw+4Yh4SUxM7QITVTSQCRAZ35/zO0zyGWAYQaG16MIP8PMmY8TA/Oac877jbmt/XkxfDBT9m704fPiIPc+Uf738/J3luLdBcSHyFy7jZyeg3FMzrfsdQ3RvF/N3ylTWfHaLFcl8AYhhHcZy5xXCsm48mFq6dSA1BMBvCColouby8S3nmFieeG2KiJmMvbVyo3bpJ2ZiU+9y+Wjoip1V02ve5fZz5QRbt2E0G7oXUy+2ezBqFFEL/iAWePLD7dV5sPHp2Yk0O+VVdw2qoxwW1JQU7qNncvsF+caW58GqIb0uW0Wbz1YTrgtKSiczmNv561XRhLvwdXjZ87imZtrPtzCDPr1amU4PsS3q73wbnsdVxOxtq6IGmg27EM9Qeq754ZbN0U5PLX8E3Y51kMGxzDiDy3LuYFvhPa4kO5hjqNsUr84iDPnte/DpBj/nJeN1fZh9VLSPbaLhZ8cxFnI1nqSAxveZfoyT8KtS/JXG5n++hayDDW4ig9u5rmaCLeZ2Ti70rTrxh8jyruyu0kXugpTFeecKGP21ruiBpgNRfNOkrrq3HDrpug4Ty3/lN3O50Unhv+hEn/JuiplOd8al8KH9qb3ddUc88GxhjZXLiFdhjC1ZiqIiXhMM7j+EPc40xZNICa4xOW5WWxPTWbP1m0cs69haRqXQNvoKHrExXJB6wrGDZvK2FfuwtzC/eITPyazPWkbO/dmAeG0ungwvQeb6dXGsPwxKIJBdy7hWOYVbPekMETkKG67uakrNFnyOPB1El9sTOJYfhTtRo1g+KXxtHb+HUPoNmYWMa/+mQPljXvDi0w2u0exvCMZ7NmZxr6vXY8Lkb3p2ul8wi+II6ZTFG09KUDiy8enRkRx4YsvcrVx2ervx9mZ9B6frX6fY5lZEGam6eARmK+4iiFdXY9j07hJzPjbIRb9zdNZ9LonfubtPD6+E25Pq99z2PvVVrZs/Z6MfCCyI8Mu6ceAAZ1oYXiDILjrFTy6IItpc9PL3h81/HoevcZ9/KLDO/no32t47+McfqUh0T0uZNy0cYzu0dL9envf4093bq1g75XBkAFcYJyKOpjM9nq/5MuEK9yaXPtw64UGjOke7Twq2pfMs54sKLEcZWnSAZ69IoZgILRLFy4nh0/Kun5Z1ai9pgnTL+3uem78/C0rvzpJ6MDuXBQGEM5FI+LpuyS9RGXZmmePts4/e4utYNQ4JrU8yLp1u0isYsGgk9nfccfzPzFhRALjO2Sz/N2DNVNV+bcDHMy5lMiWgCmSwRMHc7SMIlMuDbh81HgmdHP8birkQLovmhq7Py+K9yXznCcF5i3ZLN1ykGftlapDO3fmco6X+7z44GEvnK5fbWP37kMktHe1CerU9z5YXY2+uE1DyvhCMCGlBF8RX1LA9bkEBj1QMtzmse/D53nzlZXnXPtE6loygW0AYfHl/g9rN3ume3grymLjP+7k8xL7X0+kruT7V+E/Y5cw45YE2jnOJTiWK+96nD23PEKFzRrCDOH21x288+RstyW8J1IXsyduEdMWXen6u4bF0WssHFhb1qBmBg2NN8ysFnLgP3fy+uKkUq671vaYVIJPH5+acMOLXB1n+IXyazKv3zaFA8Y9UqeSyfs4mY0fLyD5uneZcXNvHL9nml86kUEdl7H1R1+etI90HMYdV7qHz193rmLh35JJc0uVWaR9vBXCIrnp77OYGHee8ystzNfz4PC5PFzqFoBw7rjejPHb59eUZcx8aKdhafMZMr/dyUt37+R/M2fxjCEMB8cN446+W3nSw1ft4RfHYmwLeviHdZ7dMGCZMJlM7hm3XokkxrkxspAD3/7scSGwrJ0ZZF0eQ0wQEBZJ92bwSU2vpi5DVJ9LucS5MKGQ777OIAtYuS2Ti/5gDyqt+nNT3x9ITfXHfmFjzPWeTevXUNHOIo9YCkhc/ymJ3hirTAW8vDaNnlP62JZ7N+3OhNs6MNzTNkFA8U9f8oZP3ggu8bzYk1mJ58UP/Hx5J2JM2J4X58Mn1alWXAcUfrqXw6PbO7e+NGzbnXZAld+KSM3i+LWxnDv/ncux/VUdVMQ7FHB97ca7GO5WXDCP5BdvZO1aD4ownUovex9lx0WMvdQ485lH8otT+Hxz2W/zn1k7g1eKljN7ttkZghrFDmGQGTZ6unni12SWTJtCZmlTU3tn89nuEcT0dYSyEKJ7joW1ZSXcwUS3MRzmprGx1HBbBf56fLxmAiOuMIT/oiw++luJcFtC3uo/807PFG5zzohH0fcvE9i6oGZfHvnDVbeMoLMh3RZlrOOx2cmU+aw6lc0bdy4i7NUHuaqjY1FdOL2vGkTYplJmWjsOZUC08fY7ee/vO8vct5u++GUS4xYyMc4xdks6mxtCqic7odsT28G4PDmXwzsr+3ZOLeC1WQ97uLWnW1N9TLhBTQhzfn9nk1WZelqW42T/BjHNAZoQFgb4I+AGteP2P8S43oQ6lsJ79hC076tkvro4mkuaA4QQNXQwU/ZtcmudU/NswdZbq5P9qpr76PMPpfDUp82Y6+iFa2pCswvNTLrQzKSKbnwijTdWl9cD14uCziPU8Lz4uVLPixyOnnQ8L84jNAwI8IDLT2lk5w2nneMlQdNYYnrD4R1VHO/9+bx+xb+Zc6kx4haS8f58Zn9ZzXMVqSYFXJ+awIjR8RjquXIiebFn4bYCzSeaMb7+ztv5NmvXe7CGbf0jbLxiE9fFOS6IIH7EBDYmexCCijL44G9lhFu7A99mUNzX9XduEtaq7CsT7l5BunE4zcMod3xP+eXx8aaxE+hr+B2St/t9tnnwDvnh178i0zzS+Xdv3XUEzUmsflXGWmUQw3ueZzjOZvMLG8oOt045vPR6KoMWuGZmg2N78cewrbxR8nuub0u32duijJ0klvt9eYY3dmcxMc5VFbRFm06AJ29rj6C5cXlX8SEO68UCJpN3wu3gUX/knv7eXT8X2v86Puxf3VFOkLrsPRaUNp3SJhzXGZ/hVKUK4uSRfRJsA4TTvBVQ1o++UqpRe+fxCmbK9SPo7ty7foLUdcZlyCd5eU0K3Sfbi2g1jmHM+Fi+ejvDN0HpHIGQcqtnd+pGph+/iIXXmon0qGDFWfL3J/Fy4g8+6NVr16ap4XlxlvxKPS9yDc+LpjRvDZS1vPngRq5+p+Tz4jru7lfXmjMv55ej99HH+V5/K1p0BaoacMli2dQ/ceyuWUwYHE+rwiySP3me+W9V/zWtSHUp4PpS3xHEG9/oKkpn41Pe2BNp5sJuxoGPk5r4goe3zWJn0g7GxvV2zg627jyYJiRWsAw3j+QXZ1S8H/VILqfA+UuoaYvyKohsI/PIBGIcs7jB8Vz+97lkPrSAE9UKuf54fLwrJiHOUCQqjz2bFnt2wx93cDh3JNGOokttooiGwAq413Yl1jh7u3cLSzxdHpe8jq8PmxntWFURHEX8KKBkPafW4e57ags8KO5y8FdO0Ymwiq9ZQgwtjYsN8n/zuMJzILKtTDZhIsi+77YezuAeyeUE2CsENySsMeDxi/mmRDpfh+dyorwCPDWkW5/BjOnk2l6RvzPpnD3E+VlpvLGtE/dcYvtZHdzxDzwwKofb1/uiL7PV8Ml34dY3IamUljweOvnTLm55dg99O3dh3IBuxLRpRmgTwzaZMwUU/3aMAwf3sSnpIJt8XaH7SJ7hedGA0Eo9L8INz4s8TpRXsC2A5JzIBVxVGEMjBkKlN3wZZbH2hdms9fQllYiPKOD6kjkWtzpRP6ez0ytLsK4kxrjs+fcsMiqzhPb9H/jllt44o2eL1rSF8otBcZRfPJkBrZS1JH9zF0PGuKoVN42bxOxVo9wLKVWaPx4fbxpLbKSxmMNRfvF4Q9cyfjl2v+H3WWvaDYad1W+nWmsM6lli7+3BXZ4XcyKXtMxcRrdzPEDn0SY6HCgRYPOKKQLXntomFZdpDusWWYVwC1za3m3/LScOkVOVcfygwhZEVWIvKOWlGdw6yVLAKec3YCRRnQBP38QJiiDS+Q1VwCmfLvu19+693LA0+dQuVq87Wmpo3fK//xLT5nrG28Nw8/7X8PKZ/3D7/3wRckEzt6U5S+oP35H6w3fVGyZtI1d7u/uY5TT5hufFBZV6XrSktTPgnibfx88Lfzn6y3HcAm7zOKoXcEVqJwVcH2rXxu1lK0czvfRDpW8r3BaQHcmqZPg6wNFciHH8zGvclBb4MsC55D23gA+6vcjVsYZA1ziCXqNm0mvUTIp/zWLnziRSE98n83sPl8HU+ccnhjC3N/ljuXrjd1xdxdEalqzeXcdFtzCun8slM71yrTM2H87hQcMv/LAWkZwTcPdm8ytdcS4uiO3FhLDUcpYphzOpZ6ThuJif93lYdaNRxVepb0wEYTIFOYNudWxZ/14NhPCals2BbOh+AUAIMT0uIHSvZ4WmQuMvIMpRMfx0Ngd8uP82NKoPL0829O61HCc1MZk1ZS5hLWL5qjVcMPM6+jYHaEjzS67hZWoq5FrLORKfqlIAtj0vujmeFxdGE7rXs0JToXEXcIHjR0lBNgcCff+tSD2jgOtDzc93b39z6kSZ5YQrOXCI+2vis75eJ+RNSWy/5U5yF8zlulJ61TZqEUW/oZPoN3QSxaeOk/7ZMtYuW0ZBee++1vnHpxUtarzvat3VNLhEIjxbA3eSuoGvMy/jKsdm5rBe/PGhXmx+qPRCU/Ezp3JVrOG8ig6S9mENnFe94Ji9DbJ/1Edn+fi7TMZcYPsGDO5m5p6on1lQ0YKWoNbMGe5qy5O/bz9ravQ8XZp17MdzEy9262d+InVzxe2NLCdZsGIjz94ygpjGYAu517G02Scs/OBndtfA/k7bymTfx9uaWfEAtOvD2zf1J7Tia1ZbaOMQLunUCXO3dkRGRBAZHgKNm9CotCdqYQHFltNkZ2WTfSiT3fsOsen42Wq8cWF7Xlxuf1406mbm7vaZPF5Rq6CgSOYM7+58XZC/7wefPS9ExDeCKr6KeEuTAJs5qzlJfD93OI/ft5iN3x4nr4wXNI3CIug19n4eWbWJsdcl+PYUpZ7J5Y3VqW5htkX/qby1YiozxjgKUDUkukcv7nhunluLIIAjX645t3CVeMzkbBNUT/fgAlnbkkl1zr42p++fR3N7eb3Rg1syZ8rl9v6ygCWTr5J8s9jdfMlwlpYIt0UHN7LQ0/20pw4y990UThh+9ofGXc6CWy9lkte3rFoDpHSyLzVgcK8+vHTrNN6+90Zuu2YwfS/sTFRkMxo1KSPcAoQ0oVGTlkR1iafvkNFMmTGNt+dcz7/Gd2Z4Fd/Ezfo6mVTn7Gsz+l4/mtvKq2UZHMGcKaPp6XheWDP5KqmcdgQiUidpBteHfj1VCBiW3gZFUXY5y2poECDTfTte4PMdL/A58TQdcy3mwQn06hPl9qIJgMZRmG9+kebnz+DNVz3YXFsHH59it6MMPhhxBdv9dC61XoOKr1IVp77czg/T+zLAsP02uF0vJtzdiwl3l327ou/X8eTfa+B5XkdMmTidcY5i0qVUIy2fIdia6u0OXLuTPPthimvJb+Nohv/1Bvqmp/DhVwdJyi7iJNAsrCkJvS5i/MALae4sLl7IgU8283JNv8kS3JTp469gTNcSe9SPp7B01cFKVUTOz0rj9jdxX+Lc7EL++OdcMv61G+92arNi1QJlj4S26sz8PyUQc76XftA2bErkhcO4Lf4SxiWtYe6XuZXsYnWS5z5I4eUb+9PMBIREM/zmv9DP+bwotD8vwu3Pi3iaOZeGFXLgk894RW8+igQcBVwfyjtVhDHgtmo/EvBCFeVNWZyY46pUTIsIooFMT28fFk9r4+uRX4/xU/XPyovSyfs4nY0fL2AjUTQZdQvDJ4zC3NG45DuEbmNmEfPqn8/dG1vnH58DuBc+DKFBGFSiklJA238sF2IdD044bTo3hPWe9Ju1GX1BS7fjI5ml7ZVtyOiHrncLtxU7zZEt73LXgrL75ZYqJYffwFVoqnl7WkKdKTTlPaX1v62piNuJZx8ZQXk13r3mZArPvpxGVeq85WelsfCjpsy7qjuhQUDQeTTvkcBNPRK4qcxbFZL9xRrmphVV+ZQ9FhxB9+gST5ITKby8NI1NVVhanJ+Vxu2vneapyQlENQZ+P8CHb3sz3FoVbSshtH0fV5B0Okt+diYHMg5y4OejpB4rJr+ggAOlfLtFhTehuSmUbl0j6N6pG907RRLqeBVqakLUkD/zXIs1LFybXbk3Qw6lsXBNU+aO606oCXvf3sFMuXAwU8q8VSHZW9cwL62wEvdU94U3c98q91v2Rj+diUjNUsD1oWOHjoKh2UvTTgNpxTKq37WhRBGk8M506wuZqeXeyGV8DBcYDouz071wTjUli4L1j7B2/SN8MnY5s+40u4JrWBy9roUDJVu81PnHZxmZR+7H7HzdGEXseNj2tu/OIGrgSPq0CSE3Yy1J3/rufj3x9RH3tgdtupmBrR7eOoo+FxhfkOeQ+U0pVxs+kRn9Xdc7sv45Vv42mHGDuxDdIpxgx3pkSzFFJ7NJ3/kVnyzdyuaqrHzLP0ZhMa5iU81a05r6F3Ad4dbV/7b+Lk822vftFqYfPcSC6xKIaVbBr/Az2ez6cANPfVfgmyrE9qXFzlnX41UPtw75R/dx+79OMH/SJRSv28Ryb7+xZ8WwRNm3UbdO9VINasfc643h1tb3dumHP7DFw/dOsnILyKKA3SnHIeU7oAF94y7i5sv7O3vtNrtoNNN/fJt7d1eumMK+PVuYcfSwZ7PLZ7LZ/eEGntrno+dFLdKsmfH3XSG52RVtWBapmxRwfWnjXjKvi8VRp4YIM4OujeKD96u7fHEZBw4ZA1AEvcZPZWOqJ7PDZvoNincrwvR96jvVPB/fOLN2Cv9J2Mm0Xo5Z8RBalLonre4/PpmHjkNXVy/frgPmwtsLav6OO0xi0SuzGNvF8eA9Qda2lcyf/BRJNX/vHjmVfJAj46MMFY77MaPjVpb86MGNhw9jQBvD8fH9/K+UNz4mjI5ztfz5fSdrFv3Ip/zIp69W69TLsIXDOVPo4jyvCNoOgb2f18R91VaOcBtk73977jWWr1xapd6egSD/aAb3vPwjfTt3ZtxlF9K9VTOCg+2/zs+cJj/nMN/t2MmHqTk1UpSp3HPLSmPhJ815oMtPPJuY4Z37P3WUeUtqugyQ5nHLE9XvIro5F6AVkrVhNQ+kVDcgniV1bxqpP2ezcNqVdAsDCCHm0gvpu3sXnr4H7ZB/7AfuffmgrW/vINvzolGwPeyeKSA/5xDf7dzFmtTjPn9e1A5XEO3WcvA4ObuqOWSHSSx69lYSYpoSUphF2qcrefhvK2ti851IpSjg+tKPiezJvJJoZ8INod91j5O6fgqZ1XxXes9X6RTExTurDjc3T2RQ3DK2VtATrunMuYyONVxwagfJK+rOj6YzRe7LvovLWJla1x+fE+v3cHRogrOPcqO4CUybuYXXF9dkzIxizgtzGNvF+AsxhKiBU/n74gyPD6R0AAAgAElEQVQunZlYg/ddCanJpB+5jDbOhNuJ0bf3ZeXs1PJXcYfF88TNfd161WZ+tY6vz7liFy684DzXYdGZyi05rrRtZGblQhvXsuvI+IHwef3qVWgymeytgYJ80P/2IPc8vrTGRh886o/c0795xVeslLOk/rCP1B8qs5jTN/albeYmb/c8rTFWFG4rNrxjtOugYB+bqh1uDU4d5uWvM3lpmP0+WrbD3HgXqVVqeOClvr2BKHQgbY2TAHk/k1mt/VYJLHp1HmM72A/Pi8V8/Tw+iAnh6snLFHLFrxRwfSqZrauSMc8xLKttYWbGW/9h9WN3snNHRT8OoiAsq/S9l6veYduYxxnSxnXdy59eR/HcGWwrddwoml+/iGnXxLq14jmw4Xm/9L8FIG4CrfKTOZbp4Y/F3osY0cu4n+Q4v5S2vBTq/uOTuoBNe81MjHPNVsdcs4jJjZ7nnRdX4tGO04h4Gh5P9+y6AB1mkhAXUuqXIvqNZSqJ3thB7gVZvLT+ewbd2NVZuTis12ReX3CGmXPL2P8a0YV7n5rKgBaGy3JTWfmiBz10w7vwh1EN2VyJfb6VdXTXAQr79Xa+ddOu50RC2EZ92S1ma3VrX57shd63IhXyd8b9LYXnqrg32yeMrxaPZHu9rU7W4Rzyiba3NgqneQvgsJfvpL67Kp52hsP8A19ztDrjjZvEJR3OvTh84DTmjFvGHeq9JH6kgOtrmx5hdcIHzDAbgllYPNc9s4nLj6STmpzGvuQd5Nm/1DQugbbRUXSLjSUmClKf6c/aTaUNnMjGt6+k12xDeG4cy1XPbOKyH5PZnrSNnXuzgHBaXTyY3sPM9IpwDy8FGYmsXuzd2pSVMuQmZl3zOBQVcvRIFpkZezn822/8Yng8IIp25jhi4i+mV9cIt/BZsPcjNpa5pqmmH58omvToQ+PS8yBhbq1aQwjrO5bS5nPOHEsjr9SAn8WexWs5sGgCMc7+M03pNnYujw2dyb5vvyF9xzYyfnQEtHBaXdyH5udH0KFTFG2jo2jduJLVl4dGUWa3hfBWxJb1tVI1JLpHG1p69Pg0IqxvFH1KuV7hsSOkZ54bLE+9/S4fDXqQCYbesy3MU/n3B9nsTUlmy9bvycgHIjsy7JJ+DBrQiTC3aty5fL30HTaXenb7STt4mkEtHLO44QyYvZB/X7efH/ZmcaTAeN3f2J/8I9kAFPBTak7VZnvX7iDzL73p4vjrtImjZwfYXruqv9UQ495bR+9bBVzxPtvcraPMlL8Tbi1n/LHbJpJxHPRqyI1q19LQtzeXEzW7TKYeak9c7zjDi/5CDiYvqaH7iiB+mBnW+PH1pNR7Crg+l0Xm3NmsWLSIG3u5V7Nr2iaeIePjGTJ+Uhm3zSvjcrv1U1jS5j/cdkM8xpGbdzQzoqOZEeXctODHDSyZ/UhF9+AbwSG0jo6ldbQ9QpX5eBgcT+bNh54u/zo1+viMZPhjxn2+5YlixMJnSr2/E8lPs2huGfOiex/h9RdbcdudCbQzNlkNi6CbeSTdzCM9uXPPLU8n634z8aXV68g9RkalBuvEjMdu97AKcRSjF97H6FK+cir5Za6eW1qV4xyWzF5Gi8VTGdbGkJbDIokbOo64oeXcnSWHHa+/wsPlzMh+tOIzLu95BZ2dj3sjWkTHMyA6/twrj3c/LMrNJuOrdbzxr52kebwV4Rl2pF9PF+f+8vb0uO5atj9zTgW1AGNyfjYRZNuDa1KBKakhVquzyJTibfk2/ZjJuC72JcRNujG8/07vLVMOa8ftAwxLoHMOk1yl5clSpg530bur4TgvjbRPqznmmg3suT+BhIhzvxTePB683MxLpDJKdhQVn0ji+9lXs2hZMoe9/EM8b8U1LHzsv+zzYKUlAJY89q1dwMKb7+RYXWw7YykkM3kZi272bB9znX981s/gldnLSM6swmJVS8l+uhV5irXJpT1QhWR8uriWLE82OJXOk395kiXJ2XjaEKXocCpvzPk7962uoEbx3g3c9+QGMqvQaSU4PJK4UVN5etV93DvI8/cUM9dtc6uc3LL/9XQJLfPqAcG2GjnIvvfWvgeXIBRupeYYZ3AVc8uStX0X+5y/dkKIGjmRJdd1ZnBwebeqSAP6xvXhX9MdBaYACjnw5Z5KF5iS8rW+4TK35ck5Oz6u3vJkABKZPnctWZUreC3iE5rB9ZssTqyawiur4ml+7VQGDTNzYXRTGjcOcavYW/x7Ib+fzOLAjxns2foOe0pdnlzC1tm8ufV5W7/Yq4ZwYXRTmhrXzhYVkvdrFntSNrD1nRc4UZVWJjXhvadZkjeWbj3iiG7fmrbNgiE4hCYl3oYp/r2QE0czOJC8kc8/WExeZc+/rj4+DnufZu20p/mk60x6/2UEfbvG0ioshCYlXmgU/F5I3lHbUu/vd6xl38dJnu+/tVs29UYKn17ErCtjCW8AnM4iefXzPPxkbX1nNofEuX8nMSKKCVNGcnn/LrRpdh7Bzu+hYop+z+XInnT+99kGPlqf61k74bCOzLhpKNHGx7joNEWlVeIMNt6fQeMoRj84g1/+9ArveHKnKcvZfnAwozrZjxvFcemMa9n/bCDP4gYRZGqAKaiBPdyK1CR7uHXO5Pr7fGoxy2EWrEox9MFtQGiXYdx9XwLTK90Htx0XdelEzAWGPrh2J3d9ytJKtgiSCnSYT0Ivw/Kp4r18ucRLv0c2z2b+xj4sHR3lfvmZ+lIxQmorBVy/S+fE+7NZ+z6s9eq4jn6x3ht3+y3dPd+/6bBpCos8CeUAx5PIfDuJzMreR5V4+/FZxtprl3n5/2H5zny/mO1zF1f+/0mlpLPy/jGsvL+64+zn4Wvv8sYJeeZ4FomLluGdOs8tmbHodkZHu956OrV3DfMf2lzOkuOGRPe4kMtvuIKr+kY6i18R3JXL74zinb97UkhtG99+lIz5LjPnO87EPIM+Xd8n7fsq/2X8q9MIPni4jK+ZTDQwNSQoqCEmUwPXLK6ns7cnU3i2NhfpkdrJasVq2InrN+f35+6H+3N3jQx+ktQ3VvN4NYs25R9K4/ZX80r0mm1AaGQnekZ2oicwrqqDWwvISlrD3C9zOVm90xQ37YmediWGX1/kJK9ivxcbACelZZE7OgrjDqSs/Su9dwciVaC3yEVEyjN2HKMNxas48gVP3lleuAU4Q+a3O1nywNO8sfO021falLZvtyyfz2PDbsM74Y3ac+n0+ZRRq6tOclRKNmGytQRyLFHWsmTxGU3desrWa3Y5z/03hawTXphpPZNH9p7NPLfoLe5QuPW+YfMZ2dPwGyMvmY+9vQro/BD330ln00l7x7t3IVJZmsEVESnHhIQubr1yj3yzoZReuWU5Q2JGNjN6dar4qqU6ROZTq9j/xhRnReWQ2Cu5auom3lsWOHOVJlOQs6iUs6CUSRFXapbVuERZIbcSzrJlZxpbdqYR2jiESzp1wtytHZFt2hN5HtC4CY1Ke/IWFlBsOU12VjbZhzLZve8Qm46f9V4/XXEXOoVhU1wrgCCXtOXzvLD31mDYHN69vo9bwD2etJL59aLiv9RmCrgiIuVoGXae23FR0ekyrlm6qzpEuh2fOnawcieQ/wwfvdWbW6b2trfRCCF67CP02zqS7XVgqfLyd5ayvJyv22ZsG9j23jr236pqss9sWf8eW9b7+yz8y1/Rdsv61XX+sc//vZBNe79j097v/H0qXlX3/98MpseCO+ljaBnx2/YlbN58yAtjx5Pwl5GMHTGShH72+hx2hQcSeWimdzYHiVSHiVr+tuW+ffucf05ISODIkSN+PBsRqW8mLHqSGb0MIffIFzw2M5GtHhSKir9uKo/e3IsWzkty2Dp3Po9VukZXe9o9nMj1/Qy7nE4ms+r2aRyuo9MftiXJtkrJznDrXJ6s3TNS8yyWYtuH9YxzL65I3Vf674u3bppWzdnbqaxImVNmO8TCI0k8P3k6yzR7K7WAXkWIiJQjMWm/e6XlNpfx6Kp5vPjQMCYMjqKzWw/AhkT3iGL0DRN48a0necEt3ELR3s38o0oFqA9x+Ik5rD9o2I/bzMz1L7xOuzrZOsi437aB4UN7b8XXrFjVB1cCSOjUf3GNMdwWH2D9k9UNt+U4m0vGmvn8OUHhVmoPLVEWESnP2jdZMuBR7jW+bd24JXFDxxE31PNhir5fxyMPbfWsLVGptvDt3Bdp/fJ99Glmv6ilmWsWzOeNe+bVqX1szsJSxqXJpgYV31DEqxzBVvFWAkPI5LXcNDbGtSe2+BBJ/7iFb728naXwdCGFJ9JJ27yBZW8tI1nBVmoZLVEWEalQE4bdOZUZV3SlRWXXvZzK4uvVb/LkquxqhFuD0CkMc4bcXNJemuClfVU1z2Sy7a1133erZcniS1bn57OWM1gsRVgsle0QLlJLRcxg2DN32n4/WI6x/ZVJJNWR3w8i3qSAKyLisSYMuHYY4wbFEx3dghaNzyM4uMRVik5TdOpXMg8e5IvPNvDR+lzvBFujiBkMW3g9vDOpzoRbW7AtGW4bOEOvliaLb9gqJluxYrGcse/DVcCVANL1PkbdPYL8925ia535/SDiXQq4IiJSw9zDrbGwlIKt+JajNZDFHnDP2IpMiYhIwNAeXBERqTGOwlG2UOsKuJi0JFn8weqsmOzsgysiIgFFAVdERGqQyS3Yui9LFvEHW8gVEZHApIArIiJeZMJksn12D7fGglIKt+I/rplbhVwRkUCkgCsiIl5hwgQmEyaCbLO0zl63Qa7LRPzI6viP1db/ViFXRCTwKOCKiIgX2MItmDAFuSolOwpMadZWagdHFWULCrciIoFJAVdERKrAfSmyyT5zi7Nasq2QlAnXdUT8zmpfoqwZXBGRgFXr2wSJ1GaT39lc4/fx5sRhNX4fIpXjmpV1LUE22UOtybBU2RhsFXDF/6zWs7bet9YztoBrtaiSsohIgNEMroiIVIpj5tbVzzaoRAEphVmprWxh1jF7q2grIhJ4FHBFRKQUtvlX575a+2W2fw1LkZ0zt+prK7WVtcSRfWmyWgWJiAQkBVwRL3lzmveWEk9+veaXPouUzRVuXRWRjUuPgwyf0VJkqSPs+27tH5q/FREJTAq4IiL1lunco5KFo+wtfnDO1hpCrsKs1BmOOOtYmqxwKyISqBRwRUQCnquWsTHA2v5kcl527p9dhaKcrX6cM7YidYx91lbRVkQksCngiogENHuQNc7MltxLS8klyK4w6x5nFWylbnLfd6uIKyISyBRwRURqhRIxstQsWdmA6cksrWHpsXGmtkr3J1JLWW2VkzV/KyIS+BRwRURqAVuwBPcQ6naNUo5MJS4oeR2TY/CSl+C+3LjEn0UCimPfrQVnoSkREQlYCrgiIrWArWgT9vY75wbNc/a9nhNaS9sf61hyXPo9VnRGIoHCarVitVoUbkVE6gEFXBGR2sDk2Csb5OwvW8qV3P54bpi1fT53z6zCqtR32oMrIlJfKOCKiNQCrj2wQa7WPGVe2f0PpS1eFhEbZ2Mg5x5cBVwRkUBWzisoEamqqGHw5VKY2dLfZyJ1hQl7sSeCMJkalP+B48MRhI0fplI+RMQ2e2tBq5RFRAJbHZzB/Sv/vPEaOjsOC4s49dvPpKf/l6U/ryfT4s9zE7GF23/PhIgGMOsZ4D5YnOPvsxIRqW/sSdZqdfXAtRouFxGRgFT3Z3BDgglrHcuAIXfx2oRlPN46zt9nJPXc1NG2cAtAM1vInRrq11MSEalnrM7PViyGpckKtyIiga7uB1yjJm0YMPoRHm+mNCH+M/8x2HDIcEEzmDUfEvx2RiIi9ZG9JZBVxaVEROqTOrhE+TVuXfEaAGEN4xjUfjITB/aiTRP7l03NGTDkfoZ9+Cib/XeStUwTus+4gclD4olo7LjsRz68+gU+rs6woeH0vHYcIy7tTGxEOI0cb5dYzlCQm80PP6Ty+fIv2H3oTP0aPx/ueABWvATmZraLQjrBogfh6ichq2pnKyIilWArKmWxtQfCqnwrIlJPmAiEH/lBo3j8irsY0MJxQRHpG8cz67A/T6o2aEjbaydw47iBxDQt+bXqBNyGtL32L9wx8SIiKlwDUMAv//cuC5/ZRUEAjj/5HdfbKG9OG+b+xa7w8QKIbeS6KH0VXP1exWc4+XXDuBOHlXNNCRQNG9jefTKZGmAKalB+FWURqYAVq/UsFqsFq/UsVstZLNazBMJLHhERKV9gvIKyrGfhN3spcl4QTHSroX48If9rctkY7nnjSR67obRwWx0N6fnAAzx2gyfhEKAJbf/fTSxcNIKIejG+wfcwfx0UGi6KnwBztIJeRKTG2WZtDTO4IiJSL9TBJcqlO3VoL5nEOasrhzWPBT7z5yn5RZOLBzHp5jEMcK7Ztvu9gOLGTWhU+s08FjH1Nm4ZWKL3Td6PfP3lF2zdls1pWhJ7WV8uHXgR0YYg1yR2DA88fIgHn0inOIDHLyn5TVgZD1O72i9oBJPmwMp5WqosIlKjrI6QqwJTIiL1ScAEXMjg19+A8/19Hn4S2pExj93E+NjwEl8o4Jfta3jpy648cNfF1Qu4Xa/ijrEdDWOc4Zf/e6vE8t1DZO7YxWcvtWTQ/DuZ3NN1PuH9/sSNQx7ltc8DdPwyPLUAzMsg3n7HIT3giQS4Maly44iISGXYZ3CxoOa3IiL1R2AsURYgiu7RJcJtXjqJ8+bx6BPbOF7t8RsydNpltDVckvvNGzxe5t7XHLbOe5EPM40FmsLpc/mgMkJ2XR+/HPnwfIlQbL4KzJUdR0REKuCarXX8Y+uBKyIi9YUCbqDI38pn6Y6oVkDm5n9y1+RX2bC7ihWGS+owkku7Gib8i/ez7tmKluvm8PHbqW7hulFXM1d0CMDxK5D0JqTlGy7oBFP7VX6c0sTfupT/pexj37597NuVwsdPTyLKO0OLiNRBxvZAjoXJirgiIvWFAm4ASVu3i8yj3/DmvHk8/tL+SlQVrlj4FRcRbTjO3bmRz/LLvLpLysd8bewJS3t6jC65jLruj1+hfEjc6X6R+YrKD3OOKStYcVcCUY5TCgkndtwcli7Q/LCI1E+OQOucwVW4FRGpVxRwA0nKuzw+4y22emvW1qkhgzpHGo5z+e7L/R7dru211zKgrfulbWMuCrDxPZP4b/fCUiHxMKdKI7nMGW/m3LgdQuywqYyt5tgiInWPq3KyCkuJiNRPAVRkSmrORXQwhrzibDIqKrRUZtEraNQ6iu7AdwEzvod+hrRDENXeMRCY/wh40Be3LOEhZXwhOIRWVR9WRKROslqtWK0WLNaz9pArIiL1TeAG3IahRAOZ/j6PQBDakpaNDcc5WaSWc/Uml13FvbcOJbpxGVcIbUFbDAGxro9fCYnpMLa96ziqWxUGMUjLOs6EmFI69J44Rnr1hhYRqYPsC5OtFtc+XBERqVcCaInyD+ScMhy2imZYAP3t/Kp/G5oZj/PzyC31ii0Z9PADLLynRDi0FFBgrObUqBFuXXrr+viVkJyO232HR1GtpcSJj79OcskS2YUZJC6cTXI1xhURqbOsxkrKIiJS3wRQBPyZzw4dcR0GxzG65yjC/HdCgaPEd0nuiaxzrtKo50BmvvYIk/tFuoe/nF28+bd/8EWO8cIWRFwaQONXRhIcMx43h/gqDgXAT8u4ceJsFq9JJn1/BmlbVjJ/4hge3lydQUVE6iZnaSnN3IqI1FsBtUR5x74NpPeaTLx9X2KL3nfxZvP/x6e7/sPm33byw1n/nl+d1bFFKYWMHBrS9oabuPfqeMLdguQZftmeyEv2HrxjSpR0DjY2k63r41fSsVxwbu1tBFEXAD9XfTx+Wsvz96/l+WoMISJSdxnCrHNZssW+OllBV0SkvgmogIvlXR75byTPjxlFtH0aLqxDfyZ06M8Ex3V++g8jP3/NX2cYWCK6MGHuTYyMLrFg9/dDbPjnKyR+Uc1GRXV9/DJk5YAxcYfHUL2AKyJS79lmbV0zuP4+HxER8ZfACrjAqVMv8NfV/2FY7K1MjI8jukWwv0+p7juWSwG4Ld1tMvrPPHDjQNqWKMRUkPExLzy6kQPl9pgtJv9kAI0vIiJ+ZQu3FsMMrhKuiEh9FXABl+BreXzIXxjQVsHWa/LOUIwrIIZfPJ0X+pX41rHkkPbOq7z2fjbFJW9POOe5TZLm8duOABpfRET8yF5Qyh5yVVpKRKR+C7CAO5R5o6YxoIX90FrEkfQNrPn+M1JO7SVTLfGq5uRpiozHQe7fNsVHv2HVP95i6/dlDRBFs1DD4e+5uBX+revji4iI31hx9L89ay8upYArIlKfBVTADetwDYMc4ZYiMr94kL8e3OvPUwoMO7I5XgwR5xRWKuCX/3uXhc/sotzdqqHtadPUcHwyx72HbF0fX0RE/Me5PNn+oYArIlKvBVTAnXhBrOvg9F4+Ubj1koP8cgK6tzZclP8jH770Ch9vO1Pxza/oQlvDYcGxrBJ9aOv6+JXTKtT9+Nj2agwmIlIvWd3/bDUUmVK+FRGp1wKoD+6ltGluODxxhBS/nUugOURapnukO74z0bNwSEOG9u2Ea/L0DD99+02AjV854cbZ4ALIKreglYiIlM1QORmLliiLiEggBdxgghsYDs/kk+mtoXtMYtH7X5KStouUpI9Z+uBYorw1dh3xXeqPbst4I3qNZEBomVd36TqGIV0NCwWKD5K2OvDG99hFcIGxYNVJSK7GcABR1y/ig6QUdqXtIuWTFcy7vr59d4pI/WSLtbbKyQq3IiJiE0ABt6ZMZcVr8xjbI4Lw80IIbxNLwpQnWPr3BH+fmG99uoHUHMNx6EVcNyuec7a1umnJmFsuc1vem7tzI58F4vgeiuoLEcbxsqoZcIctYsXcscS3CSfkvBDCY8xM+tsHrPirQq6IBDar1YrVYsFqdVROVrgVEREF3IpNSSC+eckLQ4gdP4t5HfxxQv5yiFUb9ru10AnvdxNzbu1YRkhsyaD5dzK+k3H2cz/rnt8foON7Zmo39+OM6q12ZuwfLyGqQclLwzH/ZQ5jqze0iEgt5mgJZA+42ngrIiJ2AVVkyqcaxGP+KzDX3ydiMPpa7hkeWfrXGkXi1sqVSAYuupXupVz1l03/ZNWn515evPrfrDM/YAh9DYkecReLLk4neUsqabuyOU1LYocNZMjF8bR1WwJ8hu8Sl/JZOftN6/r4FQqFPp0Mx/mQtL4a45WnTTwjL4W1X9bQ+CIifmEIslarffZWlZNFRMRFAbciy5NIv82MOfzcL7XqMBVY5vNTKlO7KLrHdvTwyk1oG+teHdghOL2s2+Tw8dw3iHjhZga1NIzUMp6hV8cz9OqybneGA+sW8dLqioo61fXxy2eeBPGG6eLcdFhcrRFh7aY9PDAswW3Zs0044V0ABVwRCUCuisnaeysiIu60RLlCy3h4SXK12sIElPx03rxrIYl7PXxEfs9m65J5LHwt2215cMCOX46Z/8/9OG1jNQcEeH86D63J8sJAIiJ1hT3Q2mdwwaLWQCIi4qQZXA9kvXYjiwenMGeg+zRu7pENfjojP8vPZsNDj/JZz4u44qpB9OnWiYimDV17WYsLOH50P7u3bOXD1fvdqhfXi/FLYb4Jt1UAhd/DfC/1v026fz4b+i1lZPsSXzjrnfFFRGoHW7C1Gnre4ux7q4QrIiI2CrgeWpaawayBfQhxXpJLVnotmzlb9gLTfbhiunj3Lj7cvYsPNX75QmHWMPeLkhPBe989SaRl5TKyvSFBn80i/S2v3YGISK1gNRSXwmpxXioiIuKgJcoeiooMN4RbIDedpOX+OhupS6beDX0MBatyU2C6l2ZvHcJDQtwv+D6Nld69CxER/7Pa9986WgNpbbKIiJQQQDO4sbQwriCuXj0gN1FXLmLplbFul2VsXFybyktJLRU1DGZebLggFxa/6N37SLjvXSb1Ngbc4yS9Nd+LM8QiIv5kdX52zNw6iksp3oqISEkBE3DDWscSbXId//rb3uoN2MHMyMFmxo7/IwlxEYQYeo0WHkjkqYeSqze+BL6usHQGGN93SX4TllWn1ZBDjwQmjRzLyBEJmGOM91BIxvsPMf19L9yHiEhtY7U6e986i02JiIgYBEbADRrFAwN7Eey8IJ/MQ1XtjzKVFSlzSm0LBFC4fy0P3/YwSVUcXeqJUFjxAMQa2wJtgxs3V3PcKStIedBM6d+ehRzf/DzTH9J3p4gEGqtbayDHsYiISEl1OuCGNYxjUPvJTBzYizZNDF/I2UHir16+s7O5ZPz3eWbfv5Iy28SK2D0xH8zNXMeFB2H2UzV4h7kZrH1xNrPf0neniAQaq2vfrdVibw+kcCsiIqWrgwH3r/zzxmvoXNaXrSf4euvzfO2Feyo8nUvekQy+2ZjI4mcTFWzFI088DRM6uY4LD8FT8/DurP/ZQgoLCzm2N42kzctY9lqy9tyKSECyLUR2VE52tQcSEREpTR0MuOUoOMLWTfcy/2R1Njku48b+Kh8lVbfyfzCys33v7XF4/gFY6Y19twDLb6S/qneLSL1gD7FWwwwulvJvIiIi9V7dD7iFRZz67WfS0//L0p/Xk6nffeJn6ethdhOYNwJW3u+lolIiIvWK1f3PxsrJWp4sIiLlqIMB9zVuXfGav09CpFxJH8IfPvT3WYiI1HWumVtX5WQREZGy1cGAKyIiIoHOuOfWNmtrwTZ5q5ArIiJlC/L3CYiIiIi4s4LVisV61lA52X65iIhIOTSDK+Ilk1+vbpNbEREBe+Vk577bs/biUgq3IiJSMQVcERERqSUMlZMd+2+tagskIiKe0xJlERERqQWshs9W5wyua++tiIhIxUzobVEREb9r2KAxACZTA0xBDTDp/Uepd+zBFrBazmCxnOGspRi9TBERkcrQEmURERGpFWx9bi3O1kAiIiKVpSkCERERqQWs9n63Z7X3VkREqkwzuCIiIuJHVtd/7TO4FutZFG5FRJIheP4AAAKNSURBVKQqFHBFRETEj4wVky3OlkBWVZYSEZEq0BJlERER8ROr28yt60PLk0VEpGo0gysiIiI+ZgivxmCLBRRuRUSkGjSDKyIiIn5itVdOdhWWUrQVEZHq0AyuiIiI+IF97y0WLFZb9WTN3oqISHUp4IqIiIiPWZ09b7HalyVr9lZERLxAS5RFRETEp1xVk8/alyVbjc2CREREqkwBV0RERHzIav/X4gy52FsDiYiIVJeWKIuIiIgP2PbX2mZvzxoqJ1tRy1sREfEWBVwRERHxCdtyZGNboLP2cKuEKyIi3qGAKyIiIjXIavhsdfa7dbQFEhER8SbtwRUREZEa4gqwjqrJjg/N2oqISE1QwBUREZEaZpi9de6/VcAVERHv0xJlERERqTFWrGCYuVW4FRGRmqSAKyIiIjXHasHimLV1awekkCsiIt6ngCsiIiI1xLjvVkuTRUSk5ingioiIiJcZ99waCksp3IqISA1TwBURERGvcuy7taglkIiI+JgCroiIiHiRFaxWW7i1L0tGbYFERMRHFHBFRETEC+zLksEebB0fVkVbERHxGQVcERER8QKrfWlyyb23tuArIiLiCwq4IiIi4h1Wq33G1hVyRUREfCnI3ycgIiIigcIEJn+fg4iI1GcKuCIiIiIiIhIQFHBFRETEC0z2f+3/mGyfNaUrIiK+pD24IiIi4hUmTFhNJkymIEw0sGdbC7YWuCo0JSIiNU8BV0RERLzENmeLKQgTVgiyggXgrOKtiIj4hAKuiIiIeIFhKbLJhMmxC8pk745rtaBZXBERqWkKuCIiIuJVJkz2WVwTFpMVExbApKXKIiJS41RkSkRERLzMtgfXZAqy78cNAnvhKRERkZr0/wHuw4AdbRyJ3AAAAABJRU5ErkJggg==;" vertex="1" parent="1">
          <mxGeometry x="260" y="169.99999999999997" width="137.45" height="33.35" as="geometry" />
        </mxCell>
        <mxCell id="qx6QT4jI885-rkSV4hu6-10" style="edgeStyle=orthogonalEdgeStyle;rounded=0;orthogonalLoop=1;jettySize=auto;html=1;exitX=0.25;exitY=1;exitDx=0;exitDy=0;entryX=0.25;entryY=0;entryDx=0;entryDy=0;" edge="1" parent="1" source="qx6QT4jI885-rkSV4hu6-4" target="JSBXhnSBdoEHyfM7yJ-U-19">
          <mxGeometry relative="1" as="geometry" />
        </mxCell>
        <mxCell id="qx6QT4jI885-rkSV4hu6-4" value="setTimeout&lt;br&gt;setInterval" style="rounded=0;whiteSpace=wrap;html=1;" vertex="1" parent="1">
          <mxGeometry x="585" y="130" width="190" height="40" as="geometry" />
        </mxCell>
        <mxCell id="qx6QT4jI885-rkSV4hu6-13" style="edgeStyle=orthogonalEdgeStyle;rounded=0;orthogonalLoop=1;jettySize=auto;html=1;exitX=0;exitY=0.5;exitDx=0;exitDy=0;" edge="1" parent="1" source="qx6QT4jI885-rkSV4hu6-2" target="JSBXhnSBdoEHyfM7yJ-U-7">
          <mxGeometry relative="1" as="geometry" />
        </mxCell>
        <mxCell id="qx6QT4jI885-rkSV4hu6-14" value="anonymous&lt;br&gt;실행 컨텍스트&lt;br&gt;Execution Context&lt;br&gt;&lt;br&gt;" style="rounded=0;whiteSpace=wrap;html=1;" vertex="1" parent="1">
          <mxGeometry x="40" y="290" width="200" height="70" as="geometry" />
        </mxCell>
        <mxCell id="qx6QT4jI885-rkSV4hu6-16" value="" style="rounded=0;whiteSpace=wrap;html=1;" vertex="1" parent="1">
          <mxGeometry x="20" y="680" width="770" height="500" as="geometry" />
        </mxCell>
        <mxCell id="qx6QT4jI885-rkSV4hu6-17" value="JS Runtime" style="rounded=1;whiteSpace=wrap;html=1;" vertex="1" parent="1">
          <mxGeometry x="20" y="620" width="120" height="60" as="geometry" />
        </mxCell>
        <mxCell id="qx6QT4jI885-rkSV4hu6-18" value="" style="rounded=0;whiteSpace=wrap;html=1;" vertex="1" parent="1">
          <mxGeometry x="250" y="720" width="210" height="310" as="geometry" />
        </mxCell>
        <mxCell id="qx6QT4jI885-rkSV4hu6-19" value="Memory Heap" style="rounded=1;whiteSpace=wrap;html=1;" vertex="1" parent="1">
          <mxGeometry x="250" y="720" width="210" height="40" as="geometry" />
        </mxCell>
        <mxCell id="qx6QT4jI885-rkSV4hu6-20" value="" style="rounded=0;whiteSpace=wrap;html=1;" vertex="1" parent="1">
          <mxGeometry x="40" y="720" width="200" height="310" as="geometry" />
        </mxCell>
        <mxCell id="qx6QT4jI885-rkSV4hu6-21" value="Call Stack" style="rounded=1;whiteSpace=wrap;html=1;" vertex="1" parent="1">
          <mxGeometry x="40" y="720" width="200" height="40" as="geometry" />
        </mxCell>
        <mxCell id="qx6QT4jI885-rkSV4hu6-23" value="Event Loop" style="ellipse;shape=umlControl;whiteSpace=wrap;html=1;" vertex="1" parent="1">
          <mxGeometry x="30" y="1091" width="70" height="80" as="geometry" />
        </mxCell>
        <mxCell id="qx6QT4jI885-rkSV4hu6-24" value="Web API" style="rounded=1;whiteSpace=wrap;html=1;" vertex="1" parent="1">
          <mxGeometry x="580" y="690" width="200" height="40" as="geometry" />
        </mxCell>
        <mxCell id="qx6QT4jI885-rkSV4hu6-26" value="" style="rounded=0;whiteSpace=wrap;html=1;" vertex="1" parent="1">
          <mxGeometry x="510" y="1050" width="190" height="90" as="geometry" />
        </mxCell>
        <mxCell id="qx6QT4jI885-rkSV4hu6-27" value="Callback Queue" style="rounded=1;whiteSpace=wrap;html=1;" vertex="1" parent="1">
          <mxGeometry x="510" y="1010" width="190" height="40" as="geometry" />
        </mxCell>
        <mxCell id="qx6QT4jI885-rkSV4hu6-28" value="Javascript Engine" style="swimlane;whiteSpace=wrap;html=1;" vertex="1" parent="1">
          <mxGeometry x="30" y="690" width="440" height="350" as="geometry" />
        </mxCell>
        <mxCell id="qx6QT4jI885-rkSV4hu6-31" value="anonymous([1, 2, ...])" style="rounded=0;whiteSpace=wrap;html=1;" vertex="1" parent="1">
          <mxGeometry x="40" y="1010" width="200" height="20" as="geometry" />
        </mxCell>
        <mxCell id="qx6QT4jI885-rkSV4hu6-37" value="forEach" style="rounded=0;whiteSpace=wrap;html=1;" vertex="1" parent="1">
          <mxGeometry x="40" y="990" width="200" height="20" as="geometry" />
        </mxCell>
        <mxCell id="qx6QT4jI885-rkSV4hu6-38" value="anonymous(item = 2)" style="rounded=0;whiteSpace=wrap;html=1;" vertex="1" parent="1">
          <mxGeometry x="40" y="970" width="200" height="20" as="geometry" />
        </mxCell>
        <mxCell id="qx6QT4jI885-rkSV4hu6-39" value="console.log" style="rounded=0;whiteSpace=wrap;html=1;" vertex="1" parent="1">
          <mxGeometry x="40" y="950" width="200" height="20" as="geometry" />
        </mxCell>
      </root>
    </mxGraphModel>
  </diagram>
</mxfile>
